<?xml version="1.0" encoding="utf-8"?>
<!-- Generator: Adobe Illustrator 17.1.0, SVG Export Plug-In . SVG Version: 6.00 Build 0)  -->
<!DOCTYPE svg PUBLIC "-//W3C//DTD SVG 1.1//EN" "http://www.w3.org/Graphics/SVG/1.1/DTD/svg11.dtd">
<svg version="1.1" id="Layer_1" xmlns="http://www.w3.org/2000/svg" xmlns:xlink="http://www.w3.org/1999/xlink" x="0px" y="0px"
	 viewBox="0 0 190 112.8" enable-background="new 0 0 190 112.8" xml:space="preserve">
<g>
	<g>
		<path fill="#FFFFFF" d="M17.9,69.5h-1.6v-2.7h1.9l0.8-5.4h2.7v5.4H25v2.7h-3.3v13.2c0,0.5,0,0.8,0.1,1.1s0.2,0.5,0.4,0.6
			c0.2,0.2,0.3,0.3,0.5,0.3c0.2,0,0.4,0.1,0.6,0.1c0.4,0,0.7,0,1-0.1c0.3-0.1,0.6-0.2,0.8-0.4v2.1c-0.2,0.3-0.5,0.5-0.7,0.7
			c-0.3,0.2-0.5,0.3-0.8,0.4c-0.3,0.1-0.5,0.2-0.8,0.2c-0.3,0-0.6,0.1-0.8,0.1c-0.5,0-1-0.1-1.5-0.2c-0.5-0.1-0.9-0.4-1.3-0.8
			c-0.4-0.4-0.7-0.9-0.9-1.6c-0.2-0.7-0.3-1.6-0.3-2.7V69.5z"/>
		<path fill="#FFFFFF" d="M22,88.1c-0.6,0-1.1-0.1-1.6-0.2c-0.6-0.2-1-0.5-1.5-0.9c-0.4-0.4-0.7-1-1-1.8c-0.2-0.7-0.4-1.7-0.4-2.8
			V69.8H16v-3.4h2l0.8-5.4h3.4v5.4h3.3v3.4h-3.3v12.8c0,0.4,0,0.7,0.1,1c0.1,0.2,0.2,0.4,0.3,0.5c0.1,0.1,0.2,0.2,0.4,0.2
			c0.5,0.1,1,0.1,1.4-0.1c0.3-0.1,0.5-0.2,0.7-0.3l0.5-0.3v2.9l-0.1,0.1c-0.2,0.3-0.5,0.5-0.8,0.7c-0.3,0.2-0.6,0.3-0.9,0.4
			c-0.3,0.1-0.6,0.2-0.9,0.2C22.6,88,22.3,88.1,22,88.1z M16.7,69.1h1.6v13.2c0,1.1,0.1,2,0.3,2.6c0.2,0.6,0.5,1.2,0.8,1.5
			c0.3,0.4,0.7,0.6,1.2,0.7c0.7,0.2,1.4,0.2,2.2,0.1c0.3,0,0.5-0.1,0.7-0.2c0.2-0.1,0.5-0.2,0.7-0.4c0.2-0.1,0.4-0.3,0.6-0.5v-1.4
			c-0.1,0.1-0.2,0.1-0.4,0.1c-0.5,0.2-1.2,0.2-1.8,0.1c-0.3-0.1-0.5-0.2-0.7-0.4c-0.2-0.2-0.3-0.5-0.4-0.8c-0.1-0.3-0.1-0.7-0.1-1.2
			V69.1h3.3v-2h-3.3v-5.4h-2l-0.8,5.4h-1.9V69.1z"/>
	</g>
	<g>
		<path fill="#FFFFFF" d="M27.6,60.1h3.8V65l-0.2,3.5c0.3-0.4,0.6-0.7,0.9-1c0.3-0.3,0.7-0.5,1-0.6s0.7-0.3,1.1-0.3
			c0.4-0.1,0.7-0.1,1.1-0.1c1.2,0,2.1,0.4,2.8,1.3c0.7,0.8,1,2.1,1,3.8v15.8h-3.8V71.8c0-0.9-0.1-1.5-0.4-1.9s-0.7-0.5-1.2-0.5
			c-0.4,0-0.8,0.1-1.1,0.4c-0.4,0.3-0.7,0.6-1,1.1v16.7h-3.8V60.1z"/>
		<path fill="#FFFFFF" d="M39.4,87.8h-4.5V71.8c0-1-0.2-1.5-0.3-1.7c-0.4-0.5-1.1-0.6-1.9-0.1c-0.3,0.2-0.6,0.5-0.9,0.9v16.9h-4.5
			v-28h4.5V65l-0.1,2.5c0.1-0.1,0.2-0.2,0.3-0.2c0.3-0.3,0.7-0.5,1.1-0.7c0.4-0.2,0.7-0.3,1.1-0.4c0.4-0.1,0.7-0.1,1.1-0.1
			c1.3,0,2.4,0.5,3.1,1.4c0.7,0.9,1.1,2.3,1.1,4V87.8z M35.6,87.1h3.1V71.6c0-1.6-0.3-2.8-0.9-3.6c-0.6-0.8-1.4-1.1-2.5-1.1
			c-0.3,0-0.7,0-1,0.1c-0.3,0.1-0.7,0.2-1,0.3c-0.3,0.1-0.6,0.3-0.9,0.6c-0.3,0.2-0.6,0.5-0.8,0.9l-0.7,1l0.3-4.7l0-4.5H28v26.6h3.1
			V70.7l0.1-0.1c0.3-0.5,0.7-0.9,1.1-1.2c0.4-0.3,0.9-0.4,1.3-0.4c0.7,0,1.2,0.2,1.5,0.7c0.3,0.4,0.5,1.1,0.5,2.1V87.1z"/>
	</g>
	<g>
		<path fill="#FFFFFF" d="M45,63.8c-0.7,0-1.3-0.2-1.7-0.6c-0.4-0.4-0.6-1-0.6-1.8c0-0.5,0.1-0.8,0.2-1.1c0.1-0.3,0.3-0.6,0.5-0.7
			s0.4-0.3,0.7-0.4c0.3-0.1,0.6-0.1,1-0.1c0.8,0,1.3,0.2,1.7,0.6c0.4,0.4,0.6,1,0.6,1.8c0,0.8-0.2,1.4-0.6,1.8S45.8,63.8,45,63.8z
			 M43,66.8h3.8v20.7H43V66.8z"/>
		<path fill="#FFFFFF" d="M47.2,87.8h-4.5V66.4h4.5V87.8z M43.4,87.1h3.1v-20h-3.1V87.1z M45,64.2c-0.8,0-1.4-0.2-1.9-0.7
			c-0.5-0.5-0.7-1.2-0.7-2.1c0-0.5,0.1-0.9,0.2-1.2c0.1-0.4,0.3-0.7,0.5-0.9c0.2-0.2,0.5-0.4,0.9-0.5c0.3-0.1,0.7-0.1,1.1-0.1
			c0.8,0,1.5,0.2,2,0.7c0.5,0.4,0.7,1.1,0.7,2.1c0,0.9-0.2,1.6-0.7,2.1C46.5,63.9,45.9,64.2,45,64.2z M45,59.3c-0.3,0-0.6,0-0.9,0.1
			c-0.2,0.1-0.4,0.2-0.6,0.3c-0.2,0.1-0.3,0.3-0.4,0.6c-0.1,0.3-0.1,0.6-0.1,1c0,0.7,0.2,1.3,0.5,1.6c0.3,0.4,0.8,0.5,1.4,0.5
			c0.7,0,1.1-0.2,1.5-0.5c0.3-0.4,0.5-0.9,0.5-1.6c0-0.7-0.2-1.3-0.5-1.6C46.2,59.5,45.7,59.3,45,59.3z"/>
	</g>
	<g>
		<path fill="#FFFFFF" d="M50.8,66.8h2.9l0.3,2.2v0c0.3-0.5,0.6-0.9,1-1.2s0.7-0.6,1.1-0.8c0.4-0.2,0.7-0.3,1.1-0.4
			c0.4-0.1,0.8-0.1,1.1-0.1c1.2,0,2.1,0.4,2.8,1.3c0.7,0.8,1,2.1,1,3.8v15.8h-3.8V71.8c0-0.9-0.1-1.5-0.4-1.9s-0.7-0.5-1.2-0.5
			c-0.4,0-0.8,0.1-1.1,0.4c-0.4,0.3-0.7,0.6-1,1v16.7h-3.8V66.8z"/>
		<path fill="#FFFFFF" d="M62.5,87.8H58V71.8c0-1-0.2-1.5-0.3-1.7c-0.4-0.5-1.1-0.6-1.9-0.1c-0.3,0.2-0.6,0.5-0.8,0.9v17h-4.5V66.4
			H54l0.3,1.7c0.2-0.2,0.3-0.4,0.5-0.5c0.4-0.3,0.8-0.6,1.1-0.8c0.4-0.2,0.8-0.4,1.2-0.4c0.4-0.1,0.8-0.1,1.2-0.1
			c1.3,0,2.4,0.5,3.1,1.4c0.7,0.9,1.1,2.3,1.1,4V87.8z M58.7,87.1h3.1V71.6c0-1.6-0.3-2.8-0.9-3.6c-0.6-0.8-1.4-1.1-2.5-1.1
			c-0.4,0-0.7,0-1.1,0.1c-0.4,0.1-0.7,0.2-1,0.4c-0.3,0.2-0.7,0.4-1,0.7c-0.3,0.3-0.6,0.7-0.9,1.1l-0.6,1V69l-0.3-1.9h-2.3v20h3.1
			V70.6l0.1-0.1c0.3-0.5,0.7-0.9,1.1-1.1c0.4-0.3,0.9-0.4,1.3-0.4c0.7,0,1.2,0.2,1.5,0.7c0.3,0.4,0.5,1.1,0.5,2.1V87.1z"/>
	</g>
	<g>
		<path fill="#FFFFFF" d="M66.2,60.1H70v15.7h0.1l4.1-9.1h3.7l-4.6,9.5l5,11.2h-3.9l-4.4-10.3H70v10.3h-3.8V60.1z"/>
		<path fill="#FFFFFF" d="M78.9,87.8h-4.6l-3.9-9.2v9.2h-4.5v-28h4.5v14.7l3.7-8.1h4.4l-4.8,9.8L78.9,87.8z M74.7,87.1h3.1
			l-4.9-10.9l4.4-9.1h-2.9l-4.1,9.1h-0.7V60.5h-3.1v26.6h3.1V76.9h0.7L74.7,87.1z"/>
	</g>
	<g>
		<path fill="#FFFFFF" d="M79.7,84.8c0-1.1,0.2-1.8,0.6-2.3c0.4-0.5,1-0.7,1.7-0.7c0.8,0,1.3,0.2,1.7,0.7c0.4,0.5,0.6,1.2,0.6,2.2
			c0,0.9-0.2,1.6-0.6,2.1c-0.4,0.5-1,0.8-1.8,0.8c-0.7,0-1.3-0.2-1.7-0.7C79.9,86.5,79.7,85.7,79.7,84.8z"/>
		<path fill="#FFFFFF" d="M82,88c-0.8,0-1.5-0.3-2-0.9c-0.5-0.6-0.7-1.4-0.7-2.4c0-1.1,0.2-2,0.7-2.5c0.5-0.5,1.2-0.8,2-0.8
			c0.9,0,1.5,0.3,2,0.9c0.5,0.6,0.7,1.4,0.7,2.5c0,1-0.2,1.8-0.7,2.4C83.6,87.7,82.9,88,82,88z M82,82.2c-0.6,0-1.1,0.2-1.5,0.6
			c-0.4,0.4-0.5,1.1-0.5,2c0,0.9,0.2,1.5,0.5,1.9c0.4,0.4,0.8,0.6,1.4,0.6c0.6,0,1.1-0.2,1.5-0.6c0.4-0.4,0.5-1.1,0.5-1.9
			c0-0.9-0.2-1.6-0.5-2C83.2,82.4,82.7,82.2,82,82.2z"/>
	</g>
	<g>
		<path fill="#E97C4E" d="M90.9,88.9c0,0.9,0.2,1.5,0.5,1.9c0.3,0.4,0.8,0.6,1.5,0.6c0.3,0,0.5,0,0.8-0.1c0.3-0.1,0.5-0.2,0.7-0.5
			s0.4-0.5,0.5-0.9s0.2-0.9,0.2-1.5V85c-0.3,0.4-0.8,0.8-1.3,1.1s-1.2,0.5-2,0.5c-0.2,0-0.5,0-0.8-0.1s-0.6-0.1-1-0.3
			c-0.3-0.2-0.7-0.4-1-0.7s-0.6-0.8-0.9-1.3c-0.3-0.6-0.5-1.2-0.6-2.1c-0.2-0.8-0.2-1.8-0.2-3v-5.4c0-1.1,0.1-2.1,0.2-2.9
			c0.2-0.8,0.4-1.4,0.6-2c0.3-0.5,0.5-0.9,0.9-1.2c0.3-0.3,0.7-0.5,1-0.7c0.3-0.2,0.7-0.3,1-0.3s0.6-0.1,0.9-0.1
			c0.5,0,0.9,0.1,1.3,0.2c0.4,0.1,0.7,0.3,1,0.5c0.3,0.2,0.5,0.5,0.7,0.7c0.2,0.3,0.4,0.5,0.5,0.8l0.3-2h3v19.9
			c0,1.2-0.1,2.2-0.3,3.1c-0.2,0.9-0.6,1.7-1,2.4c-0.5,0.7-1.1,1.2-1.8,1.5C94.8,94,94,94.2,93,94.2c-0.7,0-1.3-0.1-1.9-0.2
			s-1.1-0.3-1.6-0.6c-0.5-0.3-0.8-0.7-1.1-1.2c-0.3-0.5-0.4-1.2-0.4-2c0-0.1,0-0.3,0-0.5c0-0.2,0.1-0.4,0.2-0.7H90.9z M93.1,83.7
			c0.3,0,0.5,0,0.7-0.1s0.4-0.2,0.5-0.3c0.2-0.1,0.3-0.3,0.4-0.5c0.1-0.2,0.2-0.4,0.3-0.6V70.8c-0.2-0.4-0.4-0.8-0.8-1.1
			c-0.3-0.3-0.7-0.4-1.1-0.4c-0.3,0-0.5,0-0.8,0.2c-0.2,0.1-0.4,0.3-0.6,0.6s-0.3,0.7-0.4,1.1c-0.1,0.5-0.1,1.1-0.1,1.9v6.8
			c0,0.8,0,1.4,0.1,1.9c0.1,0.5,0.2,0.9,0.4,1.2s0.4,0.5,0.6,0.6C92.5,83.6,92.8,83.7,93.1,83.7z"/>
	</g>
	<g>
		<path fill="#E97C4E" d="M107.7,87.7c-0.9,0-1.7-0.2-2.4-0.5c-0.7-0.3-1.3-0.8-1.7-1.5c-0.5-0.7-0.8-1.6-1.1-2.7
			c-0.2-1.1-0.4-2.4-0.4-4v-3.9c0-1.3,0.1-2.4,0.3-3.4c0.2-0.9,0.5-1.7,0.8-2.4c0.3-0.6,0.7-1.1,1.1-1.5c0.4-0.4,0.8-0.7,1.3-0.8
			s0.9-0.3,1.3-0.4c0.4-0.1,0.8-0.1,1.2-0.1c0.7,0,1.3,0.1,2,0.3s1.2,0.6,1.7,1.1c0.5,0.5,0.9,1.2,1.1,2c0.3,0.8,0.4,1.9,0.4,3.1
			c0,0.4,0,0.8,0,1.3c0,0.4-0.1,0.9-0.1,1.3c0,0.4-0.1,0.8-0.2,1.2c-0.1,0.4-0.1,0.8-0.2,1.1H106v2.1c0,0.9,0,1.7,0.1,2.3
			c0.1,0.6,0.2,1.1,0.4,1.5c0.2,0.4,0.4,0.6,0.7,0.8s0.6,0.2,1.1,0.2c0.2,0,0.5,0,0.7-0.1c0.2-0.1,0.4-0.3,0.6-0.5
			c0.2-0.2,0.3-0.5,0.4-0.9c0.1-0.4,0.2-0.8,0.2-1.4v-0.6h3.2v0.8c0,2-0.5,3.4-1.4,4.3C110.8,87.2,109.5,87.7,107.7,87.7z
			 M109.8,75.3c0-0.1,0-0.3,0-0.4s0-0.4,0-0.6s0-0.4,0-0.6s0-0.4,0-0.5c0-1.4-0.2-2.3-0.5-2.9c-0.3-0.6-0.8-0.9-1.4-0.9
			c-0.3,0-0.6,0.1-0.9,0.2c-0.3,0.2-0.5,0.4-0.6,0.8c-0.2,0.4-0.3,0.8-0.4,1.4S106,73.1,106,74v1.3H109.8z"/>
	</g>
	<g>
		<path fill="#E97C4E" d="M116.6,66.8h2.9l0.3,2.2v0c0.3-0.5,0.6-0.9,1-1.2s0.7-0.6,1.1-0.8c0.4-0.2,0.7-0.3,1.1-0.4
			c0.4-0.1,0.8-0.1,1.1-0.1c1.2,0,2.1,0.4,2.8,1.3c0.7,0.8,1,2.1,1,3.8v15.8h-3.8V71.8c0-0.9-0.1-1.5-0.4-1.9s-0.7-0.5-1.2-0.5
			c-0.4,0-0.8,0.1-1.1,0.4c-0.4,0.3-0.7,0.6-1,1v16.7h-3.8V66.8z"/>
	</g>
	<g>
		<path fill="#E97C4E" d="M132.1,61.8h9.5v3.1H136v7.7h4.3v3.1H136v8.8h5.8v3.1h-9.7V61.8z"/>
	</g>
	<g>
		<path fill="#E97C4E" d="M144.3,66.8h2.8l0.3,2.1c0.4-0.8,0.9-1.4,1.4-1.8s1.1-0.6,1.7-0.6c1.1,0,1.9,0.3,2.4,1
			c0.5,0.7,0.8,1.7,0.8,3c0,0.2,0,0.4,0,0.6c0,0.2-0.1,0.5-0.1,0.7c0,0.3-0.1,0.5-0.2,0.8c-0.1,0.3-0.1,0.5-0.2,0.7h-2.6v-1.9
			c0-0.4,0-0.8-0.1-1s-0.1-0.5-0.2-0.7s-0.2-0.3-0.3-0.3s-0.3-0.1-0.4-0.1c-0.3,0-0.6,0.1-0.8,0.3c-0.3,0.2-0.5,0.5-0.6,0.8v17h-3.8
			V66.8z"/>
	</g>
	<g>
		<path fill="#E97C4E" d="M158.2,63.8c-0.7,0-1.3-0.2-1.7-0.6c-0.4-0.4-0.6-1-0.6-1.8c0-0.5,0.1-0.8,0.2-1.1
			c0.1-0.3,0.3-0.6,0.5-0.7s0.4-0.3,0.7-0.4c0.3-0.1,0.6-0.1,1-0.1c0.8,0,1.3,0.2,1.7,0.6c0.4,0.4,0.6,1,0.6,1.8
			c0,0.8-0.2,1.4-0.6,1.8S159,63.8,158.2,63.8z M156.2,66.8h3.8v20.7h-3.8V66.8z"/>
	</g>
	<g>
		<path fill="#E97C4E" d="M168.8,87.7c-1.7,0-3.1-0.7-4-2.1c-0.9-1.4-1.4-3.6-1.4-6.5v-3.9c0-1.3,0.1-2.4,0.3-3.4
			c0.2-0.9,0.4-1.7,0.8-2.4c0.3-0.6,0.7-1.1,1.1-1.5s0.8-0.7,1.3-0.8s0.9-0.3,1.3-0.4c0.4-0.1,0.8-0.1,1.2-0.1
			c0.7,0,1.3,0.1,1.9,0.3c0.6,0.2,1.1,0.5,1.5,0.8c0.4,0.4,0.7,0.8,1,1.4s0.3,1.2,0.3,2c0,0.5,0,0.9-0.1,1.2c0,0.3-0.1,0.7-0.2,1h-3
			v-0.7c0-1-0.1-1.9-0.4-2.4c-0.2-0.6-0.6-0.9-1.2-0.9c-0.3,0-0.6,0.1-0.8,0.2c-0.2,0.1-0.4,0.4-0.6,0.7c-0.2,0.4-0.3,0.8-0.3,1.4
			s-0.1,1.3-0.1,2.2v5.9c0,0.9,0,1.7,0.1,2.3c0.1,0.6,0.2,1.1,0.3,1.5s0.4,0.7,0.6,0.9c0.3,0.2,0.6,0.3,0.9,0.3c0.2,0,0.4,0,0.6-0.1
			c0.2-0.1,0.3-0.3,0.5-0.5c0.1-0.2,0.2-0.5,0.3-0.9c0.1-0.4,0.1-0.8,0.1-1.4v-0.6h3.3v0.8c0,2-0.4,3.4-1.3,4.3
			C171.8,87.2,170.5,87.7,168.8,87.7z"/>
	</g>
</g>
<g>
	<g>
		<path fill="#FFFFFF" d="M23.2,98.5H25l0.7,5.5l0.2,2h0.1l0.2-2l1-5.5h1.6l1,5.5l0.3,2H30l0.1-2l0.6-5.5h1.7l-1.6,10.1h-1.7l-1-5.6
			l-0.2-1.5h-0.1l-0.2,1.5l-1,5.6h-1.8L23.2,98.5z"/>
	</g>
	<g>
		<path fill="#FFFFFF" d="M36.1,108.7c-0.4,0-0.8-0.1-1.2-0.2s-0.6-0.4-0.8-0.8c-0.2-0.3-0.4-0.8-0.5-1.3c-0.1-0.5-0.2-1.2-0.2-1.9
			v-1.9c0-0.6,0-1.2,0.1-1.6s0.2-0.8,0.4-1.2s0.3-0.6,0.5-0.7c0.2-0.2,0.4-0.3,0.6-0.4c0.2-0.1,0.4-0.2,0.6-0.2c0.2,0,0.4,0,0.6,0
			c0.3,0,0.7,0.1,1,0.2c0.3,0.1,0.6,0.3,0.8,0.5c0.2,0.2,0.4,0.6,0.6,1s0.2,0.9,0.2,1.5c0,0.2,0,0.4,0,0.6c0,0.2,0,0.4,0,0.6
			s0,0.4-0.1,0.6c0,0.2-0.1,0.4-0.1,0.5h-3.4v1c0,0.4,0,0.8,0.1,1.1c0,0.3,0.1,0.5,0.2,0.7s0.2,0.3,0.3,0.4c0.1,0.1,0.3,0.1,0.5,0.1
			c0.1,0,0.2,0,0.3-0.1c0.1,0,0.2-0.1,0.3-0.2s0.1-0.3,0.2-0.4s0.1-0.4,0.1-0.7v-0.3h1.5v0.4c0,1-0.2,1.7-0.7,2.1
			C37.7,108.5,37,108.7,36.1,108.7z M37.2,102.6c0-0.1,0-0.1,0-0.2c0-0.1,0-0.2,0-0.3c0-0.1,0-0.2,0-0.3s0-0.2,0-0.2
			c0-0.7-0.1-1.1-0.2-1.4c-0.2-0.3-0.4-0.4-0.7-0.4c-0.2,0-0.3,0-0.4,0.1s-0.2,0.2-0.3,0.4c-0.1,0.2-0.1,0.4-0.2,0.7
			s-0.1,0.7-0.1,1.1v0.6H37.2z"/>
	</g>
	<g>
		<path fill="#FFFFFF" d="M40.5,95.2h1.9v2.7l-0.1,1.3l0,0c0.1-0.1,0.2-0.2,0.3-0.3s0.2-0.2,0.4-0.3c0.1-0.1,0.3-0.2,0.5-0.2
			c0.2,0,0.4-0.1,0.6-0.1c0.1,0,0.2,0,0.4,0c0.1,0,0.3,0.1,0.4,0.1c0.2,0.1,0.3,0.2,0.5,0.3c0.2,0.2,0.3,0.4,0.4,0.6
			c0.1,0.3,0.2,0.6,0.3,1c0.1,0.4,0.1,0.9,0.1,1.5v3.1c0,0.6,0,1.1-0.1,1.5s-0.2,0.7-0.3,1c-0.1,0.3-0.3,0.5-0.4,0.6
			c-0.2,0.2-0.3,0.3-0.5,0.4c-0.2,0.1-0.3,0.1-0.5,0.2c-0.2,0-0.3,0-0.4,0c-0.2,0-0.4,0-0.6-0.1c-0.2-0.1-0.4-0.1-0.5-0.2
			c-0.1-0.1-0.3-0.2-0.4-0.3c-0.1-0.1-0.2-0.3-0.3-0.4l-0.2,0.9h-1.5V95.2z M42.3,106.5c0,0.1,0.1,0.2,0.1,0.3
			c0.1,0.1,0.1,0.2,0.2,0.2c0.1,0.1,0.2,0.1,0.3,0.2s0.2,0.1,0.3,0.1c0.1,0,0.3,0,0.4-0.1c0.1-0.1,0.2-0.1,0.3-0.3
			c0.1-0.1,0.1-0.3,0.2-0.6c0-0.2,0.1-0.5,0.1-0.9v-3.9c0-0.4,0-0.7-0.1-0.9c0-0.2-0.1-0.4-0.2-0.6c-0.1-0.1-0.2-0.2-0.3-0.3
			c-0.1,0-0.2-0.1-0.4-0.1c-0.2,0-0.4,0.1-0.6,0.2c-0.1,0.1-0.3,0.3-0.4,0.5V106.5z"/>
	</g>
	<g>
		<path fill="#FFFFFF" d="M50.6,106.5c0-0.2,0-0.4,0.1-0.6c0-0.2,0.1-0.4,0.1-0.5h1.3c0,0.4,0,0.7,0.1,0.9c0,0.2,0.1,0.4,0.2,0.6
			c0.1,0.1,0.2,0.3,0.3,0.3c0.1,0.1,0.3,0.1,0.5,0.1c0.3,0,0.5-0.1,0.6-0.2c0.1-0.2,0.2-0.3,0.2-0.5c0-0.1,0-0.2,0-0.3
			c0-0.1-0.1-0.2-0.1-0.3c-0.1-0.1-0.1-0.2-0.2-0.3c-0.1-0.1-0.2-0.2-0.3-0.3l-1.4-1.6c-0.2-0.2-0.3-0.4-0.5-0.7
			c-0.2-0.2-0.3-0.5-0.4-0.7c-0.1-0.2-0.2-0.5-0.3-0.8c-0.1-0.3-0.1-0.5-0.1-0.8c0-0.4,0.1-0.7,0.2-1c0.1-0.3,0.3-0.5,0.5-0.7
			c0.2-0.2,0.5-0.3,0.8-0.4s0.6-0.1,0.9-0.1c0.4,0,0.7,0,1,0.1c0.3,0.1,0.5,0.2,0.8,0.4c0.2,0.2,0.4,0.4,0.5,0.7
			c0.1,0.3,0.2,0.6,0.2,0.9c0,0.2,0,0.5-0.1,0.7c0,0.2-0.1,0.4-0.1,0.6H54c0-0.3,0-0.6,0-0.9c0-0.2-0.1-0.5-0.1-0.6
			c-0.1-0.2-0.2-0.3-0.3-0.4c-0.1-0.1-0.3-0.1-0.5-0.1c-0.2,0-0.3,0-0.4,0.1c-0.1,0.1-0.2,0.1-0.3,0.2c-0.1,0.1-0.1,0.2-0.1,0.3
			c0,0.1,0,0.2,0,0.3c0,0.2,0.1,0.5,0.2,0.7c0.1,0.2,0.3,0.4,0.4,0.7l1.5,1.7c0.1,0.1,0.2,0.3,0.4,0.5s0.3,0.4,0.4,0.6
			c0.1,0.2,0.2,0.5,0.3,0.7c0.1,0.3,0.1,0.6,0.1,0.8c0,0.4-0.1,0.7-0.2,1c-0.1,0.3-0.3,0.5-0.5,0.7c-0.2,0.2-0.5,0.4-0.8,0.5
			c-0.3,0.1-0.7,0.2-1.1,0.2c-0.3,0-0.7,0-1-0.1c-0.3-0.1-0.6-0.2-0.8-0.4c-0.2-0.2-0.4-0.4-0.5-0.7
			C50.6,107.2,50.6,106.9,50.6,106.5z"/>
	</g>
	<g>
		<path fill="#FFFFFF" d="M59.6,108.7c-0.2,0-0.4,0-0.7-0.1s-0.4-0.1-0.6-0.2s-0.4-0.3-0.6-0.5c-0.2-0.2-0.3-0.5-0.5-0.8
			c-0.1-0.3-0.2-0.7-0.3-1.2c-0.1-0.5-0.1-1.1-0.1-1.7v-1.6c0-0.7,0-1.2,0.1-1.7s0.2-0.9,0.3-1.2c0.1-0.3,0.3-0.6,0.5-0.8
			c0.2-0.2,0.4-0.3,0.6-0.4c0.2-0.1,0.4-0.2,0.6-0.2s0.4,0,0.6,0c0.2,0,0.4,0,0.6,0c0.2,0,0.4,0.1,0.6,0.2c0.2,0.1,0.4,0.2,0.6,0.4
			c0.2,0.2,0.3,0.4,0.5,0.8c0.1,0.3,0.2,0.7,0.3,1.2c0.1,0.5,0.1,1,0.1,1.7v1.6c0,0.7,0,1.2-0.1,1.7s-0.2,0.9-0.3,1.2
			c-0.1,0.3-0.3,0.6-0.5,0.8s-0.4,0.4-0.6,0.5c-0.2,0.1-0.4,0.2-0.6,0.2C60,108.7,59.8,108.7,59.6,108.7z M59.6,107.3
			c0.2,0,0.3,0,0.4-0.1c0.1-0.1,0.2-0.2,0.3-0.4c0.1-0.2,0.1-0.5,0.2-0.8s0-0.7,0-1.2v-2.5c0-0.5,0-0.9,0-1.2s-0.1-0.6-0.2-0.8
			c-0.1-0.2-0.2-0.3-0.3-0.4c-0.1-0.1-0.3-0.1-0.4-0.1c-0.2,0-0.3,0-0.4,0.1c-0.1,0.1-0.2,0.2-0.3,0.4c-0.1,0.2-0.1,0.5-0.2,0.8
			c0,0.3-0.1,0.7-0.1,1.2v2.5c0,0.5,0,0.9,0.1,1.2c0,0.3,0.1,0.6,0.2,0.8c0.1,0.2,0.2,0.3,0.3,0.4C59.3,107.2,59.4,107.3,59.6,107.3
			z"/>
	</g>
	<g>
		<path fill="#FFFFFF" d="M64,95.2h1.9v13.4H64V95.2z"/>
	</g>
	<g>
		<path fill="#FFFFFF" d="M67.9,98.5h1.9v7.6c0,0.4,0.1,0.8,0.2,0.9c0.1,0.2,0.3,0.3,0.6,0.3c0.2,0,0.4-0.1,0.5-0.2
			c0.2-0.1,0.3-0.2,0.5-0.4v-8.2h1.9v10.1H72l-0.2-1.1h0c-0.1,0.2-0.3,0.4-0.5,0.6c-0.2,0.2-0.3,0.3-0.5,0.4
			c-0.2,0.1-0.4,0.2-0.5,0.2c-0.2,0-0.4,0.1-0.6,0.1c-0.6,0-1-0.2-1.4-0.6c-0.3-0.4-0.5-1-0.5-1.9V98.5z"/>
	</g>
	<g>
		<path fill="#FFFFFF" d="M75.6,99.8h-0.8v-1.3h0.9l0.4-2.6h1.3v2.6H79v1.3h-1.6v6.4c0,0.2,0,0.4,0.1,0.5c0,0.1,0.1,0.2,0.2,0.3
			s0.2,0.1,0.3,0.2c0.1,0,0.2,0,0.3,0c0.2,0,0.3,0,0.5-0.1s0.3-0.1,0.4-0.2v1c-0.1,0.1-0.2,0.2-0.3,0.3s-0.3,0.2-0.4,0.2
			c-0.1,0.1-0.3,0.1-0.4,0.1s-0.3,0-0.4,0c-0.3,0-0.5,0-0.7-0.1s-0.5-0.2-0.6-0.4c-0.2-0.2-0.3-0.5-0.4-0.8
			c-0.1-0.3-0.2-0.8-0.2-1.3V99.8z"/>
	</g>
	<g>
		<path fill="#FFFFFF" d="M81.3,97c-0.3,0-0.6-0.1-0.8-0.3c-0.2-0.2-0.3-0.5-0.3-0.9c0-0.2,0-0.4,0.1-0.6s0.1-0.3,0.2-0.4
			c0.1-0.1,0.2-0.2,0.3-0.2s0.3-0.1,0.5-0.1c0.4,0,0.6,0.1,0.8,0.3c0.2,0.2,0.3,0.5,0.3,0.9c0,0.4-0.1,0.7-0.3,0.9S81.7,97,81.3,97z
			 M80.3,98.5h1.9v10.1h-1.9V98.5z"/>
	</g>
	<g>
		<path fill="#FFFFFF" d="M86.7,108.7c-0.2,0-0.4,0-0.7-0.1s-0.4-0.1-0.6-0.2c-0.2-0.1-0.4-0.3-0.6-0.5c-0.2-0.2-0.3-0.5-0.5-0.8
			s-0.2-0.7-0.3-1.2c-0.1-0.5-0.1-1.1-0.1-1.7v-1.6c0-0.7,0-1.2,0.1-1.7c0.1-0.5,0.2-0.9,0.3-1.2s0.3-0.6,0.5-0.8
			c0.2-0.2,0.4-0.3,0.6-0.4c0.2-0.1,0.4-0.2,0.6-0.2c0.2,0,0.4,0,0.6,0c0.2,0,0.4,0,0.6,0s0.4,0.1,0.6,0.2c0.2,0.1,0.4,0.2,0.6,0.4
			c0.2,0.2,0.3,0.4,0.5,0.8s0.2,0.7,0.3,1.2c0.1,0.5,0.1,1,0.1,1.7v1.6c0,0.7,0,1.2-0.1,1.7c-0.1,0.5-0.2,0.9-0.3,1.2
			c-0.1,0.3-0.3,0.6-0.5,0.8c-0.2,0.2-0.4,0.4-0.6,0.5c-0.2,0.1-0.4,0.2-0.6,0.2C87.1,108.7,86.9,108.7,86.7,108.7z M86.7,107.3
			c0.2,0,0.3,0,0.4-0.1s0.2-0.2,0.3-0.4c0.1-0.2,0.1-0.5,0.2-0.8s0-0.7,0-1.2v-2.5c0-0.5,0-0.9,0-1.2s-0.1-0.6-0.2-0.8
			c-0.1-0.2-0.2-0.3-0.3-0.4c-0.1-0.1-0.3-0.1-0.4-0.1c-0.2,0-0.3,0-0.4,0.1c-0.1,0.1-0.2,0.2-0.3,0.4c-0.1,0.2-0.1,0.5-0.2,0.8
			c0,0.3-0.1,0.7-0.1,1.2v2.5c0,0.5,0,0.9,0.1,1.2c0,0.3,0.1,0.6,0.2,0.8c0.1,0.2,0.2,0.3,0.3,0.4C86.4,107.2,86.5,107.3,86.7,107.3
			z"/>
	</g>
	<g>
		<path fill="#FFFFFF" d="M91.1,98.5h1.4l0.2,1.1v0c0.1-0.2,0.3-0.4,0.5-0.6c0.2-0.2,0.3-0.3,0.5-0.4c0.2-0.1,0.4-0.2,0.6-0.2
			c0.2,0,0.4-0.1,0.6-0.1c0.6,0,1,0.2,1.4,0.6s0.5,1,0.5,1.9v7.7h-1.9v-7.7c0-0.4-0.1-0.8-0.2-0.9c-0.1-0.2-0.3-0.3-0.6-0.3
			c-0.2,0-0.4,0.1-0.6,0.2c-0.2,0.1-0.3,0.3-0.5,0.5v8.2h-1.9V98.5z"/>
	</g>
	<g>
		<path fill="#FFFFFF" d="M98.2,106.5c0-0.2,0-0.4,0.1-0.6c0-0.2,0.1-0.4,0.1-0.5h1.3c0,0.4,0,0.7,0.1,0.9c0,0.2,0.1,0.4,0.2,0.6
			s0.2,0.3,0.3,0.3s0.3,0.1,0.5,0.1c0.3,0,0.5-0.1,0.6-0.2c0.1-0.2,0.2-0.3,0.2-0.5c0-0.1,0-0.2,0-0.3s-0.1-0.2-0.1-0.3
			c-0.1-0.1-0.1-0.2-0.2-0.3c-0.1-0.1-0.2-0.2-0.3-0.3l-1.4-1.6c-0.2-0.2-0.3-0.4-0.5-0.7c-0.2-0.2-0.3-0.5-0.4-0.7
			c-0.1-0.2-0.2-0.5-0.3-0.8c-0.1-0.3-0.1-0.5-0.1-0.8c0-0.4,0.1-0.7,0.2-1s0.3-0.5,0.5-0.7c0.2-0.2,0.5-0.3,0.8-0.4
			s0.6-0.1,0.9-0.1c0.4,0,0.7,0,1,0.1c0.3,0.1,0.5,0.2,0.8,0.4c0.2,0.2,0.4,0.4,0.5,0.7c0.1,0.3,0.2,0.6,0.2,0.9
			c0,0.2,0,0.5-0.1,0.7c0,0.2-0.1,0.4-0.1,0.6h-1.3c0-0.3,0-0.6,0-0.9c0-0.2-0.1-0.5-0.1-0.6c-0.1-0.2-0.2-0.3-0.3-0.4
			c-0.1-0.1-0.3-0.1-0.5-0.1c-0.2,0-0.3,0-0.4,0.1c-0.1,0.1-0.2,0.1-0.3,0.2s-0.1,0.2-0.1,0.3c0,0.1,0,0.2,0,0.3
			c0,0.2,0.1,0.5,0.2,0.7c0.1,0.2,0.3,0.4,0.4,0.7l1.5,1.7c0.1,0.1,0.2,0.3,0.4,0.5s0.3,0.4,0.4,0.6c0.1,0.2,0.2,0.5,0.3,0.7
			c0.1,0.3,0.1,0.6,0.1,0.8c0,0.4-0.1,0.7-0.2,1c-0.1,0.3-0.3,0.5-0.5,0.7c-0.2,0.2-0.5,0.4-0.8,0.5s-0.7,0.2-1.1,0.2
			c-0.3,0-0.7,0-1-0.1s-0.6-0.2-0.8-0.4c-0.2-0.2-0.4-0.4-0.5-0.7C98.2,107.2,98.2,106.9,98.2,106.5z"/>
	</g>
	<g>
		<path fill="#FFFFFF" d="M108.1,99.8h-0.8v-1.3h0.9l0.4-2.6h1.3v2.6h1.6v1.3H110v6.4c0,0.2,0,0.4,0.1,0.5c0,0.1,0.1,0.2,0.2,0.3
			s0.2,0.1,0.3,0.2s0.2,0,0.3,0c0.2,0,0.3,0,0.5-0.1s0.3-0.1,0.4-0.2v1c-0.1,0.1-0.2,0.2-0.3,0.3c-0.1,0.1-0.3,0.2-0.4,0.2
			c-0.1,0.1-0.3,0.1-0.4,0.1s-0.3,0-0.4,0c-0.3,0-0.5,0-0.7-0.1c-0.2-0.1-0.5-0.2-0.6-0.4c-0.2-0.2-0.3-0.5-0.4-0.8
			c-0.1-0.3-0.2-0.8-0.2-1.3V99.8z"/>
	</g>
	<g>
		<path fill="#FFFFFF" d="M112.8,95.2h1.9v2.4l-0.1,1.7c0.1-0.2,0.3-0.3,0.4-0.5c0.2-0.1,0.3-0.2,0.5-0.3c0.2-0.1,0.3-0.1,0.5-0.2
			c0.2,0,0.3,0,0.5,0c0.6,0,1,0.2,1.4,0.6s0.5,1,0.5,1.9v7.7h-1.9v-7.7c0-0.4-0.1-0.8-0.2-0.9c-0.1-0.2-0.3-0.3-0.6-0.3
			c-0.2,0-0.4,0.1-0.6,0.2s-0.4,0.3-0.5,0.5v8.2h-1.9V95.2z"/>
	</g>
	<g>
		<path fill="#FFFFFF" d="M121.7,108.7c-0.3,0-0.6-0.1-0.8-0.2s-0.4-0.3-0.6-0.5c-0.2-0.2-0.3-0.5-0.4-0.8s-0.1-0.6-0.1-1
			c0-0.4,0.1-0.8,0.2-1.1c0.1-0.3,0.3-0.6,0.5-0.9c0.2-0.3,0.4-0.5,0.7-0.7c0.3-0.2,0.6-0.4,1-0.6c0.2-0.1,0.4-0.2,0.6-0.3
			c0.2-0.1,0.4-0.2,0.6-0.2v-1.3c0-0.2,0-0.4,0-0.5c0-0.2-0.1-0.3-0.1-0.4s-0.1-0.2-0.3-0.3c-0.1-0.1-0.3-0.1-0.5-0.1
			c-0.1,0-0.3,0-0.4,0.1c-0.1,0-0.2,0.1-0.3,0.2s-0.2,0.3-0.2,0.5c-0.1,0.2-0.1,0.4-0.1,0.7v0.4h-1.4c0-0.2-0.1-0.4-0.1-0.5
			s0-0.3,0-0.5c0-0.4,0.1-0.7,0.2-1c0.1-0.3,0.3-0.5,0.5-0.7s0.5-0.3,0.8-0.4c0.3-0.1,0.7-0.2,1.1-0.2c0.5,0,0.9,0.1,1.3,0.2
			c0.3,0.1,0.6,0.3,0.8,0.5c0.2,0.2,0.3,0.5,0.4,0.8c0.1,0.3,0.1,0.7,0.1,1.2v7.6h-1.4l-0.1-0.9c-0.2,0.3-0.5,0.5-0.8,0.7
			C122.6,108.6,122.2,108.7,121.7,108.7z M122.6,107.3c0.2,0,0.3,0,0.5-0.1c0.1-0.1,0.3-0.2,0.4-0.3v-3.2c-0.1,0-0.2,0.1-0.3,0.1
			c-0.1,0.1-0.3,0.1-0.4,0.2c-0.1,0.1-0.3,0.2-0.4,0.3s-0.2,0.3-0.3,0.4c-0.1,0.2-0.2,0.3-0.2,0.5c-0.1,0.2-0.1,0.4-0.1,0.7
			c0,0.4,0.1,0.7,0.2,0.9C122,107.1,122.2,107.3,122.6,107.3z"/>
	</g>
	<g>
		<path fill="#FFFFFF" d="M127.3,99.8h-0.8v-1.3h0.9l0.4-2.6h1.3v2.6h1.6v1.3h-1.6v6.4c0,0.2,0,0.4,0.1,0.5c0,0.1,0.1,0.2,0.2,0.3
			c0.1,0.1,0.2,0.1,0.3,0.2c0.1,0,0.2,0,0.3,0c0.2,0,0.3,0,0.5-0.1s0.3-0.1,0.4-0.2v1c-0.1,0.1-0.2,0.2-0.3,0.3s-0.3,0.2-0.4,0.2
			c-0.1,0.1-0.3,0.1-0.4,0.1s-0.3,0-0.4,0c-0.3,0-0.5,0-0.7-0.1c-0.2-0.1-0.5-0.2-0.6-0.4c-0.2-0.2-0.3-0.5-0.4-0.8
			c-0.1-0.3-0.2-0.8-0.2-1.3V99.8z"/>
	</g>
	<g>
		<path fill="#FFFFFF" d="M134.6,98.5h1.8l0.7,5.5l0.2,2h0.1l0.2-2l1-5.5h1.6l1,5.5l0.3,2h0.1l0.1-2l0.6-5.5h1.7l-1.6,10.1h-1.7
			l-1-5.6l-0.2-1.5h-0.1L139,103l-1,5.6h-1.8L134.6,98.5z"/>
	</g>
	<g>
		<path fill="#FFFFFF" d="M147.7,108.7c-0.2,0-0.4,0-0.7-0.1s-0.4-0.1-0.6-0.2s-0.4-0.3-0.6-0.5c-0.2-0.2-0.3-0.5-0.5-0.8
			c-0.1-0.3-0.2-0.7-0.3-1.2c-0.1-0.5-0.1-1.1-0.1-1.7v-1.6c0-0.7,0-1.2,0.1-1.7s0.2-0.9,0.3-1.2s0.3-0.6,0.5-0.8
			c0.2-0.2,0.4-0.3,0.6-0.4c0.2-0.1,0.4-0.2,0.6-0.2c0.2,0,0.4,0,0.6,0c0.2,0,0.4,0,0.6,0c0.2,0,0.4,0.1,0.6,0.2s0.4,0.2,0.6,0.4
			c0.2,0.2,0.3,0.4,0.5,0.8s0.2,0.7,0.3,1.2c0.1,0.5,0.1,1,0.1,1.7v1.6c0,0.7,0,1.2-0.1,1.7s-0.2,0.9-0.3,1.2s-0.3,0.6-0.5,0.8
			s-0.4,0.4-0.6,0.5c-0.2,0.1-0.4,0.2-0.6,0.2C148.1,108.7,147.9,108.7,147.7,108.7z M147.7,107.3c0.2,0,0.3,0,0.4-0.1
			s0.2-0.2,0.3-0.4c0.1-0.2,0.1-0.5,0.2-0.8s0-0.7,0-1.2v-2.5c0-0.5,0-0.9,0-1.2s-0.1-0.6-0.2-0.8s-0.2-0.3-0.3-0.4
			c-0.1-0.1-0.3-0.1-0.4-0.1c-0.2,0-0.3,0-0.4,0.1c-0.1,0.1-0.2,0.2-0.3,0.4s-0.1,0.5-0.2,0.8c0,0.3-0.1,0.7-0.1,1.2v2.5
			c0,0.5,0,0.9,0.1,1.2c0,0.3,0.1,0.6,0.2,0.8c0.1,0.2,0.2,0.3,0.3,0.4C147.4,107.2,147.5,107.3,147.7,107.3z"/>
	</g>
	<g>
		<path fill="#FFFFFF" d="M152.1,98.5h1.4l0.2,1c0.2-0.4,0.4-0.7,0.7-0.9s0.5-0.3,0.8-0.3c0.5,0,0.9,0.2,1.2,0.5
			c0.3,0.3,0.4,0.8,0.4,1.5c0,0.1,0,0.2,0,0.3c0,0.1,0,0.2-0.1,0.4c0,0.1,0,0.2-0.1,0.4c0,0.1-0.1,0.2-0.1,0.3h-1.3v-0.9
			c0-0.2,0-0.4,0-0.5c0-0.1-0.1-0.2-0.1-0.3c0-0.1-0.1-0.1-0.2-0.2s-0.1,0-0.2,0c-0.1,0-0.3,0-0.4,0.1c-0.1,0.1-0.2,0.2-0.3,0.4v8.3
			h-1.9V98.5z"/>
	</g>
	<g>
		<path fill="#FFFFFF" d="M157.9,95.2h1.9v7.7h0.1l2-4.4h1.8l-2.2,4.6l2.5,5.5H162l-2.1-5h-0.1v5h-1.9V95.2z"/>
	</g>
	<g>
		<path fill="#FFFFFF" d="M164.5,107.3c0-0.5,0.1-0.9,0.3-1.1s0.5-0.3,0.8-0.3c0.4,0,0.7,0.1,0.9,0.4c0.2,0.2,0.3,0.6,0.3,1.1
			c0,0.5-0.1,0.8-0.3,1s-0.5,0.4-0.9,0.4c-0.3,0-0.6-0.1-0.8-0.4C164.6,108.1,164.5,107.7,164.5,107.3z"/>
	</g>
</g>
<g>
	<g>
		<g>
			<path fill="#E97C4E" d="M122.5,17.7c0,0.5-4,0.9-4.7,1c-0.3,0.6-0.6,1.1-0.9,1.6c0.3,0.6,1.6,3.8,1.6,4.3c0,0.1,0,0.2-0.1,0.2
				c-0.4,0.2-3.7,2.2-3.9,2.2c-0.4,0-2.8-3.1-3.1-3.6c-0.3,0-0.6,0.1-0.9,0.1s-0.6,0-0.9-0.1c-0.3,0.5-2.7,3.6-3.1,3.6
				c-0.2,0-3.5-2-3.9-2.2c-0.1-0.1-0.1-0.2-0.1-0.2c0-0.5,1.3-3.7,1.6-4.3c-0.4-0.5-0.7-1-0.9-1.6c-0.6-0.1-4.7-0.5-4.7-1v-4.4
				c0-0.5,4-0.9,4.7-1c0.3-0.6,0.6-1.1,0.9-1.6c-0.3-0.6-1.6-3.8-1.6-4.3c0-0.1,0-0.2,0.1-0.2C103,6,106.3,4,106.5,4
				c0.4,0,2.8,3.1,3.1,3.6c0.3,0,0.6-0.1,0.9-0.1s0.6,0,0.9,0.1c0.9-1.2,1.8-2.4,2.9-3.5l0.2-0.1c0.2,0,3.5,2,3.9,2.2
				c0.1,0.1,0.1,0.2,0.1,0.2c0,0.6-1.3,3.7-1.6,4.3c0.4,0.5,0.7,1.1,0.9,1.6c0.6,0.1,4.7,0.5,4.7,1V17.7z M122.5,49.7
				c0,0.5-4,0.9-4.7,1c-0.3,0.6-0.6,1.1-0.9,1.6c0.3,0.6,1.6,3.8,1.6,4.3c0,0.1,0,0.2-0.1,0.2c-0.4,0.2-3.7,2.2-3.9,2.2
				c-0.4,0-2.8-3.1-3.1-3.6c-0.3,0-0.6,0.1-0.9,0.1s-0.6,0-0.9-0.1c-0.3,0.5-2.7,3.6-3.1,3.6c-0.2,0-3.5-2-3.9-2.2
				c-0.1-0.1-0.1-0.2-0.1-0.2c0-0.5,1.3-3.7,1.6-4.3c-0.4-0.5-0.7-1-0.9-1.6c-0.6-0.1-4.7-0.5-4.7-1v-4.4c0-0.5,4-0.9,4.7-1
				c0.3-0.6,0.6-1.1,0.9-1.6c-0.3-0.6-1.6-3.8-1.6-4.3c0-0.1,0-0.2,0.1-0.2c0.4-0.2,3.7-2.2,3.9-2.2c0.4,0,2.8,3.1,3.1,3.6
				c0.3,0,0.6-0.1,0.9-0.1s0.6,0,0.9,0.1c0.9-1.2,1.8-2.4,2.9-3.5l0.2-0.1c0.2,0,3.5,2,3.9,2.2c0.1,0.1,0.1,0.2,0.1,0.2
				c0,0.6-1.3,3.7-1.6,4.3c0.4,0.5,0.7,1.1,0.9,1.6c0.6,0.1,4.7,0.5,4.7,1V49.7z M110.5,11.5c-2.2,0-4,1.8-4,4c0,2.2,1.8,4,4,4
				c2.2,0,4-1.8,4-4S112.7,11.5,110.5,11.5z M110.5,43.5c-2.2,0-4,1.8-4,4c0,2.2,1.8,4,4,4c2.2,0,4-1.8,4-4
				C114.5,45.4,112.7,43.5,110.5,43.5z"/>
		</g>
	</g>
	<g>
		<path fill="#FFFFFF" d="M101.2,27.8L96.4,27c-0.3-0.9-0.7-1.7-1.1-2.6c0.9-1.2,1.8-2.3,2.7-3.6c0.1-0.2,0.2-0.4,0.2-0.6
			c0-0.9-3.7-4.3-4.5-5c-0.2-0.2-0.4-0.3-0.7-0.3c-0.2,0-0.4,0.1-0.6,0.2l-3.7,2.8c-0.8-0.4-1.5-0.7-2.3-1l-0.7-4.8
			c-0.1-0.4-0.5-0.8-0.9-0.8H79c-0.4,0-0.8,0.3-0.9,0.8c-0.4,1.5-0.6,3.3-0.7,4.8c-0.8,0.3-1.6,0.6-2.4,1l-3.6-2.8
			c-0.2-0.1-0.4-0.2-0.7-0.2c-0.9,0-4.4,3.8-5,4.6c-0.2,0.2-0.2,0.4-0.2,0.6s0.1,0.4,0.2,0.6c1,1.2,1.9,2.3,2.8,3.6
			c-0.4,0.8-0.8,1.6-1,2.4l-4.8,0.8c-0.4,0.1-0.7,0.5-0.7,0.9v5.8c0,0.4,0.3,0.8,0.8,0.9l4.8,0.8c0.3,0.9,0.7,1.7,1.1,2.6
			c-0.9,1.2-1.8,2.4-2.8,3.6c-0.1,0.2-0.2,0.4-0.2,0.6c0,0.9,3.7,4.3,4.5,5c0.2,0.2,0.4,0.3,0.7,0.3c0.2,0,0.5-0.1,0.6-0.2L75,45
			c0.8,0.4,1.5,0.7,2.3,1l0.7,4.8c0.1,0.4,0.5,0.8,0.9,0.8h5.8c0.4,0,0.8-0.3,0.9-0.8c0.4-1.5,0.6-3.3,0.7-4.8
			c0.8-0.3,1.6-0.6,2.4-1l3.6,2.8c0.2,0.1,0.4,0.2,0.7,0.2c0.9,0,4.4-3.8,5-4.7c0.2-0.2,0.2-0.4,0.2-0.6c0-0.3-0.1-0.4-0.2-0.6
			c-1-1.2-1.9-2.3-2.8-3.6c0.4-0.8,0.8-1.6,1-2.4l4.8-0.8c0.4-0.1,0.7-0.5,0.7-0.9v-5.8C101.9,28.3,101.6,27.9,101.2,27.8z
			 M81.9,39.6c-4.4,0-8-3.6-8-8s3.6-8,8-8c4.4,0,8,3.6,8,8S86.3,39.6,81.9,39.6z"/>
	</g>
	<g>
		<g>
			<path fill="#E97C4E" d="M51.4,40c0-0.8-0.1-1.5-0.2-2.1c-0.1-0.6-0.3-1-0.6-1.4c-0.3-0.3-0.6-0.6-1-0.7c-0.4-0.2-0.9-0.2-1.4-0.3
				l-1.1-0.1v-3.8l1.1-0.1c0.5,0,1-0.1,1.4-0.3c0.4-0.2,0.7-0.4,1-0.7c0.3-0.3,0.5-0.8,0.6-1.3c0.1-0.6,0.2-1.2,0.2-2.1v-8.8
				c0-1.4,0.2-2.7,0.6-3.7c0.4-1,0.9-1.9,1.5-2.5c0.6-0.7,1.4-1.1,2.2-1.4c0.8-0.3,1.7-0.4,2.7-0.4c0.4,0,0.9,0,1.5,0.1
				c0.6,0.1,1.1,0.2,1.6,0.4v3.2h-0.8c-0.9,0-1.6,0-2.2,0.1c-0.6,0.1-1.1,0.3-1.4,0.5c-0.4,0.2-0.6,0.5-0.8,0.9
				c-0.2,0.4-0.2,0.8-0.2,1.4v8.4c0,1-0.1,2-0.2,2.8c-0.1,0.8-0.3,1.6-0.5,2.2s-0.6,1.2-1,1.7c-0.4,0.5-1,0.9-1.6,1.2v0.5
				c0.6,0.3,1.2,0.7,1.6,1.2c0.4,0.5,0.8,1,1,1.7c0.3,0.7,0.5,1.4,0.6,2.2c0.1,0.8,0.2,1.8,0.2,2.8v8.5c0,0.5,0.1,1,0.2,1.4
				c0.2,0.4,0.4,0.7,0.8,0.9s0.8,0.4,1.4,0.5s1.3,0.1,2.2,0.1h0.8v3.2c-0.5,0.2-1.1,0.3-1.6,0.4c-0.6,0.1-1.1,0.1-1.5,0.1
				c-1,0-1.8-0.1-2.7-0.4c-0.8-0.3-1.6-0.8-2.2-1.4c-0.6-0.6-1.1-1.5-1.5-2.5c-0.4-1-0.6-2.3-0.6-3.7V40z"/>
		</g>
		<g>
			<path fill="#E97C4E" d="M129.3,53.2c0.9,0,1.6,0,2.2-0.1s1.1-0.3,1.4-0.5c0.4-0.2,0.6-0.5,0.8-0.9c0.2-0.4,0.2-0.8,0.2-1.4v-8.5
				c0-1,0.1-1.9,0.2-2.8c0.1-0.8,0.3-1.6,0.6-2.2c0.3-0.6,0.6-1.2,1-1.7c0.4-0.5,1-0.9,1.6-1.2v-0.5c-0.7-0.3-1.2-0.7-1.6-1.2
				c-0.4-0.5-0.8-1-1-1.7s-0.4-1.4-0.5-2.2c-0.1-0.8-0.2-1.8-0.2-2.8v-8.4c0-0.5-0.1-1-0.2-1.4c-0.2-0.4-0.4-0.7-0.8-0.9
				c-0.4-0.2-0.8-0.4-1.4-0.5c-0.6-0.1-1.3-0.1-2.2-0.1h-0.8v-3.2c0.5-0.2,1.1-0.3,1.6-0.4s1-0.1,1.5-0.1c0.9,0,1.8,0.1,2.7,0.4
				c0.8,0.3,1.6,0.8,2.2,1.4c0.6,0.6,1.1,1.5,1.5,2.5c0.4,1,0.6,2.3,0.6,3.7v8.8c0,0.8,0.1,1.5,0.2,2.1c0.1,0.6,0.3,1,0.6,1.3
				c0.3,0.3,0.6,0.6,1,0.7c0.4,0.2,0.9,0.2,1.4,0.3l1.1,0.1v3.8l-1.1,0.1c-0.5,0-1,0.1-1.4,0.3c-0.4,0.2-0.7,0.4-1,0.7
				c-0.3,0.3-0.5,0.8-0.6,1.4c-0.1,0.6-0.2,1.3-0.2,2.1v8.8c0,1.5-0.2,2.7-0.6,3.7c-0.4,1-0.9,1.9-1.5,2.5c-0.6,0.7-1.4,1.1-2.2,1.4
				c-0.8,0.3-1.7,0.4-2.7,0.4c-0.5,0-1,0-1.5-0.1s-1.1-0.2-1.6-0.4v-3.2H129.3z"/>
		</g>
	</g>
</g>
</svg>
