<?xml version="1.0" encoding="utf-8"?>
<!-- Generator: Adobe Illustrator 17.1.0, SVG Export Plug-In . SVG Version: 6.00 Build 0)  -->
<!DOCTYPE svg PUBLIC "-//W3C//DTD SVG 1.1//EN" "http://www.w3.org/Graphics/SVG/1.1/DTD/svg11.dtd">
<svg version="1.1" id="Layer_1" xmlns="http://www.w3.org/2000/svg" xmlns:xlink="http://www.w3.org/1999/xlink" x="0px" y="0px"
	 viewBox="0 0 209 58.5" enable-background="new 0 0 209 58.5" xml:space="preserve">
<g>
	<g>
		<path fill="#E97C4E" d="M127.4,33.7c0-0.7-0.1-1.3-0.2-1.8s-0.3-0.8-0.5-1.1s-0.5-0.5-0.9-0.6s-0.7-0.2-1.2-0.2l-0.9-0.1v-3.1
			l0.9-0.1c0.4,0,0.8-0.1,1.2-0.2s0.6-0.3,0.9-0.6s0.4-0.7,0.5-1.1s0.2-1,0.2-1.7v-7.4c0-1.2,0.2-2.2,0.5-3.1s0.7-1.6,1.3-2.1
			s1.2-0.9,1.9-1.2s1.5-0.4,2.3-0.4c0.4,0,0.8,0,1.3,0.1s0.9,0.2,1.4,0.3V12h-0.7c-0.7,0-1.3,0-1.8,0.1s-0.9,0.2-1.2,0.4
			s-0.5,0.4-0.7,0.7s-0.2,0.7-0.2,1.2v7c0,0.9,0,1.6-0.1,2.3s-0.2,1.3-0.5,1.9s-0.5,1-0.9,1.4s-0.8,0.7-1.4,1v0.5
			c0.5,0.2,1,0.6,1.4,1s0.7,0.9,0.9,1.4s0.4,1.2,0.5,1.9s0.1,1.5,0.1,2.3v7.1c0,0.5,0.1,0.8,0.2,1.2s0.3,0.6,0.7,0.8
			s0.7,0.3,1.2,0.4s1.1,0.1,1.8,0.1h0.7v2.7c-0.5,0.2-0.9,0.3-1.4,0.4s-0.9,0.1-1.3,0.1c-0.8,0-1.5-0.1-2.3-0.4s-1.3-0.6-1.8-1.2
			s-0.9-1.2-1.3-2.1s-0.5-1.9-0.5-3.1V33.7z"/>
	</g>
	<g>
		<path fill="#E97C4E" d="M191.1,44.7c0.7,0,1.3,0,1.8-0.1s0.9-0.2,1.2-0.4s0.5-0.4,0.7-0.8s0.2-0.7,0.2-1.2v-7.1
			c0-0.9,0-1.6,0.1-2.3s0.2-1.3,0.5-1.9s0.5-1,0.9-1.4s0.8-0.7,1.4-1v-0.5c-0.6-0.2-1-0.6-1.4-1s-0.7-0.9-0.9-1.4s-0.4-1.2-0.5-1.9
			s-0.1-1.5-0.1-2.3v-7c0-0.5-0.1-0.8-0.2-1.2s-0.3-0.6-0.7-0.7s-0.7-0.3-1.2-0.4s-1.1-0.1-1.8-0.1h-0.7V9.3
			c0.5-0.1,0.9-0.3,1.4-0.3s0.9-0.1,1.3-0.1c0.8,0,1.5,0.1,2.2,0.4s1.3,0.6,1.9,1.2s1,1.2,1.3,2.1s0.5,1.9,0.5,3.1v7.4
			c0,0.7,0.1,1.3,0.2,1.7s0.3,0.8,0.5,1.1s0.5,0.5,0.9,0.6s0.7,0.2,1.2,0.2l0.9,0.1v3.1l-0.9,0.1c-0.4,0-0.8,0.1-1.2,0.2
			s-0.6,0.3-0.9,0.6s-0.4,0.7-0.5,1.1s-0.2,1.1-0.2,1.8v7.4c0,1.2-0.2,2.3-0.5,3.1s-0.7,1.6-1.3,2.1s-1.1,0.9-1.9,1.2
			s-1.5,0.4-2.2,0.4c-0.4,0-0.8,0-1.3-0.1s-0.9-0.2-1.4-0.4v-2.7H191.1z"/>
	</g>
</g>
<g>
	<g>
		<path fill="#FFFFFF" d="M9.4,18.4H8.2v-1.9h1.4l0.5-3.8h1.9v3.8h2.4v1.9h-2.4v9.4c0,0.3,0,0.6,0.1,0.8s0.1,0.3,0.3,0.5
			c0.1,0.1,0.2,0.2,0.4,0.2s0.3,0.1,0.4,0.1c0.3,0,0.5,0,0.7-0.1s0.4-0.2,0.6-0.3v1.5c-0.2,0.2-0.3,0.3-0.5,0.5
			c-0.2,0.1-0.4,0.2-0.6,0.3s-0.4,0.1-0.6,0.2c-0.2,0-0.4,0-0.6,0c-0.4,0-0.7,0-1.1-0.1c-0.3-0.1-0.7-0.3-0.9-0.6
			C10,30.4,9.8,30,9.6,29.5s-0.2-1.1-0.2-1.9V18.4z"/>
		<path fill="#FFFFFF" d="M12.3,31.6c-0.4,0-0.8-0.1-1.2-0.2c-0.4-0.1-0.7-0.3-1-0.6c-0.3-0.3-0.5-0.7-0.7-1.3
			c-0.2-0.5-0.3-1.2-0.3-2v-8.9H8v-2.4h1.4l0.5-3.8h2.4v3.8h2.4v2.4h-2.4v9.1c0,0.3,0,0.5,0.1,0.7c0,0.2,0.1,0.3,0.2,0.4
			c0.1,0.1,0.2,0.1,0.3,0.2c0.3,0.1,0.7,0,1,0c0.2-0.1,0.4-0.1,0.5-0.2l0.4-0.2v2l-0.1,0.1c-0.2,0.2-0.4,0.4-0.6,0.5
			c-0.2,0.1-0.4,0.2-0.6,0.3c-0.2,0.1-0.4,0.1-0.6,0.2C12.7,31.6,12.5,31.6,12.3,31.6z M8.5,18.2h1.1v9.4c0,0.8,0.1,1.4,0.2,1.9
			c0.1,0.5,0.3,0.8,0.6,1.1c0.2,0.3,0.5,0.4,0.8,0.5c0.5,0.1,1,0.2,1.6,0.1c0.2,0,0.4-0.1,0.5-0.1c0.2-0.1,0.3-0.2,0.5-0.3
			c0.1-0.1,0.3-0.2,0.4-0.4v-1c-0.1,0-0.2,0.1-0.3,0.1c-0.4,0.1-0.9,0.2-1.3,0c-0.2,0-0.4-0.1-0.5-0.3c-0.1-0.1-0.2-0.3-0.3-0.6
			c-0.1-0.2-0.1-0.5-0.1-0.8v-9.6h2.4v-1.4h-2.4v-3.8h-1.5l-0.5,3.8H8.5V18.2z"/>
	</g>
	<g>
		<path fill="#FFFFFF" d="M16.3,11.8H19v3.5l-0.1,2.5c0.2-0.3,0.4-0.5,0.6-0.7c0.2-0.2,0.5-0.3,0.7-0.4c0.2-0.1,0.5-0.2,0.7-0.2
			s0.5-0.1,0.8-0.1c0.9,0,1.5,0.3,2,0.9c0.5,0.6,0.7,1.5,0.7,2.7v11.3h-2.7V20c0-0.6-0.1-1.1-0.3-1.4s-0.5-0.4-0.9-0.4
			c-0.3,0-0.5,0.1-0.8,0.3S19.2,19,19,19.3v11.9h-2.7V11.8z"/>
		<path fill="#FFFFFF" d="M24.7,31.5h-3.2V20c0-0.7-0.1-1.1-0.2-1.2c-0.2-0.2-0.4-0.3-0.7-0.3c-0.2,0-0.4,0.1-0.7,0.2
			c-0.2,0.1-0.4,0.4-0.6,0.6v12.1H16V11.5h3.2v3.7L19.2,17c0.1-0.1,0.1-0.1,0.2-0.2c0.2-0.2,0.5-0.4,0.8-0.5
			c0.3-0.1,0.5-0.2,0.8-0.3c0.3,0,0.5-0.1,0.8-0.1c0.9,0,1.7,0.3,2.2,1c0.5,0.6,0.8,1.6,0.8,2.9V31.5z M22,31h2.2v-11
			c0-1.1-0.2-2-0.6-2.6c-0.4-0.5-1-0.8-1.8-0.8c-0.2,0-0.5,0-0.7,0.1c-0.2,0-0.5,0.1-0.7,0.2c-0.2,0.1-0.5,0.2-0.7,0.4
			c-0.2,0.2-0.4,0.4-0.6,0.6l-0.5,0.7l0.2-3.4l0-3.2h-2.2V31h2.2V19.2l0-0.1c0.2-0.3,0.5-0.6,0.8-0.8c0.3-0.2,0.6-0.3,1-0.3
			c0.5,0,0.8,0.2,1.1,0.5c0.2,0.3,0.4,0.8,0.4,1.5V31z"/>
	</g>
	<g>
		<path fill="#FFFFFF" d="M28.7,14.4c-0.5,0-0.9-0.1-1.2-0.4c-0.3-0.3-0.4-0.7-0.4-1.3c0-0.3,0-0.6,0.1-0.8s0.2-0.4,0.3-0.5
			c0.1-0.1,0.3-0.2,0.5-0.3c0.2-0.1,0.4-0.1,0.7-0.1c0.5,0,0.9,0.1,1.2,0.4s0.4,0.7,0.4,1.3c0,0.6-0.1,1-0.4,1.3
			C29.6,14.2,29.2,14.4,28.7,14.4z M27.3,16.5H30v14.7h-2.7V16.5z"/>
		<path fill="#FFFFFF" d="M30.2,31.5H27V16.2h3.2V31.5z M27.5,31h2.2V16.7h-2.2V31z M28.7,14.6c-0.6,0-1-0.2-1.4-0.5
			c-0.3-0.3-0.5-0.8-0.5-1.5c0-0.4,0-0.6,0.1-0.9c0.1-0.3,0.2-0.5,0.4-0.6c0.2-0.2,0.4-0.3,0.6-0.3c0.2-0.1,0.5-0.1,0.8-0.1
			c0.6,0,1.1,0.2,1.4,0.5c0.3,0.3,0.5,0.8,0.5,1.5c0,0.6-0.2,1.1-0.5,1.5C29.7,14.4,29.3,14.6,28.7,14.6z M28.7,11.2
			c-0.2,0-0.4,0-0.6,0.1c-0.2,0-0.3,0.1-0.4,0.2c-0.1,0.1-0.2,0.2-0.3,0.4c-0.1,0.2-0.1,0.4-0.1,0.7c0,0.5,0.1,0.9,0.4,1.1
			c0.2,0.3,0.6,0.4,1,0.4c0.5,0,0.8-0.1,1-0.4c0.2-0.3,0.4-0.6,0.4-1.1c0-0.5-0.1-0.9-0.3-1.1C29.5,11.3,29.1,11.2,28.7,11.2z"/>
	</g>
	<g>
		<path fill="#FFFFFF" d="M32.8,16.5h2.1l0.2,1.6v0c0.2-0.3,0.4-0.6,0.7-0.8s0.5-0.4,0.8-0.5c0.3-0.1,0.5-0.2,0.8-0.3
			s0.5-0.1,0.8-0.1c0.9,0,1.5,0.3,2,0.9c0.5,0.6,0.7,1.5,0.7,2.7v11.3h-2.7V20c0-0.6-0.1-1.1-0.3-1.4s-0.5-0.4-0.9-0.4
			c-0.3,0-0.5,0.1-0.8,0.3s-0.5,0.4-0.7,0.7v11.9h-2.7V16.5z"/>
		<path fill="#FFFFFF" d="M41.1,31.5h-3.2V20c0-0.7-0.1-1.1-0.2-1.2c-0.3-0.3-0.8-0.4-1.3-0.1c-0.2,0.1-0.4,0.4-0.6,0.6v12.1h-3.2
			V16.2h2.5l0.2,1.2c0.1-0.1,0.2-0.3,0.4-0.4c0.3-0.2,0.5-0.4,0.8-0.6c0.3-0.1,0.6-0.3,0.9-0.3c0.3-0.1,0.6-0.1,0.9-0.1
			c0.9,0,1.7,0.3,2.2,1c0.5,0.6,0.8,1.6,0.8,2.9V31.5z M38.4,31h2.2v-11c0-1.1-0.2-2-0.6-2.6c-0.4-0.5-1-0.8-1.8-0.8
			c-0.3,0-0.5,0-0.8,0.1c-0.3,0.1-0.5,0.1-0.7,0.3c-0.2,0.1-0.5,0.3-0.7,0.5s-0.4,0.5-0.6,0.8l-0.5,0.7v-0.9l-0.2-1.3H33V31h2.2
			V19.2l0-0.1c0.2-0.3,0.5-0.6,0.8-0.8c0.3-0.2,0.6-0.3,0.9-0.3c0.5,0,0.8,0.2,1.1,0.5c0.2,0.3,0.4,0.8,0.4,1.5V31z"/>
	</g>
	<g>
		<path fill="#FFFFFF" d="M43.7,11.8h2.7V23h0.1l3-6.5h2.6l-3.3,6.7l3.6,8h-2.8l-3.1-7.3h-0.1v7.3h-2.7V11.8z"/>
		<path fill="#FFFFFF" d="M52.8,31.5h-3.3l-2.8-6.5v6.5h-3.2V11.5h3.2V22l2.6-5.8h3.2l-3.4,7L52.8,31.5z M49.8,31H52l-3.5-7.7
			l3.1-6.5h-2l-3,6.5h-0.5V12H44V31h2.2v-7.3h0.5L49.8,31z"/>
	</g>
	<g>
		<path fill="#FFFFFF" d="M53.4,29.3c0-0.8,0.2-1.3,0.4-1.6c0.3-0.3,0.7-0.5,1.2-0.5c0.5,0,0.9,0.2,1.2,0.5c0.3,0.3,0.4,0.9,0.4,1.6
			c0,0.7-0.1,1.2-0.4,1.5c-0.3,0.4-0.7,0.5-1.2,0.5c-0.5,0-0.9-0.2-1.2-0.5C53.5,30.5,53.4,30,53.4,29.3z"/>
		<path fill="#FFFFFF" d="M55,31.6c-0.6,0-1-0.2-1.4-0.6c-0.3-0.4-0.5-1-0.5-1.7c0-0.8,0.2-1.4,0.5-1.8c0.3-0.4,0.8-0.6,1.4-0.6
			c0.6,0,1.1,0.2,1.4,0.6c0.3,0.4,0.5,1,0.5,1.8c0,0.7-0.2,1.3-0.5,1.7C56.1,31.4,55.6,31.6,55,31.6z M55,27.4c-0.4,0-0.8,0.1-1,0.4
			c-0.3,0.3-0.4,0.8-0.4,1.5c0,0.6,0.1,1.1,0.4,1.4c0.3,0.3,0.6,0.4,1,0.4c0.5,0,0.8-0.1,1.1-0.4c0.3-0.3,0.4-0.8,0.4-1.4
			c0-0.6-0.1-1.1-0.4-1.4C55.8,27.6,55.5,27.4,55,27.4z"/>
	</g>
	<g>
		<path fill="#E97C4E" d="M61.3,32.2c0,0.6,0.1,1.1,0.4,1.3s0.6,0.4,1.1,0.4c0.2,0,0.4,0,0.6-0.1c0.2-0.1,0.3-0.2,0.5-0.3
			c0.1-0.2,0.3-0.4,0.3-0.7c0.1-0.3,0.1-0.7,0.1-1.1v-2.3c-0.2,0.3-0.6,0.6-0.9,0.8c-0.4,0.2-0.9,0.3-1.4,0.3c-0.2,0-0.4,0-0.6,0
			s-0.4-0.1-0.7-0.2c-0.2-0.1-0.5-0.3-0.7-0.5c-0.2-0.2-0.4-0.5-0.6-0.9c-0.2-0.4-0.3-0.9-0.4-1.5c-0.1-0.6-0.2-1.3-0.2-2.1v-3.9
			c0-0.8,0.1-1.5,0.2-2c0.1-0.6,0.3-1,0.4-1.4c0.2-0.4,0.4-0.7,0.6-0.9c0.2-0.2,0.5-0.4,0.7-0.5c0.2-0.1,0.5-0.2,0.7-0.2
			c0.2,0,0.4,0,0.6,0c0.4,0,0.7,0,0.9,0.1c0.3,0.1,0.5,0.2,0.7,0.4s0.4,0.3,0.5,0.5s0.3,0.4,0.4,0.6l0.2-1.5h2.1v14.1
			c0,0.8-0.1,1.6-0.2,2.2c-0.2,0.7-0.4,1.2-0.7,1.7c-0.3,0.5-0.8,0.8-1.3,1.1c-0.5,0.2-1.1,0.4-1.9,0.4c-0.5,0-0.9,0-1.4-0.1
			c-0.4-0.1-0.8-0.2-1.1-0.5c-0.3-0.2-0.6-0.5-0.8-0.9c-0.2-0.4-0.3-0.9-0.3-1.4c0-0.1,0-0.2,0-0.4s0.1-0.3,0.1-0.5H61.3z
			 M62.9,28.5c0.2,0,0.3,0,0.5-0.1c0.1-0.1,0.3-0.1,0.4-0.2s0.2-0.2,0.3-0.3c0.1-0.1,0.2-0.3,0.2-0.4v-8.1c-0.1-0.3-0.3-0.6-0.5-0.8
			c-0.2-0.2-0.5-0.3-0.8-0.3c-0.2,0-0.4,0-0.5,0.1c-0.2,0.1-0.3,0.2-0.4,0.4c-0.1,0.2-0.2,0.5-0.3,0.8c-0.1,0.3-0.1,0.8-0.1,1.3v4.8
			c0,0.5,0,1,0.1,1.3c0.1,0.3,0.2,0.6,0.3,0.8c0.1,0.2,0.3,0.3,0.4,0.4C62.5,28.5,62.7,28.5,62.9,28.5z"/>
	</g>
	<g>
		<path fill="#E97C4E" d="M73.3,31.4c-0.6,0-1.2-0.1-1.7-0.4c-0.5-0.2-0.9-0.6-1.2-1.1s-0.6-1.1-0.8-1.9c-0.2-0.8-0.3-1.7-0.3-2.8
			v-2.8c0-0.9,0.1-1.7,0.2-2.4c0.1-0.7,0.3-1.2,0.5-1.7s0.5-0.8,0.8-1.1s0.6-0.5,0.9-0.6c0.3-0.1,0.6-0.2,0.9-0.3
			c0.3,0,0.6-0.1,0.9-0.1c0.5,0,1,0.1,1.4,0.2c0.4,0.1,0.8,0.4,1.2,0.7c0.3,0.4,0.6,0.8,0.8,1.4c0.2,0.6,0.3,1.3,0.3,2.2
			c0,0.3,0,0.6,0,0.9c0,0.3,0,0.6-0.1,0.9c0,0.3-0.1,0.6-0.1,0.9c0,0.3-0.1,0.5-0.1,0.8h-4.9v1.5c0,0.6,0,1.2,0.1,1.6
			c0,0.4,0.1,0.8,0.3,1.1c0.1,0.3,0.3,0.5,0.5,0.6s0.5,0.2,0.8,0.2c0.2,0,0.3,0,0.5-0.1c0.2-0.1,0.3-0.2,0.4-0.3
			c0.1-0.2,0.2-0.4,0.3-0.6c0.1-0.3,0.1-0.6,0.1-1v-0.5h2.3v0.6c0,1.4-0.3,2.4-1,3.1C75.5,31.1,74.6,31.4,73.3,31.4z M74.8,22.5
			c0-0.1,0-0.2,0-0.3c0-0.1,0-0.3,0-0.4c0-0.1,0-0.3,0-0.4c0-0.1,0-0.3,0-0.4c0-1-0.1-1.7-0.3-2.1c-0.2-0.4-0.6-0.6-1-0.6
			c-0.2,0-0.4,0.1-0.6,0.2c-0.2,0.1-0.3,0.3-0.4,0.6c-0.1,0.3-0.2,0.6-0.3,1c-0.1,0.4-0.1,1-0.1,1.6v0.9H74.8z"/>
	</g>
	<g>
		<path fill="#E97C4E" d="M79.6,16.5h2.1l0.2,1.6v0c0.2-0.3,0.4-0.6,0.7-0.8s0.5-0.4,0.8-0.5c0.3-0.1,0.5-0.2,0.8-0.3
			s0.5-0.1,0.8-0.1c0.9,0,1.5,0.3,2,0.9c0.5,0.6,0.7,1.5,0.7,2.7v11.3H85V20c0-0.6-0.1-1.1-0.3-1.4s-0.5-0.4-0.9-0.4
			c-0.3,0-0.5,0.1-0.8,0.3s-0.5,0.4-0.7,0.7v11.9h-2.7V16.5z"/>
	</g>
	<g>
		<path fill="#E97C4E" d="M90.7,13h6.8v2.2h-4v5.5h3.1v2.2h-3.1V29h4.1v2.2h-6.9V13z"/>
	</g>
	<g>
		<path fill="#E97C4E" d="M99.4,16.5h2l0.2,1.5c0.3-0.6,0.6-1,1-1.3c0.4-0.3,0.8-0.4,1.2-0.4c0.8,0,1.4,0.2,1.7,0.7
			c0.4,0.5,0.6,1.2,0.6,2.1c0,0.1,0,0.3,0,0.4s0,0.3-0.1,0.5c0,0.2-0.1,0.4-0.1,0.5c0,0.2-0.1,0.3-0.1,0.5h-1.9v-1.4
			c0-0.3,0-0.5-0.1-0.7s-0.1-0.3-0.2-0.5c-0.1-0.1-0.1-0.2-0.2-0.2c-0.1,0-0.2-0.1-0.3-0.1c-0.2,0-0.4,0.1-0.6,0.2
			c-0.2,0.1-0.3,0.3-0.5,0.6v12.1h-2.7V16.5z"/>
	</g>
	<g>
		<path fill="#E97C4E" d="M109.2,14.4c-0.5,0-0.9-0.1-1.2-0.4c-0.3-0.3-0.4-0.7-0.4-1.3c0-0.3,0-0.6,0.1-0.8s0.2-0.4,0.3-0.5
			c0.1-0.1,0.3-0.2,0.5-0.3c0.2-0.1,0.4-0.1,0.7-0.1c0.5,0,0.9,0.1,1.2,0.4s0.4,0.7,0.4,1.3c0,0.6-0.1,1-0.4,1.3
			C110.2,14.2,109.8,14.4,109.2,14.4z M107.8,16.5h2.7v14.7h-2.7V16.5z"/>
	</g>
	<g>
		<path fill="#E97C4E" d="M116.8,31.4c-1.2,0-2.2-0.5-2.8-1.5s-1-2.6-1-4.7v-2.8c0-0.9,0.1-1.7,0.2-2.4s0.3-1.2,0.5-1.7
			s0.5-0.8,0.8-1.1c0.3-0.3,0.6-0.5,0.9-0.6c0.3-0.1,0.6-0.2,0.9-0.3c0.3,0,0.6-0.1,0.8-0.1c0.5,0,1,0.1,1.4,0.2s0.8,0.3,1.1,0.6
			c0.3,0.3,0.5,0.6,0.7,1c0.2,0.4,0.2,0.9,0.2,1.4c0,0.3,0,0.6,0,0.9c0,0.2-0.1,0.5-0.1,0.7h-2.2v-0.5c0-0.7-0.1-1.3-0.3-1.7
			c-0.2-0.4-0.5-0.6-0.9-0.6c-0.2,0-0.4,0.1-0.6,0.2c-0.2,0.1-0.3,0.3-0.4,0.5c-0.1,0.2-0.2,0.6-0.2,1s-0.1,0.9-0.1,1.6v4.2
			c0,0.6,0,1.2,0.1,1.6c0,0.4,0.1,0.8,0.2,1.1c0.1,0.3,0.3,0.5,0.4,0.6c0.2,0.1,0.4,0.2,0.7,0.2c0.1,0,0.3,0,0.4-0.1
			c0.1-0.1,0.2-0.2,0.3-0.3c0.1-0.2,0.2-0.4,0.2-0.6c0.1-0.3,0.1-0.6,0.1-1v-0.5h2.3v0.6c0,1.4-0.3,2.4-0.9,3.1
			C119,31.1,118,31.4,116.8,31.4z"/>
	</g>
</g>
<g>
	<g>
		<path fill="#FFFFFF" d="M10.2,36.9h1.4l0.6,4.4l0.1,1.6h0l0.2-1.6l0.8-4.4h1.2l0.8,4.4l0.2,1.6h0l0.1-1.6l0.5-4.4h1.4l-1.3,8.1
			h-1.4l-0.8-4.5l-0.2-1.2h0l-0.2,1.2l-0.8,4.5h-1.4L10.2,36.9z"/>
	</g>
	<g>
		<path fill="#FFFFFF" d="M20.5,45c-0.3,0-0.7-0.1-0.9-0.2s-0.5-0.3-0.7-0.6s-0.3-0.6-0.4-1.1s-0.1-0.9-0.1-1.5v-1.5
			c0-0.5,0-1,0.1-1.3s0.2-0.7,0.3-0.9s0.3-0.4,0.4-0.6s0.3-0.3,0.5-0.3s0.3-0.1,0.5-0.1s0.3,0,0.5,0c0.3,0,0.5,0,0.8,0.1
			s0.5,0.2,0.7,0.4s0.3,0.5,0.4,0.8s0.2,0.7,0.2,1.2c0,0.2,0,0.3,0,0.5s0,0.3,0,0.5s0,0.3-0.1,0.5s-0.1,0.3-0.1,0.4h-2.7V42
			c0,0.4,0,0.6,0,0.9s0.1,0.4,0.1,0.6s0.2,0.3,0.3,0.3s0.3,0.1,0.4,0.1c0.1,0,0.2,0,0.3-0.1s0.2-0.1,0.2-0.2s0.1-0.2,0.2-0.3
			s0.1-0.3,0.1-0.5v-0.3h1.2v0.3c0,0.8-0.2,1.3-0.5,1.7S21.2,45,20.5,45z M21.3,40.2c0,0,0-0.1,0-0.2s0-0.1,0-0.2s0-0.2,0-0.2
			s0-0.1,0-0.2c0-0.5-0.1-0.9-0.2-1.1s-0.3-0.4-0.6-0.4c-0.1,0-0.2,0-0.3,0.1s-0.2,0.2-0.2,0.3s-0.1,0.3-0.1,0.6s0,0.5,0,0.9v0.5
			H21.3z"/>
	</g>
	<g>
		<path fill="#FFFFFF" d="M24,34.3h1.5v2.2l0,1.1l0,0c0.1-0.1,0.1-0.2,0.2-0.3s0.2-0.2,0.3-0.2s0.2-0.1,0.4-0.2s0.3-0.1,0.4-0.1
			c0.1,0,0.2,0,0.3,0s0.2,0.1,0.4,0.1s0.2,0.2,0.4,0.3s0.2,0.3,0.3,0.5s0.2,0.5,0.2,0.8s0.1,0.7,0.1,1.2v2.4c0,0.5,0,0.8-0.1,1.2
			s-0.1,0.6-0.2,0.8s-0.2,0.4-0.3,0.5s-0.3,0.2-0.4,0.3S27.1,45,27,45s-0.2,0-0.3,0c-0.2,0-0.4,0-0.5-0.1s-0.3-0.1-0.4-0.2
			s-0.2-0.2-0.3-0.3s-0.2-0.2-0.2-0.3l-0.1,0.8H24V34.3z M25.4,43.3c0,0.1,0.1,0.1,0.1,0.2s0.1,0.1,0.2,0.2s0.1,0.1,0.2,0.1
			s0.2,0,0.3,0c0.1,0,0.2,0,0.3-0.1s0.2-0.1,0.2-0.2s0.1-0.3,0.2-0.4s0.1-0.4,0.1-0.7v-3.1c0-0.3,0-0.5-0.1-0.7s-0.1-0.3-0.2-0.4
			s-0.1-0.2-0.2-0.2s-0.2-0.1-0.3-0.1c-0.2,0-0.3,0.1-0.5,0.2s-0.2,0.2-0.3,0.4V43.3z"/>
	</g>
	<g>
		<path fill="#FFFFFF" d="M32,43.2c0-0.2,0-0.3,0-0.5s0.1-0.3,0.1-0.4h1c0,0.3,0,0.5,0,0.7s0.1,0.4,0.1,0.5s0.2,0.2,0.3,0.3
			s0.2,0.1,0.4,0.1c0.2,0,0.4-0.1,0.5-0.2s0.2-0.3,0.2-0.4c0-0.1,0-0.2,0-0.2s-0.1-0.2-0.1-0.2s-0.1-0.2-0.2-0.2s-0.1-0.2-0.2-0.3
			L33.1,41c-0.1-0.2-0.3-0.4-0.4-0.5s-0.2-0.4-0.3-0.6s-0.2-0.4-0.2-0.6S32,38.8,32,38.6c0-0.3,0.1-0.6,0.2-0.8s0.3-0.4,0.4-0.6
			s0.4-0.3,0.6-0.3s0.5-0.1,0.8-0.1c0.3,0,0.6,0,0.8,0.1s0.4,0.2,0.6,0.3s0.3,0.3,0.4,0.5s0.1,0.5,0.1,0.7c0,0.2,0,0.4,0,0.5
			s-0.1,0.3-0.1,0.5h-1c0-0.3,0-0.5,0-0.7s-0.1-0.4-0.1-0.5s-0.1-0.2-0.2-0.3s-0.2-0.1-0.4-0.1c-0.1,0-0.2,0-0.3,0.1
			s-0.2,0.1-0.2,0.2s-0.1,0.1-0.1,0.2s0,0.2,0,0.3c0,0.2,0,0.4,0.1,0.5s0.2,0.3,0.4,0.5L35,41c0.1,0.1,0.2,0.2,0.3,0.4
			s0.2,0.3,0.3,0.5s0.2,0.4,0.3,0.6s0.1,0.4,0.1,0.7c0,0.3,0,0.5-0.1,0.8s-0.2,0.4-0.4,0.6s-0.4,0.3-0.6,0.4S34.3,45,34,45
			c-0.3,0-0.5,0-0.8-0.1s-0.4-0.2-0.6-0.3s-0.3-0.3-0.4-0.5S32,43.6,32,43.2z"/>
	</g>
	<g>
		<path fill="#FFFFFF" d="M39.2,45c-0.2,0-0.3,0-0.5,0s-0.3-0.1-0.5-0.2s-0.3-0.2-0.5-0.4s-0.3-0.4-0.4-0.6s-0.2-0.6-0.3-1
			S37,42,37,41.5v-1.3c0-0.5,0-1,0.1-1.3s0.2-0.7,0.3-0.9s0.2-0.5,0.4-0.6S38,37,38.2,37s0.3-0.1,0.5-0.2s0.3,0,0.5,0
			c0.2,0,0.3,0,0.5,0s0.3,0.1,0.5,0.1s0.3,0.2,0.5,0.3s0.3,0.4,0.4,0.6s0.2,0.6,0.3,0.9s0.1,0.8,0.1,1.4v1.3c0,0.5,0,1-0.1,1.4
			s-0.2,0.7-0.3,1s-0.2,0.5-0.4,0.6s-0.3,0.3-0.5,0.4s-0.3,0.1-0.5,0.2S39.4,45,39.2,45z M39.2,43.9c0.1,0,0.2,0,0.3-0.1
			s0.2-0.2,0.2-0.3s0.1-0.4,0.1-0.6s0-0.6,0-1v-2c0-0.4,0-0.7,0-1s-0.1-0.5-0.1-0.6S39.7,38,39.6,38s-0.2-0.1-0.3-0.1
			c-0.1,0-0.3,0-0.4,0.1s-0.2,0.2-0.2,0.3s-0.1,0.4-0.1,0.6s0,0.6,0,1v2c0,0.4,0,0.7,0,1s0.1,0.5,0.1,0.6s0.1,0.3,0.2,0.3
			S39.1,43.9,39.2,43.9z"/>
	</g>
	<g>
		<path fill="#FFFFFF" d="M42.8,34.3h1.5v10.7h-1.5V34.3z"/>
	</g>
	<g>
		<path fill="#FFFFFF" d="M45.8,36.9h1.5v6.1c0,0.4,0.1,0.6,0.2,0.7s0.3,0.2,0.5,0.2c0.1,0,0.3,0,0.4-0.1s0.3-0.2,0.4-0.4v-6.5h1.5
			v8.1h-1.1L49,44.1h0c-0.1,0.2-0.2,0.3-0.4,0.5s-0.3,0.2-0.4,0.3s-0.3,0.1-0.4,0.2s-0.3,0-0.4,0c-0.5,0-0.8-0.2-1.1-0.5
			s-0.4-0.8-0.4-1.5V36.9z"/>
	</g>
	<g>
		<path fill="#FFFFFF" d="M52,37.9h-0.6v-1.1h0.8l0.3-2.1h1.1v2.1h1.3v1.1h-1.3V43c0,0.2,0,0.3,0,0.4s0.1,0.2,0.1,0.3
			s0.1,0.1,0.2,0.1s0.2,0,0.2,0c0.1,0,0.3,0,0.4-0.1s0.2-0.1,0.3-0.1v0.8c-0.1,0.1-0.2,0.2-0.3,0.3s-0.2,0.1-0.3,0.2S54,45,53.9,45
			s-0.2,0-0.3,0c-0.2,0-0.4,0-0.6-0.1s-0.4-0.2-0.5-0.3s-0.3-0.4-0.4-0.6S52,43.4,52,42.9V37.9z"/>
	</g>
	<g>
		<path fill="#FFFFFF" d="M56.5,35.7c-0.3,0-0.5-0.1-0.6-0.2s-0.2-0.4-0.2-0.7c0-0.2,0-0.3,0.1-0.4s0.1-0.2,0.2-0.3s0.2-0.1,0.3-0.2
			s0.2,0,0.4,0c0.3,0,0.5,0.1,0.7,0.2s0.2,0.4,0.2,0.7c0,0.3-0.1,0.5-0.2,0.7S56.8,35.7,56.5,35.7z M55.8,36.9h1.5v8.1h-1.5V36.9z"
			/>
	</g>
	<g>
		<path fill="#FFFFFF" d="M60.8,45c-0.2,0-0.3,0-0.5,0s-0.3-0.1-0.5-0.2s-0.3-0.2-0.5-0.4s-0.3-0.4-0.4-0.6s-0.2-0.6-0.3-1
			s-0.1-0.8-0.1-1.4v-1.3c0-0.5,0-1,0.1-1.3s0.2-0.7,0.3-0.9s0.2-0.5,0.4-0.6s0.3-0.3,0.5-0.3s0.3-0.1,0.5-0.2s0.3,0,0.5,0
			c0.2,0,0.3,0,0.5,0s0.3,0.1,0.5,0.1s0.3,0.2,0.5,0.3s0.3,0.4,0.4,0.6s0.2,0.6,0.3,0.9s0.1,0.8,0.1,1.4v1.3c0,0.5,0,1-0.1,1.4
			s-0.2,0.7-0.3,1s-0.2,0.5-0.4,0.6s-0.3,0.3-0.5,0.4s-0.3,0.1-0.5,0.2S61,45,60.8,45z M60.8,43.9c0.1,0,0.2,0,0.3-0.1
			s0.2-0.2,0.2-0.3s0.1-0.4,0.1-0.6s0-0.6,0-1v-2c0-0.4,0-0.7,0-1s-0.1-0.5-0.1-0.6S61.3,38,61.2,38s-0.2-0.1-0.3-0.1
			c-0.1,0-0.3,0-0.4,0.1s-0.2,0.2-0.2,0.3s-0.1,0.4-0.1,0.6s0,0.6,0,1v2c0,0.4,0,0.7,0,1s0.1,0.5,0.1,0.6s0.1,0.3,0.2,0.3
			S60.7,43.9,60.8,43.9z"/>
	</g>
	<g>
		<path fill="#FFFFFF" d="M64.4,36.9h1.1l0.1,0.9v0c0.1-0.2,0.2-0.3,0.4-0.5s0.3-0.2,0.4-0.3s0.3-0.1,0.4-0.2s0.3,0,0.4,0
			c0.5,0,0.8,0.2,1.1,0.5s0.4,0.8,0.4,1.5v6.2h-1.5v-6.1c0-0.4-0.1-0.6-0.2-0.7s-0.3-0.2-0.5-0.2c-0.1,0-0.3,0-0.4,0.1
			s-0.3,0.2-0.4,0.4v6.5h-1.5V36.9z"/>
	</g>
	<g>
		<path fill="#FFFFFF" d="M70,43.2c0-0.2,0-0.3,0-0.5s0.1-0.3,0.1-0.4h1c0,0.3,0,0.5,0,0.7s0.1,0.4,0.1,0.5s0.2,0.2,0.3,0.3
			s0.2,0.1,0.4,0.1c0.2,0,0.4-0.1,0.5-0.2s0.2-0.3,0.2-0.4c0-0.1,0-0.2,0-0.2s-0.1-0.2-0.1-0.2s-0.1-0.2-0.2-0.2s-0.1-0.2-0.2-0.3
			L71.1,41c-0.1-0.2-0.3-0.4-0.4-0.5s-0.2-0.4-0.3-0.6s-0.2-0.4-0.2-0.6S70,38.8,70,38.6c0-0.3,0.1-0.6,0.2-0.8s0.3-0.4,0.4-0.6
			s0.4-0.3,0.6-0.3s0.5-0.1,0.8-0.1c0.3,0,0.6,0,0.8,0.1s0.4,0.2,0.6,0.3s0.3,0.3,0.4,0.5s0.1,0.5,0.1,0.7c0,0.2,0,0.4,0,0.5
			s-0.1,0.3-0.1,0.5h-1c0-0.3,0-0.5,0-0.7s-0.1-0.4-0.1-0.5s-0.1-0.2-0.2-0.3s-0.2-0.1-0.4-0.1c-0.1,0-0.2,0-0.3,0.1
			s-0.2,0.1-0.2,0.2s-0.1,0.1-0.1,0.2s0,0.2,0,0.3c0,0.2,0,0.4,0.1,0.5s0.2,0.3,0.4,0.5L73,41c0.1,0.1,0.2,0.2,0.3,0.4
			s0.2,0.3,0.3,0.5s0.2,0.4,0.3,0.6s0.1,0.4,0.1,0.7c0,0.3,0,0.5-0.1,0.8s-0.2,0.4-0.4,0.6s-0.4,0.3-0.6,0.4S72.3,45,72,45
			c-0.3,0-0.5,0-0.8-0.1s-0.4-0.2-0.6-0.3s-0.3-0.3-0.4-0.5S70,43.6,70,43.2z"/>
	</g>
	<g>
		<path fill="#FFFFFF" d="M77.9,37.9h-0.6v-1.1h0.8l0.3-2.1h1.1v2.1h1.3v1.1h-1.3V43c0,0.2,0,0.3,0,0.4s0.1,0.2,0.1,0.3
			s0.1,0.1,0.2,0.1s0.2,0,0.2,0c0.1,0,0.3,0,0.4-0.1s0.2-0.1,0.3-0.1v0.8c-0.1,0.1-0.2,0.2-0.3,0.3s-0.2,0.1-0.3,0.2S80,45,79.8,45
			s-0.2,0-0.3,0c-0.2,0-0.4,0-0.6-0.1s-0.4-0.2-0.5-0.3s-0.3-0.4-0.4-0.6s-0.1-0.6-0.1-1.1V37.9z"/>
	</g>
	<g>
		<path fill="#FFFFFF" d="M81.7,34.3h1.5v1.9l-0.1,1.4c0.1-0.2,0.2-0.3,0.4-0.4s0.3-0.2,0.4-0.2s0.3-0.1,0.4-0.1s0.3,0,0.4,0
			c0.5,0,0.8,0.2,1.1,0.5s0.4,0.8,0.4,1.5v6.2h-1.5v-6.1c0-0.4-0.1-0.6-0.2-0.7s-0.3-0.2-0.5-0.2c-0.1,0-0.3,0-0.4,0.1
			s-0.3,0.2-0.4,0.4v6.5h-1.5V34.3z"/>
	</g>
	<g>
		<path fill="#FFFFFF" d="M88.8,45c-0.3,0-0.5,0-0.7-0.1s-0.4-0.2-0.5-0.4s-0.2-0.4-0.3-0.6s-0.1-0.5-0.1-0.8c0-0.3,0-0.6,0.1-0.9
			s0.2-0.5,0.4-0.7s0.4-0.4,0.6-0.6s0.5-0.3,0.8-0.5c0.1-0.1,0.3-0.1,0.5-0.2s0.4-0.1,0.5-0.2V39c0-0.2,0-0.3,0-0.4s0-0.3-0.1-0.4
			s-0.1-0.2-0.2-0.2s-0.2-0.1-0.4-0.1c-0.1,0-0.2,0-0.3,0.1S89,38,88.9,38.1s-0.1,0.2-0.2,0.4s-0.1,0.3-0.1,0.6v0.4h-1.1
			c0-0.2-0.1-0.3-0.1-0.4s0-0.3,0-0.4c0-0.3,0.1-0.6,0.2-0.8s0.2-0.4,0.4-0.6s0.4-0.3,0.7-0.4s0.5-0.1,0.8-0.1c0.4,0,0.7,0,1,0.1
			s0.5,0.2,0.6,0.4s0.3,0.4,0.3,0.7s0.1,0.6,0.1,0.9v6h-1.1l-0.1-0.7c-0.2,0.2-0.4,0.4-0.6,0.6S89.2,45,88.8,45z M89.5,43.9
			c0.1,0,0.2,0,0.4-0.1s0.2-0.1,0.3-0.2V41c-0.1,0-0.2,0.1-0.3,0.1s-0.2,0.1-0.3,0.2c-0.1,0.1-0.2,0.1-0.3,0.2s-0.2,0.2-0.3,0.3
			s-0.1,0.3-0.2,0.4s-0.1,0.3-0.1,0.5c0,0.3,0.1,0.6,0.2,0.7S89.2,43.9,89.5,43.9z"/>
	</g>
	<g>
		<path fill="#FFFFFF" d="M93.3,37.9h-0.6v-1.1h0.8l0.3-2.1h1.1v2.1h1.3v1.1h-1.3V43c0,0.2,0,0.3,0,0.4s0.1,0.2,0.1,0.3
			s0.1,0.1,0.2,0.1s0.2,0,0.2,0c0.1,0,0.3,0,0.4-0.1s0.2-0.1,0.3-0.1v0.8c-0.1,0.1-0.2,0.2-0.3,0.3s-0.2,0.1-0.3,0.2
			S95.3,45,95.2,45s-0.2,0-0.3,0c-0.2,0-0.4,0-0.6-0.1s-0.4-0.2-0.5-0.3s-0.3-0.4-0.4-0.6s-0.1-0.6-0.1-1.1V37.9z"/>
	</g>
	<g>
		<path fill="#FFFFFF" d="M99.1,36.9h1.4l0.6,4.4l0.1,1.6h0l0.2-1.6l0.8-4.4h1.2l0.8,4.4l0.2,1.6h0l0.1-1.6l0.5-4.4h1.4l-1.3,8.1
			h-1.4l-0.8-4.5l-0.2-1.2h0l-0.2,1.2l-0.8,4.5h-1.4L99.1,36.9z"/>
	</g>
	<g>
		<path fill="#FFFFFF" d="M109.5,45c-0.2,0-0.3,0-0.5,0s-0.3-0.1-0.5-0.2s-0.3-0.2-0.5-0.4s-0.3-0.4-0.4-0.6s-0.2-0.6-0.3-1
			s-0.1-0.8-0.1-1.4v-1.3c0-0.5,0-1,0.1-1.3s0.2-0.7,0.3-0.9s0.2-0.5,0.4-0.6s0.3-0.3,0.5-0.3s0.3-0.1,0.5-0.2s0.3,0,0.5,0
			c0.2,0,0.3,0,0.5,0s0.3,0.1,0.5,0.1s0.3,0.2,0.5,0.3s0.3,0.4,0.4,0.6s0.2,0.6,0.3,0.9s0.1,0.8,0.1,1.4v1.3c0,0.5,0,1-0.1,1.4
			s-0.2,0.7-0.3,1s-0.2,0.5-0.4,0.6s-0.3,0.3-0.5,0.4s-0.3,0.1-0.5,0.2S109.7,45,109.5,45z M109.5,43.9c0.1,0,0.2,0,0.3-0.1
			s0.2-0.2,0.2-0.3s0.1-0.4,0.1-0.6s0-0.6,0-1v-2c0-0.4,0-0.7,0-1s-0.1-0.5-0.1-0.6S110,38,109.9,38s-0.2-0.1-0.3-0.1
			c-0.1,0-0.3,0-0.4,0.1s-0.2,0.2-0.2,0.3s-0.1,0.4-0.1,0.6s0,0.6,0,1v2c0,0.4,0,0.7,0,1s0.1,0.5,0.1,0.6s0.1,0.3,0.2,0.3
			S109.4,43.9,109.5,43.9z"/>
	</g>
	<g>
		<path fill="#FFFFFF" d="M113,36.9h1.1l0.1,0.8c0.2-0.3,0.4-0.5,0.6-0.7s0.4-0.2,0.7-0.2c0.4,0,0.7,0.1,0.9,0.4s0.3,0.7,0.3,1.2
			c0,0.1,0,0.1,0,0.2s0,0.2,0,0.3s0,0.2-0.1,0.3s-0.1,0.2-0.1,0.3h-1v-0.8c0-0.2,0-0.3,0-0.4s0-0.2-0.1-0.3s-0.1-0.1-0.1-0.1
			s-0.1,0-0.2,0c-0.1,0-0.2,0-0.3,0.1s-0.2,0.2-0.2,0.3v6.6H113V36.9z"/>
	</g>
	<g>
		<path fill="#FFFFFF" d="M117.7,34.3h1.5v6.1h0l1.6-3.5h1.4l-1.8,3.7l2,4.4h-1.5l-1.7-4h0v4h-1.5V34.3z"/>
	</g>
	<g>
		<path fill="#FFFFFF" d="M123,43.9c0-0.4,0.1-0.7,0.2-0.9s0.4-0.3,0.7-0.3c0.3,0,0.5,0.1,0.7,0.3s0.2,0.5,0.2,0.9
			c0,0.4-0.1,0.6-0.2,0.8s-0.4,0.3-0.7,0.3c-0.3,0-0.5-0.1-0.7-0.3S123,44.2,123,43.9z"/>
	</g>
</g>
<g>
	<g>
		<path fill="#E97C4E" d="M186.8,11.5c0,0.4-3.4,0.8-3.9,0.8c-0.2,0.5-0.5,0.9-0.8,1.4c0.2,0.5,1.3,3.1,1.3,3.6c0,0.1,0,0.1-0.1,0.2
			c-0.3,0.2-3.1,1.9-3.3,1.9c-0.3,0-2.3-2.6-2.6-3c-0.3,0-0.5,0.1-0.8,0.1c-0.3,0-0.5,0-0.8-0.1c-0.3,0.4-2.2,3-2.6,3
			c-0.1,0-2.9-1.7-3.3-1.9c-0.1-0.1-0.1-0.1-0.1-0.2c0-0.4,1.1-3.1,1.3-3.6c-0.3-0.4-0.6-0.9-0.8-1.4c-0.5-0.1-3.9-0.4-3.9-0.8V7.8
			c0-0.4,3.4-0.8,3.9-0.8c0.2-0.5,0.5-0.9,0.8-1.4C171.1,5.1,170,2.5,170,2c0-0.1,0-0.1,0.1-0.2c0.3-0.2,3.1-1.8,3.3-1.8
			c0.3,0,2.3,2.6,2.6,3c0.3,0,0.5-0.1,0.8-0.1c0.3,0,0.5,0,0.8,0.1c0.7-1,1.5-2,2.4-2.9l0.2-0.1c0.1,0,2.9,1.7,3.3,1.8
			c0.1,0.1,0.1,0.1,0.1,0.2c0,0.5-1.1,3.1-1.3,3.6c0.3,0.4,0.6,0.9,0.8,1.4c0.5,0.1,3.9,0.4,3.9,0.8V11.5z M186.8,38.3
			c0,0.4-3.4,0.8-3.9,0.8c-0.2,0.5-0.5,0.9-0.8,1.4c0.2,0.5,1.3,3.1,1.3,3.6c0,0.1,0,0.1-0.1,0.2c-0.3,0.2-3.1,1.9-3.3,1.9
			c-0.3,0-2.3-2.6-2.6-3c-0.3,0-0.5,0.1-0.8,0.1c-0.3,0-0.5,0-0.8-0.1c-0.3,0.4-2.2,3-2.6,3c-0.1,0-2.9-1.7-3.3-1.9
			c-0.1-0.1-0.1-0.1-0.1-0.2c0-0.4,1.1-3.1,1.3-3.6c-0.3-0.4-0.6-0.9-0.8-1.4c-0.5-0.1-3.9-0.4-3.9-0.8v-3.7c0-0.4,3.4-0.8,3.9-0.8
			c0.2-0.5,0.5-0.9,0.8-1.4c-0.2-0.5-1.3-3.2-1.3-3.6c0-0.1,0-0.1,0.1-0.2c0.3-0.2,3.1-1.8,3.3-1.8c0.3,0,2.3,2.6,2.6,3
			c0.3,0,0.5-0.1,0.8-0.1c0.3,0,0.5,0,0.8,0.1c0.7-1,1.5-2,2.4-2.9l0.2-0.1c0.1,0,2.9,1.7,3.3,1.8c0.1,0.1,0.1,0.1,0.1,0.2
			c0,0.5-1.1,3.1-1.3,3.6c0.3,0.4,0.6,0.9,0.8,1.4c0.5,0.1,3.9,0.4,3.9,0.8V38.3z M176.7,6.3c-1.8,0-3.4,1.5-3.4,3.4
			c0,1.9,1.5,3.4,3.4,3.4c1.9,0,3.4-1.5,3.4-3.4S178.6,6.3,176.7,6.3z M176.7,33.2c-1.8,0-3.4,1.5-3.4,3.4c0,1.9,1.5,3.4,3.4,3.4
			c1.9,0,3.4-1.5,3.4-3.4S178.6,33.2,176.7,33.2z"/>
	</g>
</g>
<g>
	<path fill="#FFFFFF" d="M168.3,19.9l-4-0.6c-0.2-0.7-0.6-1.4-0.9-2.2c0.7-1,1.5-2,2.3-3c0.1-0.2,0.2-0.3,0.2-0.5
		c0-0.7-3.1-3.6-3.8-4.2c-0.2-0.1-0.3-0.2-0.6-0.2c-0.2,0-0.4,0.1-0.5,0.2l-3.1,2.3c-0.6-0.3-1.3-0.6-2-0.8l-0.6-4
		c-0.1-0.4-0.4-0.7-0.8-0.7h-4.9c-0.4,0-0.7,0.3-0.8,0.6c-0.3,1.3-0.5,2.7-0.6,4c-0.7,0.2-1.4,0.5-2,0.8l-3-2.4
		c-0.2-0.1-0.3-0.2-0.6-0.2c-0.8,0-3.7,3.2-4.2,3.9c-0.1,0.2-0.2,0.3-0.2,0.5c0,0.2,0.1,0.4,0.2,0.5c0.8,1,1.6,2,2.4,3
		c-0.3,0.7-0.6,1.3-0.8,2l-4.1,0.6c-0.3,0.1-0.6,0.4-0.6,0.8v4.9c0,0.4,0.3,0.7,0.6,0.8l4,0.6c0.2,0.7,0.6,1.4,0.9,2.2
		c-0.8,1-1.5,2-2.3,3c-0.1,0.2-0.2,0.3-0.2,0.5c0,0.8,3.1,3.6,3.8,4.2c0.2,0.1,0.3,0.2,0.6,0.2c0.2,0,0.4-0.1,0.5-0.2l3.1-2.3
		c0.6,0.3,1.3,0.6,2,0.8l0.6,4c0.1,0.4,0.4,0.7,0.8,0.7h4.9c0.4,0,0.7-0.3,0.8-0.6c0.3-1.3,0.5-2.7,0.6-4.1c0.7-0.2,1.4-0.5,2-0.8
		l3,2.4c0.2,0.1,0.3,0.2,0.6,0.2c0.8,0,3.7-3.2,4.2-3.9c0.1-0.1,0.2-0.3,0.2-0.5c0-0.2-0.1-0.4-0.2-0.5c-0.8-1-1.6-2-2.4-3
		c0.3-0.7,0.6-1.3,0.8-2l4.1-0.6c0.3-0.1,0.6-0.4,0.6-0.8v-4.9C169,20.3,168.7,20,168.3,19.9z M152.2,29.8c-3.7,0-6.7-3-6.7-6.7
		s3-6.7,6.7-6.7c3.7,0,6.7,3,6.7,6.7S155.9,29.8,152.2,29.8z"/>
</g>
</svg>
