<svg width="1920" height="979" xmlns="http://www.w3.org/2000/svg"><g><path d="M-35.8969815261662,-34.87449400126934L-71.81974892970175,232.38562546670437L-37.149289743974805,46.32250172551721Z" fill="#f2ffdb" stroke="#f2ffdb"></path><path d="M-35.8969815261662,-34.87449400126934L-37.149289743974805,46.32250172551721L26.681719673797488,-32.99961956217885Z" fill="#ffffe1" stroke="#ffffe1"></path><path d="M-35.8969815261662,-34.87449400126934L26.681719673797488,-32.99961956217885L110.9108217805624,-58.081351686269045Z" fill="#fbfee2" stroke="#fbfee2"></path><path d="M26.681719673797488,-32.99961956217885L-37.149289743974805,46.32250172551721L32.85203190520406,70.91206150129437Z" fill="#faffde" stroke="#faffde"></path><path d="M26.681719673797488,-32.99961956217885L32.85203190520406,70.91206150129437L156.33761045057327,16.711168074980378Z" fill="#f3fcdc" stroke="#f3fcdc"></path><path d="M26.681719673797488,-32.99961956217885L156.33761045057327,16.711168074980378L110.9108217805624,-58.081351686269045Z" fill="#f3fbdf" stroke="#f3fbdf"></path><path d="M110.9108217805624,-58.081351686269045L156.33761045057327,16.711168074980378L219.80648530181497,-26.34555368218571Z" fill="#ebf7dc" stroke="#ebf7dc"></path><path d="M110.9108217805624,-58.081351686269045L219.80648530181497,-26.34555368218571L324.0764184622094,-32.58274986874312Z" fill="#e5f5dc" stroke="#e5f5dc"></path><path d="M110.9108217805624,-58.081351686269045L324.0764184622094,-32.58274986874312L490.05266617052257,-74.64437101967633Z" fill="#daf0da" stroke="#daf0da"></path><path d="M219.80648530181497,-26.34555368218571L156.33761045057327,16.711168074980378L216.62111446727067,57.72362619638443Z" fill="#e5f6d9" stroke="#e5f6d9"></path><path d="M219.80648530181497,-26.34555368218571L216.62111446727067,57.72362619638443L309.93278866633773,39.51072779484093Z" fill="#ddf3d6" stroke="#ddf3d6"></path><path d="M219.80648530181497,-26.34555368218571L309.93278866633773,39.51072779484093L324.0764184622094,-32.58274986874312Z" fill="#dcf2d7" stroke="#dcf2d7"></path><path d="M324.0764184622094,-32.58274986874312L309.93278866633773,39.51072779484093L380.4403023747727,-16.893085087649524Z" fill="#d6efd5" stroke="#d6efd5"></path><path d="M324.0764184622094,-32.58274986874312L380.4403023747727,-16.893085087649524L490.05266617052257,-74.64437101967633Z" fill="#ceecd7" stroke="#ceecd7"></path><path d="M380.4403023747727,-16.893085087649524L309.93278866633773,39.51072779484093L422.2827462153509,73.30620758235455Z" fill="#cdedd2" stroke="#cdedd2"></path><path d="M380.4403023747727,-16.893085087649524L422.2827462153509,73.30620758235455L472.0061119599268,64.86447498667985Z" fill="#c5ebd2" stroke="#c5ebd2"></path><path d="M380.4403023747727,-16.893085087649524L472.0061119599268,64.86447498667985L490.05266617052257,-74.64437101967633Z" fill="#c8ead6" stroke="#c8ead6"></path><path d="M490.05266617052257,-74.64437101967633L472.0061119599268,64.86447498667985L573.0053191166371,-53.90770294703543Z" fill="#c0e7d8" stroke="#c0e7d8"></path><path d="M490.05266617052257,-74.64437101967633L573.0053191166371,-53.90770294703543L835.6284169200808,-71.38141129631549Z" fill="#b1e1de" stroke="#b1e1de"></path><path d="M573.0053191166371,-53.90770294703543L472.0061119599268,64.86447498667985L565.4208992002532,63.289097347296774Z" fill="#b9e6d5" stroke="#b9e6d5"></path><path d="M573.0053191166371,-53.90770294703543L565.4208992002532,63.289097347296774L682.6550294039771,-24.34519248548895Z" fill="#b4e2d9" stroke="#b4e2d9"></path><path d="M573.0053191166371,-53.90770294703543L682.6550294039771,-24.34519248548895L835.6284169200808,-71.38141129631549Z" fill="#a9dede" stroke="#a9dede"></path><path d="M682.6550294039771,-24.34519248548895L565.4208992002532,63.289097347296774L665.0218141218647,64.39425918739289Z" fill="#abe1d7" stroke="#abe1d7"></path><path d="M682.6550294039771,-24.34519248548895L665.0218141218647,64.39425918739289L790.1222539041191,54.362939964048564Z" fill="#a2ddd8" stroke="#a2ddd8"></path><path d="M682.6550294039771,-24.34519248548895L790.1222539041191,54.362939964048564L791.4658949151635,-33.21041505318135Z" fill="#a2dbdb" stroke="#a2dbdb"></path><path d="M682.6550294039771,-24.34519248548895L791.4658949151635,-33.21041505318135L835.6284169200808,-71.38141129631549Z" fill="#a0dbdf" stroke="#a0dbdf"></path><path d="M791.4658949151635,-33.21041505318135L790.1222539041191,54.362939964048564L825.5326393526047,25.7756961369887Z" fill="#9dd8da" stroke="#9dd8da"></path><path d="M791.4658949151635,-33.21041505318135L825.5326393526047,25.7756961369887L835.6284169200808,-71.38141129631549Z" fill="#9fd7dd" stroke="#9fd7dd"></path><path d="M835.6284169200808,-71.38141129631549L825.5326393526047,25.7756961369887L943.8239304441959,30.68512251600623Z" fill="#9ed4db" stroke="#9ed4db"></path><path d="M835.6284169200808,-71.38141129631549L943.8239304441959,30.68512251600623L972.6755224959925,-70.01699234358966Z" fill="#9cd0dc" stroke="#9cd0dc"></path><path d="M972.6755224959925,-70.01699234358966L943.8239304441959,30.68512251600623L1042.64564730227,-16.131194508634508Z" fill="#9acbda" stroke="#9acbda"></path><path d="M972.6755224959925,-70.01699234358966L1042.64564730227,-16.131194508634508L1127.9192047426477,-35.159513116814196Z" fill="#99c7da" stroke="#99c7da"></path><path d="M972.6755224959925,-70.01699234358966L1127.9192047426477,-35.159513116814196L1290.4468084406108,-43.234841795638204Z" fill="#96c1da" stroke="#96c1da"></path><path d="M972.6755224959925,-70.01699234358966L1290.4468084406108,-43.234841795638204L1373.6504592653364,-46.47719379980117Z" fill="#95b9d7" stroke="#95b9d7"></path><path d="M972.6755224959925,-70.01699234358966L1373.6504592653364,-46.47719379980117L1851.1691192910075,-49.046825766563416Z" fill="#93a7ce" stroke="#93a7ce"></path><path d="M972.6755224959925,-70.01699234358966L1851.1691192910075,-49.046825766563416L2001.6535511473194,-51.86530956532806Z" fill="#9293c4" stroke="#9293c4"></path><path d="M1042.64564730227,-16.131194508634508L943.8239304441959,30.68512251600623L1061.65174910333,23.113910034298897Z" fill="#97c9d7" stroke="#97c9d7"></path><path d="M1042.64564730227,-16.131194508634508L1061.65174910333,23.113910034298897L1107.0149917295203,17.587505662813783Z" fill="#96c5d7" stroke="#96c5d7"></path><path d="M1042.64564730227,-16.131194508634508L1107.0149917295203,17.587505662813783L1127.9192047426477,-35.159513116814196Z" fill="#97c4d8" stroke="#97c4d8"></path><path d="M1127.9192047426477,-35.159513116814196L1107.0149917295203,17.587505662813783L1185.7228535134345,15.243198503740132Z" fill="#96c0d6" stroke="#96c0d6"></path><path d="M1127.9192047426477,-35.159513116814196L1185.7228535134345,15.243198503740132L1212.10476601962,-29.0821027290076Z" fill="#96bdd6" stroke="#96bdd6"></path><path d="M1127.9192047426477,-35.159513116814196L1212.10476601962,-29.0821027290076L1290.4468084406108,-43.234841795638204Z" fill="#95bad6" stroke="#95bad6"></path><path d="M1212.10476601962,-29.0821027290076L1185.7228535134345,15.243198503740132L1328.5010806890205,52.83598868642002Z" fill="#93b6d1" stroke="#93b6d1"></path><path d="M1212.10476601962,-29.0821027290076L1328.5010806890205,52.83598868642002L1290.4468084406108,-43.234841795638204Z" fill="#95b3d0" stroke="#95b3d0"></path><path d="M1290.4468084406108,-43.234841795638204L1328.5010806890205,52.83598868642002L1373.6504592653364,-46.47719379980117Z" fill="#94aece" stroke="#94aece"></path><path d="M1373.6504592653364,-46.47719379980117L1328.5010806890205,52.83598868642002L1420.389001602307,59.40467724110931Z" fill="#90aaca" stroke="#90aaca"></path><path d="M1373.6504592653364,-46.47719379980117L1420.389001602307,59.40467724110931L1486.1098508862779,-40.97700906917453Z" fill="#93a4c9" stroke="#93a4c9"></path><path d="M1373.6504592653364,-46.47719379980117L1486.1098508862779,-40.97700906917453L1691.865495191887,-41.87601449433714Z" fill="#929cc8" stroke="#929cc8"></path><path d="M1373.6504592653364,-46.47719379980117L1691.865495191887,-41.87601449433714L1851.1691192910075,-49.046825766563416Z" fill="#9190c2" stroke="#9190c2"></path><path d="M1486.1098508862779,-40.97700906917453L1420.389001602307,59.40467724110931L1484.5838945684955,65.48990035895258Z" fill="#8ea1c5" stroke="#8ea1c5"></path><path d="M1486.1098508862779,-40.97700906917453L1484.5838945684955,65.48990035895258L1587.9180111642927,54.62194965686649Z" fill="#8e9bc3" stroke="#8e9bc3"></path><path d="M1486.1098508862779,-40.97700906917453L1587.9180111642927,54.62194965686649L1592.7948089595884,-22.289633913896978Z" fill="#9298c3" stroke="#9298c3"></path><path d="M1486.1098508862779,-40.97700906917453L1592.7948089595884,-22.289633913896978L1691.865495191887,-41.87601449433714Z" fill="#9294c4" stroke="#9294c4"></path><path d="M1592.7948089595884,-22.289633913896978L1587.9180111642927,54.62194965686649L1686.5581418713555,23.962236321531236Z" fill="#8e91be" stroke="#8e91be"></path><path d="M1592.7948089595884,-22.289633913896978L1686.5581418713555,23.962236321531236L1691.865495191887,-41.87601449433714Z" fill="#918ebf" stroke="#918ebf"></path><path d="M1691.865495191887,-41.87601449433714L1686.5581418713555,23.962236321531236L1731.6749934805557,-28.210517722181976Z" fill="#9189bd" stroke="#9189bd"></path><path d="M1691.865495191887,-41.87601449433714L1731.6749934805557,-28.210517722181976L1851.1691192910075,-49.046825766563416Z" fill="#9084bc" stroke="#9084bc"></path><path d="M1731.6749934805557,-28.210517722181976L1686.5581418713555,23.962236321531236L1763.7773043802008,52.555053401738405Z" fill="#8e87ba" stroke="#8e87ba"></path><path d="M1731.6749934805557,-28.210517722181976L1763.7773043802008,52.555053401738405L1847.078066803515,34.55099539831281Z" fill="#8d82b7" stroke="#8d82b7"></path><path d="M1731.6749934805557,-28.210517722181976L1847.078066803515,34.55099539831281L1851.1691192910075,-49.046825766563416Z" fill="#9080b8" stroke="#9080b8"></path><path d="M1851.1691192910075,-49.046825766563416L1847.078066803515,34.55099539831281L1914.2173125548288,15.634884154424071Z" fill="#8f80b4" stroke="#8f80b4"></path><path d="M1851.1691192910075,-49.046825766563416L1914.2173125548288,15.634884154424071L1964.270168049261,-37.850095611065626Z" fill="#8f80b4" stroke="#8f80b4"></path><path d="M1851.1691192910075,-49.046825766563416L1964.270168049261,-37.850095611065626L2001.6535511473194,-51.86530956532806Z" fill="#8f80b4" stroke="#8f80b4"></path><path d="M1964.270168049261,-37.850095611065626L1914.2173125548288,15.634884154424071L2011.0662684263662,63.234687969088554Z" fill="#8c80af" stroke="#8c80af"></path><path d="M1964.270168049261,-37.850095611065626L2011.0662684263662,63.234687969088554L2001.6535511473194,-51.86530956532806Z" fill="#8e80af" stroke="#8e80af"></path><path d="M2001.6535511473194,-51.86530956532806L2011.0662684263662,63.234687969088554L2042.0575711783022,222.02982859220356Z" fill="#8180a8" stroke="#8180a8"></path><path d="M-37.149289743974805,46.32250172551721L-71.81974892970175,232.38562546670437L-20.440740818157792,115.43886297382414Z" fill="#eaffd8" stroke="#eaffd8"></path><path d="M-37.149289743974805,46.32250172551721L-20.440740818157792,115.43886297382414L32.85203190520406,70.91206150129437Z" fill="#f3ffdb" stroke="#f3ffdb"></path><path d="M32.85203190520406,70.91206150129437L-20.440740818157792,115.43886297382414L39.187169037759304,106.02315219584852Z" fill="#eefed8" stroke="#eefed8"></path><path d="M32.85203190520406,70.91206150129437L39.187169037759304,106.02315219584852L138.51900286506861,106.48912919685245Z" fill="#e8fcd7" stroke="#e8fcd7"></path><path d="M32.85203190520406,70.91206150129437L138.51900286506861,106.48912919685245L156.33761045057327,16.711168074980378Z" fill="#e7fad8" stroke="#e7fad8"></path><path d="M156.33761045057327,16.711168074980378L138.51900286506861,106.48912919685245L216.62111446727067,57.72362619638443Z" fill="#e1f7d6" stroke="#e1f7d6"></path><path d="M216.62111446727067,57.72362619638443L138.51900286506861,106.48912919685245L226.40157009009272,111.44485913682729Z" fill="#d9f6d3" stroke="#d9f6d3"></path><path d="M216.62111446727067,57.72362619638443L226.40157009009272,111.44485913682729L309.93278866633773,39.51072779484093Z" fill="#d6f3d3" stroke="#d6f3d3"></path><path d="M309.93278866633773,39.51072779484093L226.40157009009272,111.44485913682729L332.2217040415853,117.39688374102116Z" fill="#cdf1d0" stroke="#cdf1d0"></path><path d="M309.93278866633773,39.51072779484093L332.2217040415853,117.39688374102116L422.2827462153509,73.30620758235455Z" fill="#c7eecf" stroke="#c7eecf"></path><path d="M422.2827462153509,73.30620758235455L332.2217040415853,117.39688374102116L404.66417867224663,118.75491262413561Z" fill="#bfedcc" stroke="#bfedcc"></path><path d="M422.2827462153509,73.30620758235455L404.66417867224663,118.75491262413561L476.2453337665647,139.70899875741452Z" fill="#b8eacd" stroke="#b8eacd"></path><path d="M422.2827462153509,73.30620758235455L476.2453337665647,139.70899875741452L472.0061119599268,64.86447498667985Z" fill="#b8e9cf" stroke="#b8e9cf"></path><path d="M472.0061119599268,64.86447498667985L476.2453337665647,139.70899875741452L565.4208992002532,63.289097347296774Z" fill="#b3e7d0" stroke="#b3e7d0"></path><path d="M565.4208992002532,63.289097347296774L476.2453337665647,139.70899875741452L587.5996137969196,119.53219230752438Z" fill="#abe5d0" stroke="#abe5d0"></path><path d="M565.4208992002532,63.289097347296774L587.5996137969196,119.53219230752438L665.0218141218647,64.39425918739289Z" fill="#a7e2d2" stroke="#a7e2d2"></path><path d="M665.0218141218647,64.39425918739289L587.5996137969196,119.53219230752438L700.3506315685809,160.27130111586303Z" fill="#9ce0d1" stroke="#9ce0d1"></path><path d="M665.0218141218647,64.39425918739289L700.3506315685809,160.27130111586303L786.1909436993301,129.82430877629668Z" fill="#94ddd2" stroke="#94ddd2"></path><path d="M665.0218141218647,64.39425918739289L786.1909436993301,129.82430877629668L790.1222539041191,54.362939964048564Z" fill="#95dcd5" stroke="#95dcd5"></path><path d="M790.1222539041191,54.362939964048564L786.1909436993301,129.82430877629668L841.0696595767513,106.89787589013577Z" fill="#90d8d4" stroke="#90d8d4"></path><path d="M790.1222539041191,54.362939964048564L841.0696595767513,106.89787589013577L825.5326393526047,25.7756961369887Z" fill="#95d7d6" stroke="#95d7d6"></path><path d="M825.5326393526047,25.7756961369887L841.0696595767513,106.89787589013577L943.8239304441959,30.68512251600623Z" fill="#94d3d6" stroke="#94d3d6"></path><path d="M943.8239304441959,30.68512251600623L841.0696595767513,106.89787589013577L962.8626612760127,126.73022730275989Z" fill="#8ed0d3" stroke="#8ed0d3"></path><path d="M943.8239304441959,30.68512251600623L962.8626612760127,126.73022730275989L1011.3931313389912,112.67715361900628Z" fill="#8cccd2" stroke="#8cccd2"></path><path d="M943.8239304441959,30.68512251600623L1011.3931313389912,112.67715361900628L1061.65174910333,23.113910034298897Z" fill="#91cad4" stroke="#91cad4"></path><path d="M1061.65174910333,23.113910034298897L1011.3931313389912,112.67715361900628L1153.062992845662,107.66417766921222Z" fill="#8bc5d1" stroke="#8bc5d1"></path><path d="M1061.65174910333,23.113910034298897L1153.062992845662,107.66417766921222L1107.0149917295203,17.587505662813783Z" fill="#8fc2d3" stroke="#8fc2d3"></path><path d="M1107.0149917295203,17.587505662813783L1153.062992845662,107.66417766921222L1185.7228535134345,15.243198503740132Z" fill="#8ebfd2" stroke="#8ebfd2"></path><path d="M1185.7228535134345,15.243198503740132L1153.062992845662,107.66417766921222L1207.104937825352,161.12861861474812Z" fill="#86bccd" stroke="#86bccd"></path><path d="M1185.7228535134345,15.243198503740132L1207.104937825352,161.12861861474812L1328.5010806890205,52.83598868642002Z" fill="#88b7cc" stroke="#88b7cc"></path><path d="M1328.5010806890205,52.83598868642002L1207.104937825352,161.12861861474812L1332.3982189362869,155.60598661657423Z" fill="#80b2c6" stroke="#80b2c6"></path><path d="M1328.5010806890205,52.83598868642002L1332.3982189362869,155.60598661657423L1380.3108641551808,105.38791513536125Z" fill="#83acc5" stroke="#83acc5"></path><path d="M1328.5010806890205,52.83598868642002L1380.3108641551808,105.38791513536125L1420.389001602307,59.40467724110931Z" fill="#88a9c6" stroke="#88a9c6"></path><path d="M1420.389001602307,59.40467724110931L1380.3108641551808,105.38791513536125L1455.8193574659526,121.21959021314979Z" fill="#84a5c2" stroke="#84a5c2"></path><path d="M1420.389001602307,59.40467724110931L1455.8193574659526,121.21959021314979L1484.5838945684955,65.48990035895258Z" fill="#86a2c2" stroke="#86a2c2"></path><path d="M1484.5838945684955,65.48990035895258L1455.8193574659526,121.21959021314979L1583.8304005097598,154.88540504593402Z" fill="#809cbd" stroke="#809cbd"></path><path d="M1484.5838945684955,65.48990035895258L1583.8304005097598,154.88540504593402L1587.9180111642927,54.62194965686649Z" fill="#8498bc" stroke="#8498bc"></path><path d="M1587.9180111642927,54.62194965686649L1583.8304005097598,154.88540504593402L1679.0708379121497,163.5361075680703Z" fill="#7e92b7" stroke="#7e92b7"></path><path d="M1587.9180111642927,54.62194965686649L1679.0708379121497,163.5361075680703L1686.5581418713555,23.962236321531236Z" fill="#848fb8" stroke="#848fb8"></path><path d="M1686.5581418713555,23.962236321531236L1679.0708379121497,163.5361075680703L1746.9271456170827,111.19754661340266Z" fill="#8189b5" stroke="#8189b5"></path><path d="M1686.5581418713555,23.962236321531236L1746.9271456170827,111.19754661340266L1763.7773043802008,52.555053401738405Z" fill="#8687b6" stroke="#8687b6"></path><path d="M1763.7773043802008,52.555053401738405L1746.9271456170827,111.19754661340266L1842.6334325177595,151.14819198846817Z" fill="#7f81b1" stroke="#7f81b1"></path><path d="M1763.7773043802008,52.555053401738405L1842.6334325177595,151.14819198846817L1847.078066803515,34.55099539831281Z" fill="#8380b1" stroke="#8380b1"></path><path d="M1847.078066803515,34.55099539831281L1842.6334325177595,151.14819198846817L1936.4116391027346,127.92029779404402Z" fill="#7e80ac" stroke="#7e80ac"></path><path d="M1847.078066803515,34.55099539831281L1936.4116391027346,127.92029779404402L1914.2173125548288,15.634884154424071Z" fill="#8580af" stroke="#8580af"></path><path d="M1914.2173125548288,15.634884154424071L1936.4116391027346,127.92029779404402L2011.0662684263662,63.234687969088554Z" fill="#8380ab" stroke="#8380ab"></path><path d="M2011.0662684263662,63.234687969088554L1936.4116391027346,127.92029779404402L2025.0669373059645,162.6396669074893Z" fill="#7b80a6" stroke="#7b80a6"></path><path d="M2011.0662684263662,63.234687969088554L2025.0669373059645,162.6396669074893L2042.0575711783022,222.02982859220356Z" fill="#7680a2" stroke="#7680a2"></path><path d="M-20.440740818157792,115.43886297382414L-71.81974892970175,232.38562546670437L62.208250472322106,205.08201238699257Z" fill="#e2ffd3" stroke="#e2ffd3"></path><path d="M-20.440740818157792,115.43886297382414L62.208250472322106,205.08201238699257L39.187169037759304,106.02315219584852Z" fill="#e5fed5" stroke="#e5fed5"></path><path d="M39.187169037759304,106.02315219584852L62.208250472322106,205.08201238699257L138.51900286506861,106.48912919685245Z" fill="#dffbd3" stroke="#dffbd3"></path><path d="M138.51900286506861,106.48912919685245L62.208250472322106,205.08201238699257L142.65863784123212,249.50242588296533Z" fill="#d3facf" stroke="#d3facf"></path><path d="M138.51900286506861,106.48912919685245L142.65863784123212,249.50242588296533L226.40157009009272,111.44485913682729Z" fill="#d2f7cf" stroke="#d2f7cf"></path><path d="M226.40157009009272,111.44485913682729L142.65863784123212,249.50242588296533L245.26531191542745,226.15534626413137Z" fill="#c7f5cb" stroke="#c7f5cb"></path><path d="M226.40157009009272,111.44485913682729L245.26531191542745,226.15534626413137L332.2217040415853,117.39688374102116Z" fill="#c6f2cc" stroke="#c6f2cc"></path><path d="M332.2217040415853,117.39688374102116L245.26531191542745,226.15534626413137L304.82813430950046,232.9777692630887Z" fill="#bcf1c9" stroke="#bcf1c9"></path><path d="M332.2217040415853,117.39688374102116L304.82813430950046,232.9777692630887L434.06180917751044,217.92120094411075Z" fill="#b5eec7" stroke="#b5eec7"></path><path d="M332.2217040415853,117.39688374102116L434.06180917751044,217.92120094411075L404.66417867224663,118.75491262413561Z" fill="#b7ecc9" stroke="#b7ecc9"></path><path d="M404.66417867224663,118.75491262413561L434.06180917751044,217.92120094411075L476.2453337665647,139.70899875741452Z" fill="#b0eac9" stroke="#b0eac9"></path><path d="M476.2453337665647,139.70899875741452L434.06180917751044,217.92120094411075L519.5067968778312,248.0747738108039Z" fill="#a3e8c8" stroke="#a3e8c8"></path><path d="M476.2453337665647,139.70899875741452L519.5067968778312,248.0747738108039L587.5996137969196,119.53219230752438Z" fill="#a3e6cb" stroke="#a3e6cb"></path><path d="M587.5996137969196,119.53219230752438L519.5067968778312,248.0747738108039L612.0508107030764,247.57120077498257Z" fill="#97e3ca" stroke="#97e3ca"></path><path d="M587.5996137969196,119.53219230752438L612.0508107030764,247.57120077498257L681.5727023547515,220.24437071755528Z" fill="#92e1cb" stroke="#92e1cb"></path><path d="M587.5996137969196,119.53219230752438L681.5727023547515,220.24437071755528L700.3506315685809,160.27130111586303Z" fill="#93e0cd" stroke="#93e0cd"></path><path d="M700.3506315685809,160.27130111586303L681.5727023547515,220.24437071755528L745.8025084622204,252.59689665399492Z" fill="#84dccd" stroke="#84dccd"></path><path d="M700.3506315685809,160.27130111586303L745.8025084622204,252.59689665399492L786.1909436993301,129.82430877629668Z" fill="#86dcce" stroke="#86dcce"></path><path d="M786.1909436993301,129.82430877629668L745.8025084622204,252.59689665399492L833.2549736090004,203.61077209934592Z" fill="#80d9cd" stroke="#80d9cd"></path><path d="M786.1909436993301,129.82430877629668L833.2549736090004,203.61077209934592L841.0696595767513,106.89787589013577Z" fill="#87d7d0" stroke="#87d7d0"></path><path d="M841.0696595767513,106.89787589013577L833.2549736090004,203.61077209934592L937.6023901300505,216.86760225333273Z" fill="#81d3ce" stroke="#81d3ce"></path><path d="M841.0696595767513,106.89787589013577L937.6023901300505,216.86760225333273L962.8626612760127,126.73022730275989Z" fill="#84d0cf" stroke="#84d0cf"></path><path d="M962.8626612760127,126.73022730275989L937.6023901300505,216.86760225333273L1053.7650279840454,217.51760986167938Z" fill="#7ccbcb" stroke="#7ccbcb"></path><path d="M962.8626612760127,126.73022730275989L1053.7650279840454,217.51760986167938L1011.3931313389912,112.67715361900628Z" fill="#81c9cd" stroke="#81c9cd"></path><path d="M1011.3931313389912,112.67715361900628L1053.7650279840454,217.51760986167938L1153.062992845662,107.66417766921222Z" fill="#80c5cc" stroke="#80c5cc"></path><path d="M1153.062992845662,107.66417766921222L1053.7650279840454,217.51760986167938L1148.9562022453174,213.57341123744845Z" fill="#7ac2c9" stroke="#7ac2c9"></path><path d="M1153.062992845662,107.66417766921222L1148.9562022453174,213.57341123744845L1207.104937825352,161.12861861474812Z" fill="#7cbec9" stroke="#7cbec9"></path><path d="M1207.104937825352,161.12861861474812L1148.9562022453174,213.57341123744845L1230.0146068353206,196.1198458308354Z" fill="#77bbc6" stroke="#77bbc6"></path><path d="M1207.104937825352,161.12861861474812L1230.0146068353206,196.1198458308354L1287.6455883309245,202.21603138837963Z" fill="#77b7c4" stroke="#77b7c4"></path><path d="M1207.104937825352,161.12861861474812L1287.6455883309245,202.21603138837963L1332.3982189362869,155.60598661657423Z" fill="#79b3c3" stroke="#79b3c3"></path><path d="M1332.3982189362869,155.60598661657423L1287.6455883309245,202.21603138837963L1393.1733814068139,195.06773555651307Z" fill="#77adc0" stroke="#77adc0"></path><path d="M1332.3982189362869,155.60598661657423L1393.1733814068139,195.06773555651307L1380.3108641551808,105.38791513536125Z" fill="#7baac1" stroke="#7baac1"></path><path d="M1380.3108641551808,105.38791513536125L1393.1733814068139,195.06773555651307L1455.8193574659526,121.21959021314979Z" fill="#7da6c0" stroke="#7da6c0"></path><path d="M1455.8193574659526,121.21959021314979L1393.1733814068139,195.06773555651307L1484.1043234756216,226.90591651014984Z" fill="#76a3bb" stroke="#76a3bb"></path><path d="M1455.8193574659526,121.21959021314979L1484.1043234756216,226.90591651014984L1583.8304005097598,154.88540504593402Z" fill="#789cb9" stroke="#789cb9"></path><path d="M1583.8304005097598,154.88540504593402L1484.1043234756216,226.90591651014984L1597.0607873378322,206.2686076713726Z" fill="#7398b5" stroke="#7398b5"></path><path d="M1583.8304005097598,154.88540504593402L1597.0607873378322,206.2686076713726L1679.0708379121497,163.5361075680703Z" fill="#7592b3" stroke="#7592b3"></path><path d="M1679.0708379121497,163.5361075680703L1597.0607873378322,206.2686076713726L1635.354343210347,252.43220643606037Z" fill="#6e8fb2" stroke="#6e8fb2"></path><path d="M1679.0708379121497,163.5361075680703L1635.354343210347,252.43220643606037L1692.1697281580418,293.86449137236923Z" fill="#6689b2" stroke="#6689b2"></path><path d="M1679.0708379121497,163.5361075680703L1692.1697281580418,293.86449137236923L1779.044014220126,209.33372585568577Z" fill="#6986af" stroke="#6986af"></path><path d="M1679.0708379121497,163.5361075680703L1779.044014220126,209.33372585568577L1746.9271456170827,111.19754661340266Z" fill="#7686af" stroke="#7686af"></path><path d="M1746.9271456170827,111.19754661340266L1779.044014220126,209.33372585568577L1842.6334325177595,151.14819198846817Z" fill="#7681ad" stroke="#7681ad"></path><path d="M1842.6334325177595,151.14819198846817L1779.044014220126,209.33372585568577L1846.0428374027833,203.81848766002804Z" fill="#7180a9" stroke="#7180a9"></path><path d="M1842.6334325177595,151.14819198846817L1846.0428374027833,203.81848766002804L1936.4116391027346,127.92029779404402Z" fill="#7580a8" stroke="#7580a8"></path><path d="M1936.4116391027346,127.92029779404402L1846.0428374027833,203.81848766002804L1951.536421640776,234.44436646532267Z" fill="#7080a5" stroke="#7080a5"></path><path d="M1936.4116391027346,127.92029779404402L1951.536421640776,234.44436646532267L2025.0669373059645,162.6396669074893Z" fill="#7280a3" stroke="#7280a3"></path><path d="M2025.0669373059645,162.6396669074893L1951.536421640776,234.44436646532267L2042.0575711783022,222.02982859220356Z" fill="#6b7fa0" stroke="#6b7fa0"></path><path d="M-71.81974892970175,232.38562546670437L-64.43507849704474,1038.5066349059343L-67.09033483173698,701.6761197242886Z" fill="#98bbce" stroke="#98bbce"></path><path d="M-71.81974892970175,232.38562546670437L-67.09033483173698,701.6761197242886L-59.80558434035629,580.0769046507776Z" fill="#9fd9d9" stroke="#9fd9d9"></path><path d="M-71.81974892970175,232.38562546670437L-59.80558434035629,580.0769046507776L-26.612954358570278,384.80788609944284Z" fill="#a6ebdc" stroke="#a6ebdc"></path><path d="M-71.81974892970175,232.38562546670437L-26.612954358570278,384.80788609944284L-18.88295381795615,306.2891422631219Z" fill="#bff4d8" stroke="#bff4d8"></path><path d="M-71.81974892970175,232.38562546670437L-18.88295381795615,306.2891422631219L62.208250472322106,205.08201238699257Z" fill="#d0fad5" stroke="#d0fad5"></path><path d="M62.208250472322106,205.08201238699257L-18.88295381795615,306.2891422631219L60.109199336729944,286.7378111695871Z" fill="#c7f7d4" stroke="#c7f7d4"></path><path d="M62.208250472322106,205.08201238699257L60.109199336729944,286.7378111695871L142.65863784123212,249.50242588296533Z" fill="#c6f6d1" stroke="#c6f6d1"></path><path d="M142.65863784123212,249.50242588296533L60.109199336729944,286.7378111695871L130.03812097012997,301.9675637036562Z" fill="#baf2d2" stroke="#baf2d2"></path><path d="M142.65863784123212,249.50242588296533L130.03812097012997,301.9675637036562L228.5285504674539,294.95866453740746Z" fill="#b2efd1" stroke="#b2efd1"></path><path d="M142.65863784123212,249.50242588296533L228.5285504674539,294.95866453740746L245.26531191542745,226.15534626413137Z" fill="#b5efce" stroke="#b5efce"></path><path d="M245.26531191542745,226.15534626413137L228.5285504674539,294.95866453740746L304.82813430950046,232.9777692630887Z" fill="#afedcc" stroke="#afedcc"></path><path d="M304.82813430950046,232.9777692630887L228.5285504674539,294.95866453740746L340.37184682209045,303.77229093108326Z" fill="#a4e9cd" stroke="#a4e9cd"></path><path d="M304.82813430950046,232.9777692630887L340.37184682209045,303.77229093108326L434.06180917751044,217.92120094411075Z" fill="#a3e8c9" stroke="#a3e8c9"></path><path d="M434.06180917751044,217.92120094411075L340.37184682209045,303.77229093108326L390.69525495171547,342.87286011502147Z" fill="#95e4ca" stroke="#95e4ca"></path><path d="M434.06180917751044,217.92120094411075L390.69525495171547,342.87286011502147L470.1773608289659,286.07001797296107Z" fill="#91e2cb" stroke="#91e2cb"></path><path d="M434.06180917751044,217.92120094411075L470.1773608289659,286.07001797296107L519.5067968778312,248.0747738108039Z" fill="#95e3ca" stroke="#95e3ca"></path><path d="M519.5067968778312,248.0747738108039L470.1773608289659,286.07001797296107L596.4199487585574,301.49265605024993Z" fill="#86decd" stroke="#86decd"></path><path d="M519.5067968778312,248.0747738108039L596.4199487585574,301.49265605024993L612.0508107030764,247.57120077498257Z" fill="#84ddcd" stroke="#84ddcd"></path><path d="M612.0508107030764,247.57120077498257L596.4199487585574,301.49265605024993L700.5214390112087,289.22133481130004Z" fill="#79d9cf" stroke="#79d9cf"></path><path d="M612.0508107030764,247.57120077498257L700.5214390112087,289.22133481130004L681.5727023547515,220.24437071755528Z" fill="#7ddace" stroke="#7ddace"></path><path d="M681.5727023547515,220.24437071755528L700.5214390112087,289.22133481130004L745.8025084622204,252.59689665399492Z" fill="#77d8d0" stroke="#77d8d0"></path><path d="M745.8025084622204,252.59689665399492L700.5214390112087,289.22133481130004L773.1590142566711,292.13778669945896Z" fill="#6cd4d1" stroke="#6cd4d1"></path><path d="M745.8025084622204,252.59689665399492L773.1590142566711,292.13778669945896L833.2549736090004,203.61077209934592Z" fill="#70d5d0" stroke="#70d5d0"></path><path d="M833.2549736090004,203.61077209934592L773.1590142566711,292.13778669945896L878.2846693368629,336.61198530346155Z" fill="#67ced1" stroke="#67ced1"></path><path d="M833.2549736090004,203.61077209934592L878.2846693368629,336.61198530346155L937.6023901300505,216.86760225333273Z" fill="#6dcdce" stroke="#6dcdce"></path><path d="M937.6023901300505,216.86760225333273L878.2846693368629,336.61198530346155L954.8088765889406,331.7866214644164Z" fill="#5fc6d0" stroke="#5fc6d0"></path><path d="M937.6023901300505,216.86760225333273L954.8088765889406,331.7866214644164L1060.2197389863431,296.9558151299134Z" fill="#61c3ce" stroke="#61c3ce"></path><path d="M937.6023901300505,216.86760225333273L1060.2197389863431,296.9558151299134L1053.7650279840454,217.51760986167938Z" fill="#6cc4cc" stroke="#6cc4cc"></path><path d="M1053.7650279840454,217.51760986167938L1060.2197389863431,296.9558151299134L1103.309185942635,307.9212082223967Z" fill="#61bdcd" stroke="#61bdcd"></path><path d="M1053.7650279840454,217.51760986167938L1103.309185942635,307.9212082223967L1148.9562022453174,213.57341123744845Z" fill="#69becb" stroke="#69becb"></path><path d="M1148.9562022453174,213.57341123744845L1103.309185942635,307.9212082223967L1225.3547917027026,291.25695762690157Z" fill="#60b7cb" stroke="#60b7cb"></path><path d="M1148.9562022453174,213.57341123744845L1225.3547917027026,291.25695762690157L1230.0146068353206,196.1198458308354Z" fill="#6bb7c7" stroke="#6bb7c7"></path><path d="M1230.0146068353206,196.1198458308354L1225.3547917027026,291.25695762690157L1287.6455883309245,202.21603138837963Z" fill="#6bb2c5" stroke="#6bb2c5"></path><path d="M1287.6455883309245,202.21603138837963L1225.3547917027026,291.25695762690157L1315.1844434905797,294.9366579344496Z" fill="#62adc5" stroke="#62adc5"></path><path d="M1287.6455883309245,202.21603138837963L1315.1844434905797,294.9366579344496L1393.1733814068139,195.06773555651307Z" fill="#6aaac1" stroke="#6aaac1"></path><path d="M1393.1733814068139,195.06773555651307L1315.1844434905797,294.9366579344496L1380.720574920997,328.8328788243234Z" fill="#5ea3c1" stroke="#5ea3c1"></path><path d="M1393.1733814068139,195.06773555651307L1380.720574920997,328.8328788243234L1484.1043234756216,226.90591651014984Z" fill="#64a0be" stroke="#64a0be"></path><path d="M1484.1043234756216,226.90591651014984L1380.720574920997,328.8328788243234L1474.358359160833,324.31449873838574Z" fill="#5799be" stroke="#5799be"></path><path d="M1484.1043234756216,226.90591651014984L1474.358359160833,324.31449873838574L1548.9010120695457,343.3390976395458Z" fill="#5593bc" stroke="#5593bc"></path><path d="M1484.1043234756216,226.90591651014984L1548.9010120695457,343.3390976395458L1597.0607873378322,206.2686076713726Z" fill="#6093b8" stroke="#6093b8"></path><path d="M1597.0607873378322,206.2686076713726L1548.9010120695457,343.3390976395458L1635.354343210347,252.43220643606037Z" fill="#5d8db7" stroke="#5d8db7"></path><path d="M1635.354343210347,252.43220643606037L1548.9010120695457,343.3390976395458L1599.7040025237948,384.55398611258715Z" fill="#4c88ba" stroke="#4c88ba"></path><path d="M1635.354343210347,252.43220643606037L1599.7040025237948,384.55398611258715L1692.1697281580418,293.86449137236923Z" fill="#5084b6" stroke="#5084b6"></path><path d="M1779.044014220126,209.33372585568577L1692.1697281580418,293.86449137236923L1775.293286992237,325.3132714983076Z" fill="#597db0" stroke="#597db0"></path><path d="M1779.044014220126,209.33372585568577L1775.293286992237,325.3132714983076L1839.3351660529152,304.5203587040305Z" fill="#5878ad" stroke="#5878ad"></path><path d="M1779.044014220126,209.33372585568577L1839.3351660529152,304.5203587040305L1846.0428374027833,203.81848766002804Z" fill="#637caa" stroke="#637caa"></path><path d="M1846.0428374027833,203.81848766002804L1839.3351660529152,304.5203587040305L1951.536421640776,234.44436646532267Z" fill="#617ba8" stroke="#617ba8"></path><path d="M1951.536421640776,234.44436646532267L1839.3351660529152,304.5203587040305L1959.987191031687,300.07692638318986Z" fill="#5778a8" stroke="#5778a8"></path><path d="M1951.536421640776,234.44436646532267L1959.987191031687,300.07692638318986L2042.0575711783022,222.02982859220356Z" fill="#5e7aa3" stroke="#5e7aa3"></path><path d="M2042.0575711783022,222.02982859220356L1959.987191031687,300.07692638318986L2050.603845329024,294.47503436822444Z" fill="#5878a3" stroke="#5878a3"></path><path d="M-18.88295381795615,306.2891422631219L-26.612954358570278,384.80788609944284L74.15842913556844,406.65763068012893Z" fill="#adeeda" stroke="#adeeda"></path><path d="M-18.88295381795615,306.2891422631219L74.15842913556844,406.65763068012893L60.109199336729944,286.7378111695871Z" fill="#b3f0d7" stroke="#b3f0d7"></path><path d="M60.109199336729944,286.7378111695871L74.15842913556844,406.65763068012893L130.03812097012997,301.9675637036562Z" fill="#adeed5" stroke="#adeed5"></path><path d="M130.03812097012997,301.9675637036562L74.15842913556844,406.65763068012893L131.76536183338612,392.01732298359275Z" fill="#a0e9d7" stroke="#a0e9d7"></path><path d="M130.03812097012997,301.9675637036562L131.76536183338612,392.01732298359275L232.39975260570645,377.0075988583267Z" fill="#9ce8d5" stroke="#9ce8d5"></path><path d="M130.03812097012997,301.9675637036562L232.39975260570645,377.0075988583267L228.5285504674539,294.95866453740746Z" fill="#a2e9d2" stroke="#a2e9d2"></path><path d="M228.5285504674539,294.95866453740746L232.39975260570645,377.0075988583267L340.37184682209045,303.77229093108326Z" fill="#99e6d0" stroke="#99e6d0"></path><path d="M340.37184682209045,303.77229093108326L232.39975260570645,377.0075988583267L306.34097137022763,398.60044746659696Z" fill="#8ce1d1" stroke="#8ce1d1"></path><path d="M340.37184682209045,303.77229093108326L306.34097137022763,398.60044746659696L390.69525495171547,342.87286011502147Z" fill="#88e0ce" stroke="#88e0ce"></path><path d="M390.69525495171547,342.87286011502147L306.34097137022763,398.60044746659696L395.49752371385694,400.08481171913445Z" fill="#7ddccf" stroke="#7ddccf"></path><path d="M390.69525495171547,342.87286011502147L395.49752371385694,400.08481171913445L500.39903983008116,425.4492771998048Z" fill="#72d8d0" stroke="#72d8d0"></path><path d="M390.69525495171547,342.87286011502147L500.39903983008116,425.4492771998048L470.1773608289659,286.07001797296107Z" fill="#7bdacf" stroke="#7bdacf"></path><path d="M470.1773608289659,286.07001797296107L500.39903983008116,425.4492771998048L596.4199487585574,301.49265605024993Z" fill="#76d8d0" stroke="#76d8d0"></path><path d="M596.4199487585574,301.49265605024993L500.39903983008116,425.4492771998048L583.4438885841519,419.03329920955Z" fill="#64d2d2" stroke="#64d2d2"></path><path d="M596.4199487585574,301.49265605024993L583.4438885841519,419.03329920955L671.651065419428,421.01830675732344Z" fill="#5ed0d4" stroke="#5ed0d4"></path><path d="M596.4199487585574,301.49265605024993L671.651065419428,421.01830675732344L700.5214390112087,289.22133481130004Z" fill="#65d2d2" stroke="#65d2d2"></path><path d="M700.5214390112087,289.22133481130004L671.651065419428,421.01830675732344L790.5582436406985,396.6311025246978Z" fill="#54ccd5" stroke="#54ccd5"></path><path d="M700.5214390112087,289.22133481130004L790.5582436406985,396.6311025246978L773.1590142566711,292.13778669945896Z" fill="#5ccfd4" stroke="#5ccfd4"></path><path d="M773.1590142566711,292.13778669945896L790.5582436406985,396.6311025246978L878.2846693368629,336.61198530346155Z" fill="#54c9d4" stroke="#54c9d4"></path><path d="M878.2846693368629,336.61198530346155L790.5582436406985,396.6311025246978L870.0316972984001,394.83182202558964Z" fill="#4ac4d5" stroke="#4ac4d5"></path><path d="M878.2846693368629,336.61198530346155L870.0316972984001,394.83182202558964L963.7643442861736,380.2210029261187Z" fill="#4ac0d4" stroke="#4ac0d4"></path><path d="M878.2846693368629,336.61198530346155L963.7643442861736,380.2210029261187L954.8088765889406,331.7866214644164Z" fill="#4fc0d3" stroke="#4fc0d3"></path><path d="M954.8088765889406,331.7866214644164L963.7643442861736,380.2210029261187L1060.2197389863431,296.9558151299134Z" fill="#51bdd1" stroke="#51bdd1"></path><path d="M1060.2197389863431,296.9558151299134L963.7643442861736,380.2210029261187L1009.8137949686497,423.0753046134487Z" fill="#48b9d2" stroke="#48b9d2"></path><path d="M1060.2197389863431,296.9558151299134L1009.8137949686497,423.0753046134487L1115.5009530577809,413.82724825758487Z" fill="#43b4d2" stroke="#43b4d2"></path><path d="M1060.2197389863431,296.9558151299134L1115.5009530577809,413.82724825758487L1103.309185942635,307.9212082223967Z" fill="#4eb5d0" stroke="#4eb5d0"></path><path d="M1103.309185942635,307.9212082223967L1115.5009530577809,413.82724825758487L1229.1617633309215,406.6665690857917Z" fill="#41aed0" stroke="#41aed0"></path><path d="M1103.309185942635,307.9212082223967L1229.1617633309215,406.6665690857917L1225.3547917027026,291.25695762690157Z" fill="#4daecd" stroke="#4daecd"></path><path d="M1225.3547917027026,291.25695762690157L1229.1617633309215,406.6665690857917L1284.878163188696,397.6629367377609Z" fill="#44a6cb" stroke="#44a6cb"></path><path d="M1225.3547917027026,291.25695762690157L1284.878163188696,397.6629367377609L1315.1844434905797,294.9366579344496Z" fill="#4ea6c8" stroke="#4ea6c8"></path><path d="M1315.1844434905797,294.9366579344496L1284.878163188696,397.6629367377609L1380.720574920997,328.8328788243234Z" fill="#4aa0c7" stroke="#4aa0c7"></path><path d="M1380.720574920997,328.8328788243234L1284.878163188696,397.6629367377609L1411.3639942696318,376.44184998236597Z" fill="#429bc7" stroke="#429bc7"></path><path d="M1380.720574920997,328.8328788243234L1411.3639942696318,376.44184998236597L1474.358359160833,324.31449873838574Z" fill="#4896c2" stroke="#4896c2"></path><path d="M1474.358359160833,324.31449873838574L1411.3639942696318,376.44184998236597L1460.0527887325734,408.4038008423522Z" fill="#4191c2" stroke="#4191c2"></path><path d="M1474.358359160833,324.31449873838574L1460.0527887325734,408.4038008423522L1548.9010120695457,343.3390976395458Z" fill="#438ec0" stroke="#438ec0"></path><path d="M1548.9010120695457,343.3390976395458L1460.0527887325734,408.4038008423522L1508.075572871603,474.24935827497393Z" fill="#3987c0" stroke="#3987c0"></path><path d="M1548.9010120695457,343.3390976395458L1508.075572871603,474.24935827497393L1599.7040025237948,384.55398611258715Z" fill="#3984be" stroke="#3984be"></path><path d="M1692.1697281580418,293.86449137236923L1599.7040025237948,384.55398611258715L1681.8672857712954,393.97400930989534Z" fill="#427eb8" stroke="#427eb8"></path><path d="M1692.1697281580418,293.86449137236923L1681.8672857712954,393.97400930989534L1775.293286992237,325.3132714983076Z" fill="#487ab4" stroke="#487ab4"></path><path d="M1775.293286992237,325.3132714983076L1681.8672857712954,393.97400930989534L1758.7991556013003,400.70057144388556Z" fill="#3d75b5" stroke="#3d75b5"></path><path d="M1775.293286992237,325.3132714983076L1758.7991556013003,400.70057144388556L1816.2861122656614,410.28718278743327Z" fill="#3b70b3" stroke="#3b70b3"></path><path d="M1775.293286992237,325.3132714983076L1816.2861122656614,410.28718278743327L1839.3351660529152,304.5203587040305Z" fill="#4471b0" stroke="#4471b0"></path><path d="M1839.3351660529152,304.5203587040305L1816.2861122656614,410.28718278743327L1947.8230894356966,427.25142410025Z" fill="#396eaf" stroke="#396eaf"></path><path d="M1839.3351660529152,304.5203587040305L1947.8230894356966,427.25142410025L1959.987191031687,300.07692638318986Z" fill="#4471ab" stroke="#4471ab"></path><path d="M1959.987191031687,300.07692638318986L1947.8230894356966,427.25142410025L2009.034767509438,395.0190393347293Z" fill="#3a6eaa" stroke="#3a6eaa"></path><path d="M1959.987191031687,300.07692638318986L2009.034767509438,395.0190393347293L2050.603845329024,294.47503436822444Z" fill="#4773a6" stroke="#4773a6"></path><path d="M2050.603845329024,294.47503436822444L2009.034767509438,395.0190393347293L2031.3428129302338,477.3268003575504Z" fill="#366da8" stroke="#366da8"></path><path d="M2050.603845329024,294.47503436822444L2031.3428129302338,477.3268003575504L2040.6346883950755,738.6143944133073Z" fill="#2e5aa3" stroke="#2e5aa3"></path><path d="M2050.603845329024,294.47503436822444L2040.6346883950755,738.6143944133073L2052.532538487576,1027.6937678502873Z" fill="#263595" stroke="#263595"></path><path d="M-26.612954358570278,384.80788609944284L-59.80558434035629,580.0769046507776L-25.344673446379602,488.0091268150136Z" fill="#a0ddd9" stroke="#a0ddd9"></path><path d="M-26.612954358570278,384.80788609944284L-25.344673446379602,488.0091268150136L52.90881286840886,470.2416690951213Z" fill="#a3e3d9" stroke="#a3e3d9"></path><path d="M-26.612954358570278,384.80788609944284L52.90881286840886,470.2416690951213L74.15842913556844,406.65763068012893Z" fill="#a0e6d9" stroke="#a0e6d9"></path><path d="M74.15842913556844,406.65763068012893L52.90881286840886,470.2416690951213L131.5639417944476,514.1774033987895Z" fill="#97dcd6" stroke="#97dcd6"></path><path d="M74.15842913556844,406.65763068012893L131.5639417944476,514.1774033987895L131.76536183338612,392.01732298359275Z" fill="#95dfd6" stroke="#95dfd6"></path><path d="M131.76536183338612,392.01732298359275L131.5639417944476,514.1774033987895L247.0710670016706,485.10796076618135Z" fill="#8dd8d3" stroke="#8dd8d3"></path><path d="M131.76536183338612,392.01732298359275L247.0710670016706,485.10796076618135L232.39975260570645,377.0075988583267Z" fill="#8cded4" stroke="#8cded4"></path><path d="M232.39975260570645,377.0075988583267L247.0710670016706,485.10796076618135L306.34097137022763,398.60044746659696Z" fill="#84dbd2" stroke="#84dbd2"></path><path d="M306.34097137022763,398.60044746659696L247.0710670016706,485.10796076618135L288.0154780950397,480.62431710306555Z" fill="#80d4d0" stroke="#80d4d0"></path><path d="M306.34097137022763,398.60044746659696L288.0154780950397,480.62431710306555L383.5830832924694,467.7738657128066Z" fill="#7bd3cf" stroke="#7bd3cf"></path><path d="M306.34097137022763,398.60044746659696L383.5830832924694,467.7738657128066L395.49752371385694,400.08481171913445Z" fill="#78d6cf" stroke="#78d6cf"></path><path d="M395.49752371385694,400.08481171913445L383.5830832924694,467.7738657128066L500.39903983008116,425.4492771998048Z" fill="#6fd1cf" stroke="#6fd1cf"></path><path d="M500.39903983008116,425.4492771998048L383.5830832924694,467.7738657128066L500.84037301596254,472.81422256026417Z" fill="#6accce" stroke="#6accce"></path><path d="M500.39903983008116,425.4492771998048L500.84037301596254,472.81422256026417L583.4438885841519,419.03329920955Z" fill="#62cbd0" stroke="#62cbd0"></path><path d="M583.4438885841519,419.03329920955L500.84037301596254,472.81422256026417L610.6879875808954,511.5573494229466Z" fill="#5cc4d0" stroke="#5cc4d0"></path><path d="M583.4438885841519,419.03329920955L610.6879875808954,511.5573494229466L662.2894962178543,496.5600153570995Z" fill="#54c1d1" stroke="#54c1d1"></path><path d="M583.4438885841519,419.03329920955L662.2894962178543,496.5600153570995L671.651065419428,421.01830675732344Z" fill="#54c5d3" stroke="#54c5d3"></path><path d="M671.651065419428,421.01830675732344L662.2894962178543,496.5600153570995L760.0419812835753,497.20004600007087Z" fill="#4bbed3" stroke="#4bbed3"></path><path d="M671.651065419428,421.01830675732344L760.0419812835753,497.20004600007087L790.5582436406985,396.6311025246978Z" fill="#48c1d5" stroke="#48c1d5"></path><path d="M790.5582436406985,396.6311025246978L760.0419812835753,497.20004600007087L862.8056554868817,502.3787267692387Z" fill="#42b9d4" stroke="#42b9d4"></path><path d="M790.5582436406985,396.6311025246978L862.8056554868817,502.3787267692387L870.0316972984001,394.83182202558964Z" fill="#43bcd5" stroke="#43bcd5"></path><path d="M870.0316972984001,394.83182202558964L862.8056554868817,502.3787267692387L958.0267175054178,511.76838029175997Z" fill="#3fb2d2" stroke="#3fb2d2"></path><path d="M870.0316972984001,394.83182202558964L958.0267175054178,511.76838029175997L963.7643442861736,380.2210029261187Z" fill="#40b6d3" stroke="#40b6d3"></path><path d="M963.7643442861736,380.2210029261187L958.0267175054178,511.76838029175997L1009.8137949686497,423.0753046134487Z" fill="#3fb1d2" stroke="#3fb1d2"></path><path d="M1009.8137949686497,423.0753046134487L958.0267175054178,511.76838029175997L1026.5285020507872,493.8847956061363Z" fill="#3ba9d1" stroke="#3ba9d1"></path><path d="M1009.8137949686497,423.0753046134487L1026.5285020507872,493.8847956061363L1115.5009530577809,413.82724825758487Z" fill="#3cabd1" stroke="#3cabd1"></path><path d="M1115.5009530577809,413.82724825758487L1026.5285020507872,493.8847956061363L1137.8264708071947,505.65471614710987Z" fill="#39a3cf" stroke="#39a3cf"></path><path d="M1115.5009530577809,413.82724825758487L1137.8264708071947,505.65471614710987L1229.1617633309215,406.6665690857917Z" fill="#3aa3cf" stroke="#3aa3cf"></path><path d="M1229.1617633309215,406.6665690857917L1137.8264708071947,505.65471614710987L1207.3312986362725,523.8906549336389Z" fill="#379acc" stroke="#379acc"></path><path d="M1229.1617633309215,406.6665690857917L1207.3312986362725,523.8906549336389L1285.1555182691664,524.2711240751669Z" fill="#3694ca" stroke="#3694ca"></path><path d="M1229.1617633309215,406.6665690857917L1285.1555182691664,524.2711240751669L1284.878163188696,397.6629367377609Z" fill="#3899ca" stroke="#3899ca"></path><path d="M1284.878163188696,397.6629367377609L1285.1555182691664,524.2711240751669L1414.474906953983,503.25616494286805Z" fill="#368dc6" stroke="#368dc6"></path><path d="M1284.878163188696,397.6629367377609L1414.474906953983,503.25616494286805L1411.3639942696318,376.44184998236597Z" fill="#3991c6" stroke="#3991c6"></path><path d="M1411.3639942696318,376.44184998236597L1414.474906953983,503.25616494286805L1460.0527887325734,408.4038008423522Z" fill="#388bc3" stroke="#388bc3"></path><path d="M1460.0527887325734,408.4038008423522L1414.474906953983,503.25616494286805L1508.075572871603,474.24935827497393Z" fill="#3582c0" stroke="#3582c0"></path><path d="M1599.7040025237948,384.55398611258715L1508.075572871603,474.24935827497393L1600.5127463350073,479.9072764115408Z" fill="#357abc" stroke="#357abc"></path><path d="M1599.7040025237948,384.55398611258715L1600.5127463350073,479.9072764115408L1639.0762134594843,488.5848893970251Z" fill="#3575b9" stroke="#3575b9"></path><path d="M1599.7040025237948,384.55398611258715L1639.0762134594843,488.5848893970251L1681.8672857712954,393.97400930989534Z" fill="#3678b9" stroke="#3678b9"></path><path d="M1681.8672857712954,393.97400930989534L1639.0762134594843,488.5848893970251L1756.283542974852,479.5084504550323Z" fill="#346db5" stroke="#346db5"></path><path d="M1681.8672857712954,393.97400930989534L1756.283542974852,479.5084504550323L1758.7991556013003,400.70057144388556Z" fill="#356eb5" stroke="#356eb5"></path><path d="M1758.7991556013003,400.70057144388556L1756.283542974852,479.5084504550323L1816.2861122656614,410.28718278743327Z" fill="#3569b2" stroke="#3569b2"></path><path d="M1816.2861122656614,410.28718278743327L1756.283542974852,479.5084504550323L1855.0184107851237,492.48108740430325Z" fill="#3261b0" stroke="#3261b0"></path><path d="M1816.2861122656614,410.28718278743327L1855.0184107851237,492.48108740430325L1926.763643687591,467.9706787923351Z" fill="#3262ad" stroke="#3262ad"></path><path d="M1816.2861122656614,410.28718278743327L1926.763643687591,467.9706787923351L1947.8230894356966,427.25142410025Z" fill="#3365ad" stroke="#3365ad"></path><path d="M1947.8230894356966,427.25142410025L1926.763643687591,467.9706787923351L2031.3428129302338,477.3268003575504Z" fill="#3162a8" stroke="#3162a8"></path><path d="M1947.8230894356966,427.25142410025L2031.3428129302338,477.3268003575504L2009.034767509438,395.0190393347293Z" fill="#3366a8" stroke="#3366a8"></path><path d="M-25.344673446379602,488.0091268150136L-59.80558434035629,580.0769046507776L18.35585644003004,555.3578816307709Z" fill="#9dd3d6" stroke="#9dd3d6"></path><path d="M-25.344673446379602,488.0091268150136L18.35585644003004,555.3578816307709L52.90881286840886,470.2416690951213Z" fill="#9dd9d6" stroke="#9dd9d6"></path><path d="M52.90881286840886,470.2416690951213L18.35585644003004,555.3578816307709L131.5639417944476,514.1774033987895Z" fill="#96d4d5" stroke="#96d4d5"></path><path d="M131.5639417944476,514.1774033987895L18.35585644003004,555.3578816307709L150.4145667515695,601.8022984452546Z" fill="#8fcbd2" stroke="#8fcbd2"></path><path d="M131.5639417944476,514.1774033987895L150.4145667515695,601.8022984452546L236.18244800716639,571.3214997807518Z" fill="#86c7cf" stroke="#86c7cf"></path><path d="M131.5639417944476,514.1774033987895L236.18244800716639,571.3214997807518L247.0710670016706,485.10796076618135Z" fill="#85ccd0" stroke="#85ccd0"></path><path d="M247.0710670016706,485.10796076618135L236.18244800716639,571.3214997807518L288.0154780950397,480.62431710306555Z" fill="#7fcbcf" stroke="#7fcbcf"></path><path d="M288.0154780950397,480.62431710306555L236.18244800716639,571.3214997807518L332.052361224778,595.2059640130028Z" fill="#79c4cc" stroke="#79c4cc"></path><path d="M288.0154780950397,480.62431710306555L332.052361224778,595.2059640130028L383.5830832924694,467.7738657128066Z" fill="#75c8cc" stroke="#75c8cc"></path><path d="M383.5830832924694,467.7738657128066L332.052361224778,595.2059640130028L421.08817073050886,565.7743103429675Z" fill="#6ec0c9" stroke="#6ec0c9"></path><path d="M383.5830832924694,467.7738657128066L421.08817073050886,565.7743103429675L500.84037301596254,472.81422256026417Z" fill="#6ac5cc" stroke="#6ac5cc"></path><path d="M500.84037301596254,472.81422256026417L421.08817073050886,565.7743103429675L489.7969918465242,597.9178164666519Z" fill="#62bccb" stroke="#62bccb"></path><path d="M500.84037301596254,472.81422256026417L489.7969918465242,597.9178164666519L587.4573858920485,558.7595610832796Z" fill="#5cbacc" stroke="#5cbacc"></path><path d="M500.84037301596254,472.81422256026417L587.4573858920485,558.7595610832796L610.6879875808954,511.5573494229466Z" fill="#58bdcf" stroke="#58bdcf"></path><path d="M610.6879875808954,511.5573494229466L587.4573858920485,558.7595610832796L645.0949146458879,599.1799241071567Z" fill="#50b3ce" stroke="#50b3ce"></path><path d="M610.6879875808954,511.5573494229466L645.0949146458879,599.1799241071567L662.2894962178543,496.5600153570995Z" fill="#4eb5cf" stroke="#4eb5cf"></path><path d="M662.2894962178543,496.5600153570995L645.0949146458879,599.1799241071567L760.0419812835753,497.20004600007087Z" fill="#48b4d0" stroke="#48b4d0"></path><path d="M760.0419812835753,497.20004600007087L645.0949146458879,599.1799241071567L790.4558511078358,562.4219949077815Z" fill="#41aed0" stroke="#41aed0"></path><path d="M760.0419812835753,497.20004600007087L790.4558511078358,562.4219949077815L862.8056554868817,502.3787267692387Z" fill="#3eafd2" stroke="#3eafd2"></path><path d="M862.8056554868817,502.3787267692387L790.4558511078358,562.4219949077815L849.2314478941262,594.9238550104201Z" fill="#3ba8d0" stroke="#3ba8d0"></path><path d="M862.8056554868817,502.3787267692387L849.2314478941262,594.9238550104201L962.0608043018728,572.3512377077714Z" fill="#39a3cf" stroke="#39a3cf"></path><path d="M862.8056554868817,502.3787267692387L962.0608043018728,572.3512377077714L958.0267175054178,511.76838029175997Z" fill="#3aa5cf" stroke="#3aa5cf"></path><path d="M958.0267175054178,511.76838029175997L962.0608043018728,572.3512377077714L1026.5285020507872,493.8847956061363Z" fill="#39a2cf" stroke="#39a2cf"></path><path d="M1026.5285020507872,493.8847956061363L962.0608043018728,572.3512377077714L1034.3007407337427,588.5526617523283Z" fill="#379cce" stroke="#379cce"></path><path d="M1026.5285020507872,493.8847956061363L1034.3007407337427,588.5526617523283L1137.8264708071947,505.65471614710987Z" fill="#369bcd" stroke="#369bcd"></path><path d="M1137.8264708071947,505.65471614710987L1034.3007407337427,588.5526617523283L1123.3625074848533,605.4025401547551Z" fill="#3393cc" stroke="#3393cc"></path><path d="M1137.8264708071947,505.65471614710987L1123.3625074848533,605.4025401547551L1207.3312986362725,523.8906549336389Z" fill="#3392cb" stroke="#3392cb"></path><path d="M1207.3312986362725,523.8906549336389L1123.3625074848533,605.4025401547551L1198.2808804744855,606.1821584030986Z" fill="#318ac9" stroke="#318ac9"></path><path d="M1207.3312986362725,523.8906549336389L1198.2808804744855,606.1821584030986L1300.8215618692338,566.1473297327757Z" fill="#3187c7" stroke="#3187c7"></path><path d="M1207.3312986362725,523.8906549336389L1300.8215618692338,566.1473297327757L1285.1555182691664,524.2711240751669Z" fill="#3289c6" stroke="#3289c6"></path><path d="M1285.1555182691664,524.2711240751669L1300.8215618692338,566.1473297327757L1414.474906953983,503.25616494286805Z" fill="#3283c3" stroke="#3283c3"></path><path d="M1414.474906953983,503.25616494286805L1300.8215618692338,566.1473297327757L1413.0248749209568,600.4185339482501Z" fill="#307ac0" stroke="#307ac0"></path><path d="M1414.474906953983,503.25616494286805L1413.0248749209568,600.4185339482501L1478.7396754464135,561.8138535507023Z" fill="#3075bd" stroke="#3075bd"></path><path d="M1414.474906953983,503.25616494286805L1478.7396754464135,561.8138535507023L1508.075572871603,474.24935827497393Z" fill="#3279be" stroke="#3279be"></path><path d="M1508.075572871603,474.24935827497393L1478.7396754464135,561.8138535507023L1552.0459146425128,606.6024774312973Z" fill="#2f6fba" stroke="#2f6fba"></path><path d="M1508.075572871603,474.24935827497393L1552.0459146425128,606.6024774312973L1600.5127463350073,479.9072764115408Z" fill="#3170b9" stroke="#3170b9"></path><path d="M1600.5127463350073,479.9072764115408L1552.0459146425128,606.6024774312973L1639.0762134594843,488.5848893970251Z" fill="#306ab7" stroke="#306ab7"></path><path d="M1639.0762134594843,488.5848893970251L1552.0459146425128,606.6024774312973L1657.8927077818662,612.0841559814289Z" fill="#2d61b4" stroke="#2d61b4"></path><path d="M1639.0762134594843,488.5848893970251L1657.8927077818662,612.0841559814289L1728.1442869920284,599.7838711598888Z" fill="#2d5cb2" stroke="#2d5cb2"></path><path d="M1639.0762134594843,488.5848893970251L1728.1442869920284,599.7838711598888L1756.283542974852,479.5084504550323Z" fill="#2f60b2" stroke="#2f60b2"></path><path d="M1756.283542974852,479.5084504550323L1728.1442869920284,599.7838711598888L1856.001231665723,558.331232490018Z" fill="#2d55ae" stroke="#2d55ae"></path><path d="M1756.283542974852,479.5084504550323L1856.001231665723,558.331232490018L1855.0184107851237,492.48108740430325Z" fill="#2f59ad" stroke="#2f59ad"></path><path d="M1855.0184107851237,492.48108740430325L1856.001231665723,558.331232490018L1926.763643687591,467.9706787923351Z" fill="#2f59ab" stroke="#2f59ab"></path><path d="M1926.763643687591,467.9706787923351L1856.001231665723,558.331232490018L1938.1031103478745,581.9705587159842Z" fill="#2d54a8" stroke="#2d54a8"></path><path d="M1926.763643687591,467.9706787923351L1938.1031103478745,581.9705587159842L2031.3428129302338,477.3268003575504Z" fill="#2e59a7" stroke="#2e59a7"></path><path d="M2031.3428129302338,477.3268003575504L1938.1031103478745,581.9705587159842L1996.5424824832007,594.8827215889469Z" fill="#2b52a4" stroke="#2b52a4"></path><path d="M2031.3428129302338,477.3268003575504L1996.5424824832007,594.8827215889469L2032.351119602099,657.236862774007Z" fill="#294ea2" stroke="#294ea2"></path><path d="M2031.3428129302338,477.3268003575504L2032.351119602099,657.236862774007L2040.6346883950755,738.6143944133073Z" fill="#27439c" stroke="#27439c"></path><path d="M-59.80558434035629,580.0769046507776L-67.09033483173698,701.6761197242886L52.640492669306695,677.9050890309736Z" fill="#98bcce" stroke="#98bcce"></path><path d="M-59.80558434035629,580.0769046507776L52.640492669306695,677.9050890309736L18.35585644003004,555.3578816307709Z" fill="#99c7d2" stroke="#99c7d2"></path><path d="M18.35585644003004,555.3578816307709L52.640492669306695,677.9050890309736L150.4145667515695,601.8022984452546Z" fill="#90c2cf" stroke="#90c2cf"></path><path d="M150.4145667515695,601.8022984452546L52.640492669306695,677.9050890309736L127.98057880718261,682.896775030531Z" fill="#8bb7c9" stroke="#8bb7c9"></path><path d="M150.4145667515695,601.8022984452546L127.98057880718261,682.896775030531L222.75127376429737,681.3541508512571Z" fill="#84b4c7" stroke="#84b4c7"></path><path d="M150.4145667515695,601.8022984452546L222.75127376429737,681.3541508512571L236.18244800716639,571.3214997807518Z" fill="#80baca" stroke="#80baca"></path><path d="M236.18244800716639,571.3214997807518L222.75127376429737,681.3541508512571L332.052361224778,595.2059640130028Z" fill="#79b8c9" stroke="#79b8c9"></path><path d="M332.052361224778,595.2059640130028L222.75127376429737,681.3541508512571L324.98976442962885,699.9598790332675Z" fill="#74adc3" stroke="#74adc3"></path><path d="M332.052361224778,595.2059640130028L324.98976442962885,699.9598790332675L433.90171609818935,685.0062486855313Z" fill="#6ca9c0" stroke="#6ca9c0"></path><path d="M332.052361224778,595.2059640130028L433.90171609818935,685.0062486855313L421.08817073050886,565.7743103429675Z" fill="#69b2c5" stroke="#69b2c5"></path><path d="M421.08817073050886,565.7743103429675L433.90171609818935,685.0062486855313L489.7969918465242,597.9178164666519Z" fill="#62afc6" stroke="#62afc6"></path><path d="M489.7969918465242,597.9178164666519L433.90171609818935,685.0062486855313L467.37595525570214,689.0292744571343Z" fill="#5fa5c2" stroke="#5fa5c2"></path><path d="M489.7969918465242,597.9178164666519L467.37595525570214,689.0292744571343L610.7359003834426,671.5856259455904Z" fill="#58a3c4" stroke="#58a3c4"></path><path d="M489.7969918465242,597.9178164666519L610.7359003834426,671.5856259455904L587.4573858920485,558.7595610832796Z" fill="#54abc9" stroke="#54abc9"></path><path d="M587.4573858920485,558.7595610832796L610.7359003834426,671.5856259455904L645.0949146458879,599.1799241071567Z" fill="#4da9ca" stroke="#4da9ca"></path><path d="M645.0949146458879,599.1799241071567L610.7359003834426,671.5856259455904L689.762048847042,667.7602434111759Z" fill="#499fc7" stroke="#499fc7"></path><path d="M645.0949146458879,599.1799241071567L689.762048847042,667.7602434111759L790.4558511078358,562.4219949077815Z" fill="#42a5cc" stroke="#42a5cc"></path><path d="M790.4558511078358,562.4219949077815L689.762048847042,667.7602434111759L781.1395219154656,687.7582245413214Z" fill="#3c9bca" stroke="#3c9bca"></path><path d="M790.4558511078358,562.4219949077815L781.1395219154656,687.7582245413214L832.4871867522597,670.210135364905Z" fill="#3998c9" stroke="#3998c9"></path><path d="M790.4558511078358,562.4219949077815L832.4871867522597,670.210135364905L849.2314478941262,594.9238550104201Z" fill="#399ecc" stroke="#399ecc"></path><path d="M849.2314478941262,594.9238550104201L832.4871867522597,670.210135364905L958.7039632676169,648.1545036658645Z" fill="#3793c8" stroke="#3793c8"></path><path d="M849.2314478941262,594.9238550104201L958.7039632676169,648.1545036658645L962.0608043018728,572.3512377077714Z" fill="#3698cb" stroke="#3698cb"></path><path d="M962.0608043018728,572.3512377077714L958.7039632676169,648.1545036658645L1034.3007407337427,588.5526617523283Z" fill="#3494cb" stroke="#3494cb"></path><path d="M1034.3007407337427,588.5526617523283L958.7039632676169,648.1545036658645L1050.0763843394816,699.4220879254863Z" fill="#3388c5" stroke="#3388c5"></path><path d="M1034.3007407337427,588.5526617523283L1050.0763843394816,699.4220879254863L1123.3625074848533,605.4025401547551Z" fill="#3287c6" stroke="#3287c6"></path><path d="M1123.3625074848533,605.4025401547551L1050.0763843394816,699.4220879254863L1115.1443263795227,701.118505387567Z" fill="#307dc2" stroke="#307dc2"></path><path d="M1123.3625074848533,605.4025401547551L1115.1443263795227,701.118505387567L1198.2808804744855,606.1821584030986Z" fill="#2f80c4" stroke="#2f80c4"></path><path d="M1198.2808804744855,606.1821584030986L1115.1443263795227,701.118505387567L1237.8279959829524,702.2828074079007Z" fill="#2e76bf" stroke="#2e76bf"></path><path d="M1198.2808804744855,606.1821584030986L1237.8279959829524,702.2828074079007L1316.7781559564173,678.3745947433636Z" fill="#2e71bd" stroke="#2e71bd"></path><path d="M1198.2808804744855,606.1821584030986L1316.7781559564173,678.3745947433636L1300.8215618692338,566.1473297327757Z" fill="#2f79c1" stroke="#2f79c1"></path><path d="M1300.8215618692338,566.1473297327757L1316.7781559564173,678.3745947433636L1374.6028151130304,672.5795857748017Z" fill="#2e6ebc" stroke="#2e6ebc"></path><path d="M1300.8215618692338,566.1473297327757L1374.6028151130304,672.5795857748017L1413.0248749209568,600.4185339482501Z" fill="#2e71bd" stroke="#2e71bd"></path><path d="M1413.0248749209568,600.4185339482501L1374.6028151130304,672.5795857748017L1475.0615540659055,687.9855863610283Z" fill="#2c62b6" stroke="#2c62b6"></path><path d="M1413.0248749209568,600.4185339482501L1475.0615540659055,687.9855863610283L1478.7396754464135,561.8138535507023Z" fill="#2d67b9" stroke="#2d67b9"></path><path d="M1478.7396754464135,561.8138535507023L1475.0615540659055,687.9855863610283L1552.0459146425128,606.6024774312973Z" fill="#2d62b6" stroke="#2d62b6"></path><path d="M1552.0459146425128,606.6024774312973L1475.0615540659055,687.9855863610283L1554.115618094802,655.2021020231768Z" fill="#2b59b1" stroke="#2b59b1"></path><path d="M1552.0459146425128,606.6024774312973L1554.115618094802,655.2021020231768L1657.8927077818662,612.0841559814289Z" fill="#2b58b1" stroke="#2b58b1"></path><path d="M1657.8927077818662,612.0841559814289L1554.115618094802,655.2021020231768L1693.5931788850576,674.7085049003363Z" fill="#2b4fad" stroke="#2b4fad"></path><path d="M1657.8927077818662,612.0841559814289L1693.5931788850576,674.7085049003363L1728.1442869920284,599.7838711598888Z" fill="#2a4dac" stroke="#2a4dac"></path><path d="M1728.1442869920284,599.7838711598888L1693.5931788850576,674.7085049003363L1774.6483357669786,673.605069424957Z" fill="#2945a8" stroke="#2945a8"></path><path d="M1728.1442869920284,599.7838711598888L1774.6483357669786,673.605069424957L1856.001231665723,558.331232490018Z" fill="#2a48aa" stroke="#2a48aa"></path><path d="M1856.001231665723,558.331232490018L1774.6483357669786,673.605069424957L1863.1902260379866,663.3133269427344Z" fill="#2942a5" stroke="#2942a5"></path><path d="M1856.001231665723,558.331232490018L1863.1902260379866,663.3133269427344L1938.1031103478745,581.9705587159842Z" fill="#2949a6" stroke="#2949a6"></path><path d="M1938.1031103478745,581.9705587159842L1863.1902260379866,663.3133269427344L1937.2480579046533,650.8599225757644Z" fill="#2842a1" stroke="#2842a1"></path><path d="M1938.1031103478745,581.9705587159842L1937.2480579046533,650.8599225757644L1996.5424824832007,594.8827215889469Z" fill="#2847a2" stroke="#2847a2"></path><path d="M1996.5424824832007,594.8827215889469L1937.2480579046533,650.8599225757644L2032.351119602099,657.236862774007Z" fill="#28419e" stroke="#28419e"></path><path d="M-67.09033483173698,701.6761197242886L-64.43507849704474,1038.5066349059343L-31.210618363693357,877.9698705486953Z" fill="#948ab6" stroke="#948ab6"></path><path d="M-67.09033483173698,701.6761197242886L-31.210618363693357,877.9698705486953L-35.7382083311677,743.3371402323246Z" fill="#96a1c1" stroke="#96a1c1"></path><path d="M-67.09033483173698,701.6761197242886L-35.7382083311677,743.3371402323246L52.640492669306695,677.9050890309736Z" fill="#97b0c7" stroke="#97b0c7"></path><path d="M52.640492669306695,677.9050890309736L-35.7382083311677,743.3371402323246L24.147156667895615,781.0711724823341Z" fill="#95a9c3" stroke="#95a9c3"></path><path d="M52.640492669306695,677.9050890309736L24.147156667895615,781.0711724823341L105.98489495459944,791.9847779162228Z" fill="#8fa3c0" stroke="#8fa3c0"></path><path d="M52.640492669306695,677.9050890309736L105.98489495459944,791.9847779162228L127.98057880718261,682.896775030531Z" fill="#8ca9c2" stroke="#8ca9c2"></path><path d="M127.98057880718261,682.896775030531L105.98489495459944,791.9847779162228L228.527886508964,739.38641410321Z" fill="#84a2be" stroke="#84a2be"></path><path d="M127.98057880718261,682.896775030531L228.527886508964,739.38641410321L222.75127376429737,681.3541508512571Z" fill="#80a8c1" stroke="#80a8c1"></path><path d="M222.75127376429737,681.3541508512571L228.527886508964,739.38641410321L285.053816777654,746.5309768309817Z" fill="#79a1bd" stroke="#79a1bd"></path><path d="M222.75127376429737,681.3541508512571L285.053816777654,746.5309768309817L324.98976442962885,699.9598790332675Z" fill="#75a2be" stroke="#75a2be"></path><path d="M324.98976442962885,699.9598790332675L285.053816777654,746.5309768309817L405.4711986333132,787.1423377655447Z" fill="#6d97b8" stroke="#6d97b8"></path><path d="M324.98976442962885,699.9598790332675L405.4711986333132,787.1423377655447L433.90171609818935,685.0062486855313Z" fill="#679ab9" stroke="#679ab9"></path><path d="M433.90171609818935,685.0062486855313L405.4711986333132,787.1423377655447L467.37595525570214,689.0292744571343Z" fill="#6298ba" stroke="#6298ba"></path><path d="M467.37595525570214,689.0292744571343L405.4711986333132,787.1423377655447L524.7876564133912,768.3103675302118Z" fill="#5d90b8" stroke="#5d90b8"></path><path d="M467.37595525570214,689.0292744571343L524.7876564133912,768.3103675302118L610.7359003834426,671.5856259455904Z" fill="#5596bd" stroke="#5596bd"></path><path d="M610.7359003834426,671.5856259455904L524.7876564133912,768.3103675302118L598.563622282818,760.8096688566729Z" fill="#4f8fbc" stroke="#4f8fbc"></path><path d="M610.7359003834426,671.5856259455904L598.563622282818,760.8096688566729L676.5405272087082,771.0997651191428Z" fill="#498cbd" stroke="#498cbd"></path><path d="M610.7359003834426,671.5856259455904L676.5405272087082,771.0997651191428L689.762048847042,667.7602434111759Z" fill="#4691c1" stroke="#4691c1"></path><path d="M689.762048847042,667.7602434111759L676.5405272087082,771.0997651191428L745.2648243354633,738.7185813719407Z" fill="#408abf" stroke="#408abf"></path><path d="M689.762048847042,667.7602434111759L745.2648243354633,738.7185813719407L781.1395219154656,687.7582245413214Z" fill="#3c8fc3" stroke="#3c8fc3"></path><path d="M781.1395219154656,687.7582245413214L745.2648243354633,738.7185813719407L846.0819579474628,764.6477307798341Z" fill="#3785c0" stroke="#3785c0"></path><path d="M781.1395219154656,687.7582245413214L846.0819579474628,764.6477307798341L832.4871867522597,670.210135364905Z" fill="#3788c2" stroke="#3788c2"></path><path d="M832.4871867522597,670.210135364905L846.0819579474628,764.6477307798341L930.0473353592679,771.4675038121641Z" fill="#357ebe" stroke="#357ebe"></path><path d="M832.4871867522597,670.210135364905L930.0473353592679,771.4675038121641L958.7039632676169,648.1545036658645Z" fill="#3584c2" stroke="#3584c2"></path><path d="M958.7039632676169,648.1545036658645L930.0473353592679,771.4675038121641L1015.8972689928487,778.8581620529294Z" fill="#3277bd" stroke="#3277bd"></path><path d="M958.7039632676169,648.1545036658645L1015.8972689928487,778.8581620529294L1050.0763843394816,699.4220879254863Z" fill="#327abe" stroke="#327abe"></path><path d="M1050.0763843394816,699.4220879254863L1015.8972689928487,778.8581620529294L1144.7083719586954,774.9630265077576Z" fill="#2f6cb9" stroke="#2f6cb9"></path><path d="M1050.0763843394816,699.4220879254863L1144.7083719586954,774.9630265077576L1115.1443263795227,701.118505387567Z" fill="#2f6fbc" stroke="#2f6fbc"></path><path d="M1115.1443263795227,701.118505387567L1144.7083719586954,774.9630265077576L1237.8279959829524,702.2828074079007Z" fill="#2d6aba" stroke="#2d6aba"></path><path d="M1237.8279959829524,702.2828074079007L1144.7083719586954,774.9630265077576L1238.5295989690349,762.5226910365745Z" fill="#2c62b6" stroke="#2c62b6"></path><path d="M1237.8279959829524,702.2828074079007L1238.5295989690349,762.5226910365745L1290.084721678868,736.781617552042Z" fill="#2c60b5" stroke="#2c60b5"></path><path d="M1237.8279959829524,702.2828074079007L1290.084721678868,736.781617552042L1316.7781559564173,678.3745947433636Z" fill="#2d64b7" stroke="#2d64b7"></path><path d="M1316.7781559564173,678.3745947433636L1290.084721678868,736.781617552042L1404.6793740894645,749.0429822355509Z" fill="#2c5bb3" stroke="#2c5bb3"></path><path d="M1316.7781559564173,678.3745947433636L1404.6793740894645,749.0429822355509L1374.6028151130304,672.5795857748017Z" fill="#2c5db3" stroke="#2c5db3"></path><path d="M1374.6028151130304,672.5795857748017L1404.6793740894645,749.0429822355509L1475.0615540659055,687.9855863610283Z" fill="#2b57b1" stroke="#2b57b1"></path><path d="M1475.0615540659055,687.9855863610283L1404.6793740894645,749.0429822355509L1502.0789838815108,779.7242663009092Z" fill="#2a4bab" stroke="#2a4bab"></path><path d="M1475.0615540659055,687.9855863610283L1502.0789838815108,779.7242663009092L1590.8385498030111,739.899790501222Z" fill="#2a46a8" stroke="#2a46a8"></path><path d="M1475.0615540659055,687.9855863610283L1590.8385498030111,739.899790501222L1554.115618094802,655.2021020231768Z" fill="#2b4dac" stroke="#2b4dac"></path><path d="M1554.115618094802,655.2021020231768L1590.8385498030111,739.899790501222L1693.5931788850576,674.7085049003363Z" fill="#2a47a9" stroke="#2a47a9"></path><path d="M1693.5931788850576,674.7085049003363L1590.8385498030111,739.899790501222L1646.967148105614,766.7610989045352Z" fill="#293ba3" stroke="#293ba3"></path><path d="M1693.5931788850576,674.7085049003363L1646.967148105614,766.7610989045352L1769.0324844047427,745.8466223347932Z" fill="#2835a0" stroke="#2835a0"></path><path d="M1693.5931788850576,674.7085049003363L1769.0324844047427,745.8466223347932L1774.6483357669786,673.605069424957Z" fill="#2838a2" stroke="#2838a2"></path><path d="M1774.6483357669786,673.605069424957L1769.0324844047427,745.8466223347932L1840.8484667306766,740.053933239542Z" fill="#282e9d" stroke="#282e9d"></path><path d="M1774.6483357669786,673.605069424957L1840.8484667306766,740.053933239542L1863.1902260379866,663.3133269427344Z" fill="#28349f" stroke="#28349f"></path><path d="M1863.1902260379866,663.3133269427344L1840.8484667306766,740.053933239542L1918.6677191220224,753.3579323999584Z" fill="#272e99" stroke="#272e99"></path><path d="M1863.1902260379866,663.3133269427344L1918.6677191220224,753.3579323999584L1937.2480579046533,650.8599225757644Z" fill="#27359b" stroke="#27359b"></path><path d="M1937.2480579046533,650.8599225757644L1918.6677191220224,753.3579323999584L2040.6346883950755,738.6143944133073Z" fill="#262f96" stroke="#262f96"></path><path d="M1937.2480579046533,650.8599225757644L2040.6346883950755,738.6143944133073L2032.351119602099,657.236862774007Z" fill="#263697" stroke="#263697"></path><path d="M-35.7382083311677,743.3371402323246L-31.210618363693357,877.9698705486953L24.147156667895615,781.0711724823341Z" fill="#959bbd" stroke="#959bbd"></path><path d="M24.147156667895615,781.0711724823341L-31.210618363693357,877.9698705486953L21.906873928382993,866.598411644809Z" fill="#9491b8" stroke="#9491b8"></path><path d="M24.147156667895615,781.0711724823341L21.906873928382993,866.598411644809L105.98489495459944,791.9847779162228Z" fill="#8f95b9" stroke="#8f95b9"></path><path d="M105.98489495459944,791.9847779162228L21.906873928382993,866.598411644809L145.35967784933746,860.1115477178246Z" fill="#8a8db5" stroke="#8a8db5"></path><path d="M105.98489495459944,791.9847779162228L145.35967784933746,860.1115477178246L228.527886508964,739.38641410321Z" fill="#8294b8" stroke="#8294b8"></path><path d="M228.527886508964,739.38641410321L145.35967784933746,860.1115477178246L216.6676566330716,873.5079474980012Z" fill="#7d8cb4" stroke="#7d8cb4"></path><path d="M228.527886508964,739.38641410321L216.6676566330716,873.5079474980012L286.49222237057984,850.7686346350238Z" fill="#778ab3" stroke="#778ab3"></path><path d="M228.527886508964,739.38641410321L286.49222237057984,850.7686346350238L285.053816777654,746.5309768309817Z" fill="#7593b6" stroke="#7593b6"></path><path d="M285.053816777654,746.5309768309817L286.49222237057984,850.7686346350238L405.4711986333132,787.1423377655447Z" fill="#6e8db3" stroke="#6e8db3"></path><path d="M405.4711986333132,787.1423377655447L286.49222237057984,850.7686346350238L421.98577139060944,846.5914180409163Z" fill="#6783ae" stroke="#6783ae"></path><path d="M405.4711986333132,787.1423377655447L421.98577139060944,846.5914180409163L524.7876564133912,768.3103675302118Z" fill="#5e85b2" stroke="#5e85b2"></path><path d="M524.7876564133912,768.3103675302118L421.98577139060944,846.5914180409163L508.27536328230053,857.7718801656738Z" fill="#597eb0" stroke="#597eb0"></path><path d="M524.7876564133912,768.3103675302118L508.27536328230053,857.7718801656738L597.0547151332721,863.8280533254147Z" fill="#527ab1" stroke="#527ab1"></path><path d="M524.7876564133912,768.3103675302118L597.0547151332721,863.8280533254147L598.563622282818,760.8096688566729Z" fill="#4f80b5" stroke="#4f80b5"></path><path d="M598.563622282818,760.8096688566729L597.0547151332721,863.8280533254147L651.9006255827844,865.5491901375353Z" fill="#4977b2" stroke="#4977b2"></path><path d="M598.563622282818,760.8096688566729L651.9006255827844,865.5491901375353L676.5405272087082,771.0997651191428Z" fill="#467db6" stroke="#467db6"></path><path d="M676.5405272087082,771.0997651191428L651.9006255827844,865.5491901375353L743.4296730346978,844.178823181428Z" fill="#3f74b4" stroke="#3f74b4"></path><path d="M676.5405272087082,771.0997651191428L743.4296730346978,844.178823181428L745.2648243354633,738.7185813719407Z" fill="#3d7cb9" stroke="#3d7cb9"></path><path d="M745.2648243354633,738.7185813719407L743.4296730346978,844.178823181428L846.0819579474628,764.6477307798341Z" fill="#367aba" stroke="#367aba"></path><path d="M846.0819579474628,764.6477307798341L743.4296730346978,844.178823181428L875.4739973740652,880.6157390680164Z" fill="#346cb4" stroke="#346cb4"></path><path d="M846.0819579474628,764.6477307798341L875.4739973740652,880.6157390680164L930.0473353592679,771.4675038121641Z" fill="#336db6" stroke="#336db6"></path><path d="M930.0473353592679,771.4675038121641L875.4739973740652,880.6157390680164L971.8272801116109,876.2985757738352Z" fill="#3161b1" stroke="#3161b1"></path><path d="M930.0473353592679,771.4675038121641L971.8272801116109,876.2985757738352L1007.6013474538922,847.6174121769145Z" fill="#3061b2" stroke="#3061b2"></path><path d="M930.0473353592679,771.4675038121641L1007.6013474538922,847.6174121769145L1015.8972689928487,778.8581620529294Z" fill="#3067b5" stroke="#3067b5"></path><path d="M1015.8972689928487,778.8581620529294L1007.6013474538922,847.6174121769145L1099.592890511267,866.1331584630534Z" fill="#2e5cb1" stroke="#2e5cb1"></path><path d="M1015.8972689928487,778.8581620529294L1099.592890511267,866.1331584630534L1144.7083719586954,774.9630265077576Z" fill="#2e5eb3" stroke="#2e5eb3"></path><path d="M1144.7083719586954,774.9630265077576L1099.592890511267,866.1331584630534L1186.1630523344502,842.8472184436396Z" fill="#2b55af" stroke="#2b55af"></path><path d="M1144.7083719586954,774.9630265077576L1186.1630523344502,842.8472184436396L1238.5295989690349,762.5226910365745Z" fill="#2c59b1" stroke="#2c59b1"></path><path d="M1238.5295989690349,762.5226910365745L1186.1630523344502,842.8472184436396L1282.1257152920589,835.1391155133024Z" fill="#2b50ad" stroke="#2b50ad"></path><path d="M1238.5295989690349,762.5226910365745L1282.1257152920589,835.1391155133024L1290.084721678868,736.781617552042Z" fill="#2b54af" stroke="#2b54af"></path><path d="M1290.084721678868,736.781617552042L1282.1257152920589,835.1391155133024L1404.6793740894645,749.0429822355509Z" fill="#2b50ad" stroke="#2b50ad"></path><path d="M1404.6793740894645,749.0429822355509L1282.1257152920589,835.1391155133024L1408.7076596869156,830.8696611598134Z" fill="#2a45a8" stroke="#2a45a8"></path><path d="M1404.6793740894645,749.0429822355509L1408.7076596869156,830.8696611598134L1502.0789838815108,779.7242663009092Z" fill="#2a42a6" stroke="#2a42a6"></path><path d="M1502.0789838815108,779.7242663009092L1408.7076596869156,830.8696611598134L1499.5701012108475,868.8036578614265Z" fill="#2836a0" stroke="#2836a0"></path><path d="M1502.0789838815108,779.7242663009092L1499.5701012108475,868.8036578614265L1577.0599673688412,828.4338619373739Z" fill="#28319e" stroke="#28319e"></path><path d="M1502.0789838815108,779.7242663009092L1577.0599673688412,828.4338619373739L1590.8385498030111,739.899790501222Z" fill="#2937a1" stroke="#2937a1"></path><path d="M1590.8385498030111,739.899790501222L1577.0599673688412,828.4338619373739L1646.967148105614,766.7610989045352Z" fill="#2834a0" stroke="#2834a0"></path><path d="M1646.967148105614,766.7610989045352L1577.0599673688412,828.4338619373739L1679.3060548743233,850.0486219581217Z" fill="#27299a" stroke="#27299a"></path><path d="M1646.967148105614,766.7610989045352L1679.3060548743233,850.0486219581217L1769.0324844047427,745.8466223347932Z" fill="#27289a" stroke="#27289a"></path><path d="M1769.0324844047427,745.8466223347932L1679.3060548743233,850.0486219581217L1757.8610186325386,864.7266810480505Z" fill="#261d95" stroke="#261d95"></path><path d="M1769.0324844047427,745.8466223347932L1757.8610186325386,864.7266810480505L1867.6387321343645,834.7206542082131Z" fill="#261992" stroke="#261992"></path><path d="M1769.0324844047427,745.8466223347932L1867.6387321343645,834.7206542082131L1840.8484667306766,740.053933239542Z" fill="#262196" stroke="#262196"></path><path d="M1840.8484667306766,740.053933239542L1867.6387321343645,834.7206542082131L1918.6677191220224,753.3579323999584Z" fill="#262193" stroke="#262193"></path><path d="M1918.6677191220224,753.3579323999584L1867.6387321343645,834.7206542082131L1936.0477662971243,856.179283359088Z" fill="#25188d" stroke="#25188d"></path><path d="M1918.6677191220224,753.3579323999584L1936.0477662971243,856.179283359088L2041.1644003679976,841.8002597708255Z" fill="#24188b" stroke="#24188b"></path><path d="M1918.6677191220224,753.3579323999584L2041.1644003679976,841.8002597708255L2040.6346883950755,738.6143944133073Z" fill="#25208d" stroke="#25208d"></path><path d="M2040.6346883950755,738.6143944133073L2041.1644003679976,841.8002597708255L2052.532538487576,1027.6937678502873Z" fill="#220c81" stroke="#220c81"></path><path d="M-31.210618363693357,877.9698705486953L-64.43507849704474,1038.5066349059343L-37.066462081857026,950.2048777230084Z" fill="#9280ad" stroke="#9280ad"></path><path d="M-31.210618363693357,877.9698705486953L-37.066462081857026,950.2048777230084L21.906873928382993,866.598411644809Z" fill="#9385b2" stroke="#9385b2"></path><path d="M21.906873928382993,866.598411644809L-37.066462081857026,950.2048777230084L62.39233736414462,943.8190976064652Z" fill="#917faf" stroke="#917faf"></path><path d="M21.906873928382993,866.598411644809L62.39233736414462,943.8190976064652L145.35967784933746,860.1115477178246Z" fill="#8a83b0" stroke="#8a83b0"></path><path d="M145.35967784933746,860.1115477178246L62.39233736414462,943.8190976064652L107.24838041234761,953.7895376700908Z" fill="#867bac" stroke="#867bac"></path><path d="M145.35967784933746,860.1115477178246L107.24838041234761,953.7895376700908L208.16605229862034,955.0354374339804Z" fill="#8078aa" stroke="#8078aa"></path><path d="M145.35967784933746,860.1115477178246L208.16605229862034,955.0354374339804L216.6676566330716,873.5079474980012Z" fill="#7c7cac" stroke="#7c7cac"></path><path d="M216.6676566330716,873.5079474980012L208.16605229862034,955.0354374339804L329.9654707079753,935.4438884742558Z" fill="#7474a7" stroke="#7474a7"></path><path d="M216.6676566330716,873.5079474980012L329.9654707079753,935.4438884742558L286.49222237057984,850.7686346350238Z" fill="#727aaa" stroke="#727aaa"></path><path d="M286.49222237057984,850.7686346350238L329.9654707079753,935.4438884742558L421.98577139060944,846.5914180409163Z" fill="#6979a9" stroke="#6979a9"></path><path d="M421.98577139060944,846.5914180409163L329.9654707079753,935.4438884742558L395.7354052690789,968.8573355320841Z" fill="#646ea4" stroke="#646ea4"></path><path d="M421.98577139060944,846.5914180409163L395.7354052690789,968.8573355320841L476.29834574181587,971.1975281964988Z" fill="#5e6ba3" stroke="#5e6ba3"></path><path d="M421.98577139060944,846.5914180409163L476.29834574181587,971.1975281964988L508.27536328230053,857.7718801656738Z" fill="#5a70a8" stroke="#5a70a8"></path><path d="M508.27536328230053,857.7718801656738L476.29834574181587,971.1975281964988L604.0930423373356,936.2257365463302Z" fill="#5266a6" stroke="#5266a6"></path><path d="M508.27536328230053,857.7718801656738L604.0930423373356,936.2257365463302L597.0547151332721,863.8280533254147Z" fill="#4e6cab" stroke="#4e6cab"></path><path d="M597.0547151332721,863.8280533254147L604.0930423373356,936.2257365463302L651.9006255827844,865.5491901375353Z" fill="#4869ac" stroke="#4869ac"></path><path d="M651.9006255827844,865.5491901375353L604.0930423373356,936.2257365463302L673.8207795890048,926.6815336234868Z" fill="#4464aa" stroke="#4464aa"></path><path d="M651.9006255827844,865.5491901375353L673.8207795890048,926.6815336234868L743.4296730346978,844.178823181428Z" fill="#3f68ae" stroke="#3f68ae"></path><path d="M743.4296730346978,844.178823181428L673.8207795890048,926.6815336234868L773.8476830301806,921.4797191089019Z" fill="#3962ad" stroke="#3962ad"></path><path d="M743.4296730346978,844.178823181428L773.8476830301806,921.4797191089019L875.4739973740652,880.6157390680164Z" fill="#3462af" stroke="#3462af"></path><path d="M875.4739973740652,880.6157390680164L773.8476830301806,921.4797191089019L850.0159644987434,951.7839562520385Z" fill="#3257aa" stroke="#3257aa"></path><path d="M875.4739973740652,880.6157390680164L850.0159644987434,951.7839562520385L940.3307495545596,938.4280073968694Z" fill="#3053a9" stroke="#3053a9"></path><path d="M875.4739973740652,880.6157390680164L940.3307495545596,938.4280073968694L971.8272801116109,876.2985757738352Z" fill="#3055ab" stroke="#3055ab"></path><path d="M971.8272801116109,876.2985757738352L940.3307495545596,938.4280073968694L1061.4762738207355,969.9514944897965Z" fill="#2e4ba7" stroke="#2e4ba7"></path><path d="M971.8272801116109,876.2985757738352L1061.4762738207355,969.9514944897965L1007.6013474538922,847.6174121769145Z" fill="#2e4faa" stroke="#2e4faa"></path><path d="M1007.6013474538922,847.6174121769145L1061.4762738207355,969.9514944897965L1099.592890511267,866.1331584630534Z" fill="#2c4caa" stroke="#2c4caa"></path><path d="M1099.592890511267,866.1331584630534L1061.4762738207355,969.9514944897965L1127.9335994739085,921.4196029119194Z" fill="#2b44a6" stroke="#2b44a6"></path><path d="M1099.592890511267,866.1331584630534L1127.9335994739085,921.4196029119194L1186.1630523344502,842.8472184436396Z" fill="#2b4aaa" stroke="#2b4aaa"></path><path d="M1186.1630523344502,842.8472184436396L1127.9335994739085,921.4196029119194L1244.2253015516326,966.960951089859Z" fill="#293ea5" stroke="#293ea5"></path><path d="M1186.1630523344502,842.8472184436396L1244.2253015516326,966.960951089859L1282.1257152920589,835.1391155133024Z" fill="#2940a5" stroke="#2940a5"></path><path d="M1282.1257152920589,835.1391155133024L1244.2253015516326,966.960951089859L1330.3775232145563,942.5902781356126Z" fill="#29349f" stroke="#29349f"></path><path d="M1282.1257152920589,835.1391155133024L1330.3775232145563,942.5902781356126L1408.7076596869156,830.8696611598134Z" fill="#2939a2" stroke="#2939a2"></path><path d="M1408.7076596869156,830.8696611598134L1330.3775232145563,942.5902781356126L1401.8487914465368,928.838172275573Z" fill="#282e9d" stroke="#282e9d"></path><path d="M1408.7076596869156,830.8696611598134L1401.8487914465368,928.838172275573L1499.5701012108475,868.8036578614265Z" fill="#282e9d" stroke="#282e9d"></path><path d="M1499.5701012108475,868.8036578614265L1401.8487914465368,928.838172275573L1473.896896848455,974.3172275042161Z" fill="#262296" stroke="#262296"></path><path d="M1499.5701012108475,868.8036578614265L1473.896896848455,974.3172275042161L1550.1127667119727,928.6831797240302Z" fill="#261d94" stroke="#261d94"></path><path d="M1499.5701012108475,868.8036578614265L1550.1127667119727,928.6831797240302L1577.0599673688412,828.4338619373739Z" fill="#272498" stroke="#272498"></path><path d="M1577.0599673688412,828.4338619373739L1550.1127667119727,928.6831797240302L1679.3060548743233,850.0486219581217Z" fill="#261f96" stroke="#261f96"></path><path d="M1679.3060548743233,850.0486219581217L1550.1127667119727,928.6831797240302L1637.7741516334936,968.991484916769Z" fill="#251390" stroke="#251390"></path><path d="M1679.3060548743233,850.0486219581217L1637.7741516334936,968.991484916769L1730.5165544897318,924.8773107631132Z" fill="#250d8d" stroke="#250d8d"></path><path d="M1679.3060548743233,850.0486219581217L1730.5165544897318,924.8773107631132L1757.8610186325386,864.7266810480505Z" fill="#25118f" stroke="#25118f"></path><path d="M1757.8610186325386,864.7266810480505L1730.5165544897318,924.8773107631132L1873.6414844496176,931.2778489803895Z" fill="#240589" stroke="#240589"></path><path d="M1757.8610186325386,864.7266810480505L1873.6414844496176,931.2778489803895L1867.6387321343645,834.7206542082131Z" fill="#240a8a" stroke="#240a8a"></path><path d="M1867.6387321343645,834.7206542082131L1873.6414844496176,931.2778489803895L1936.0477662971243,856.179283359088Z" fill="#240b88" stroke="#240b88"></path><path d="M1936.0477662971243,856.179283359088L1873.6414844496176,931.2778489803895L1933.9069378282875,954.5983289508149Z" fill="#230282" stroke="#230282"></path><path d="M1936.0477662971243,856.179283359088L1933.9069378282875,954.5983289508149L2027.6866250066087,960.1917925011367Z" fill="#22007f" stroke="#22007f"></path><path d="M1936.0477662971243,856.179283359088L2027.6866250066087,960.1917925011367L2041.1644003679976,841.8002597708255Z" fill="#230881" stroke="#230881"></path><path d="M2041.1644003679976,841.8002597708255L2027.6866250066087,960.1917925011367L2052.532538487576,1027.6937678502873Z" fill="#210079" stroke="#210079"></path><path d="M-37.066462081857026,950.2048777230084L-64.43507849704474,1038.5066349059343L41.666881260462105,1032.4832769250497Z" fill="#9180a6" stroke="#9180a6"></path><path d="M-37.066462081857026,950.2048777230084L41.666881260462105,1032.4832769250497L62.39233736414462,943.8190976064652Z" fill="#8f7fa9" stroke="#8f7fa9"></path><path d="M62.39233736414462,943.8190976064652L41.666881260462105,1032.4832769250497L113.229053998366,1016.7903057066724Z" fill="#887ca4" stroke="#887ca4"></path><path d="M62.39233736414462,943.8190976064652L113.229053998366,1016.7903057066724L107.24838041234761,953.7895376700908Z" fill="#867ba7" stroke="#867ba7"></path><path d="M107.24838041234761,953.7895376700908L113.229053998366,1016.7903057066724L208.16605229862034,955.0354374339804Z" fill="#8079a5" stroke="#8079a5"></path><path d="M208.16605229862034,955.0354374339804L113.229053998366,1016.7903057066724L238.9087597746402,1031.8055466748774Z" fill="#7a77a0" stroke="#7a77a0"></path><path d="M208.16605229862034,955.0354374339804L238.9087597746402,1031.8055466748774L329.9654707079753,935.4438884742558Z" fill="#7273a1" stroke="#7273a1"></path><path d="M329.9654707079753,935.4438884742558L238.9087597746402,1031.8055466748774L321.5280113182962,1043.317809663713Z" fill="#6d719d" stroke="#6d719d"></path><path d="M329.9654707079753,935.4438884742558L321.5280113182962,1043.317809663713L395.7354052690789,968.8573355320841Z" fill="#676f9d" stroke="#676f9d"></path><path d="M395.7354052690789,968.8573355320841L321.5280113182962,1043.317809663713L422.06693151500076,1019.0102730737999Z" fill="#636d99" stroke="#636d99"></path><path d="M395.7354052690789,968.8573355320841L422.06693151500076,1019.0102730737999L476.29834574181587,971.1975281964988Z" fill="#5d6b9d" stroke="#5d6b9d"></path><path d="M476.29834574181587,971.1975281964988L422.06693151500076,1019.0102730737999L511.8793460307643,1062.6986282737926Z" fill="#57699b" stroke="#57699b"></path><path d="M476.29834574181587,971.1975281964988L511.8793460307643,1062.6986282737926L570.28050692752,1055.2942118933424Z" fill="#51679a" stroke="#51679a"></path><path d="M476.29834574181587,971.1975281964988L570.28050692752,1055.2942118933424L604.0930423373356,936.2257365463302Z" fill="#4e659f" stroke="#4e659f"></path><path d="M604.0930423373356,936.2257365463302L570.28050692752,1055.2942118933424L703.8311967719346,1015.5391481984407Z" fill="#44629f" stroke="#44629f"></path><path d="M604.0930423373356,936.2257365463302L703.8311967719346,1015.5391481984407L673.8207795890048,926.6815336234868Z" fill="#4160a5" stroke="#4160a5"></path><path d="M673.8207795890048,926.6815336234868L703.8311967719346,1015.5391481984407L773.8476830301806,921.4797191089019Z" fill="#3a5ea6" stroke="#3a5ea6"></path><path d="M773.8476830301806,921.4797191089019L703.8311967719346,1015.5391481984407L783.8863256340846,1012.6440059160814Z" fill="#355ca4" stroke="#355ca4"></path><path d="M773.8476830301806,921.4797191089019L783.8863256340846,1012.6440059160814L850.0159644987434,951.7839562520385Z" fill="#3259a6" stroke="#3259a6"></path><path d="M850.0159644987434,951.7839562520385L783.8863256340846,1012.6440059160814L832.6513576554134,1014.9877253640443Z" fill="#3157a2" stroke="#3157a2"></path><path d="M850.0159644987434,951.7839562520385L832.6513576554134,1014.9877253640443L958.4978976845741,1019.787630639039Z" fill="#2f53a1" stroke="#2f53a1"></path><path d="M850.0159644987434,951.7839562520385L958.4978976845741,1019.787630639039L940.3307495545596,938.4280073968694Z" fill="#2f51a3" stroke="#2f51a3"></path><path d="M940.3307495545596,938.4280073968694L958.4978976845741,1019.787630639039L1061.4762738207355,969.9514944897965Z" fill="#2d4ca2" stroke="#2d4ca2"></path><path d="M1061.4762738207355,969.9514944897965L958.4978976845741,1019.787630639039L1050.8999785361812,1059.1535075521097Z" fill="#2b499d" stroke="#2b499d"></path><path d="M1061.4762738207355,969.9514944897965L1050.8999785361812,1059.1535075521097L1133.6504021985456,1009.7645690850914Z" fill="#2a459c" stroke="#2a459c"></path><path d="M1061.4762738207355,969.9514944897965L1133.6504021985456,1009.7645690850914L1127.9335994739085,921.4196029119194Z" fill="#2943a1" stroke="#2943a1"></path><path d="M1127.9335994739085,921.4196029119194L1133.6504021985456,1009.7645690850914L1244.2253015516326,966.960951089859Z" fill="#293e9f" stroke="#293e9f"></path><path d="M1244.2253015516326,966.960951089859L1133.6504021985456,1009.7645690850914L1195.7368077524006,1052.368340184912Z" fill="#273c99" stroke="#273c99"></path><path d="M1244.2253015516326,966.960951089859L1195.7368077524006,1052.368340184912L1325.3018939495087,1043.342374758795Z" fill="#263695" stroke="#263695"></path><path d="M1244.2253015516326,966.960951089859L1325.3018939495087,1043.342374758795L1330.3775232145563,942.5902781356126Z" fill="#273197" stroke="#273197"></path><path d="M1330.3775232145563,942.5902781356126L1325.3018939495087,1043.342374758795L1387.6018044585362,1035.1581504335627Z" fill="#262d93" stroke="#262d93"></path><path d="M1330.3775232145563,942.5902781356126L1387.6018044585362,1035.1581504335627L1401.8487914465368,928.838172275573Z" fill="#262a95" stroke="#262a95"></path><path d="M1401.8487914465368,928.838172275573L1387.6018044585362,1035.1581504335627L1473.896896848455,974.3172275042161Z" fill="#262592" stroke="#262592"></path><path d="M1473.896896848455,974.3172275042161L1387.6018044585362,1035.1581504335627L1488.7643105071038,1058.1003911560401Z" fill="#25238c" stroke="#25238c"></path><path d="M1473.896896848455,974.3172275042161L1488.7643105071038,1058.1003911560401L1584.6909295208752,1010.8342153765261Z" fill="#241c8a" stroke="#241c8a"></path><path d="M1473.896896848455,974.3172275042161L1584.6909295208752,1010.8342153765261L1550.1127667119727,928.6831797240302Z" fill="#251a8e" stroke="#251a8e"></path><path d="M1550.1127667119727,928.6831797240302L1584.6909295208752,1010.8342153765261L1637.7741516334936,968.991484916769Z" fill="#24158b" stroke="#24158b"></path><path d="M1637.7741516334936,968.991484916769L1584.6909295208752,1010.8342153765261L1686.0024607786909,1049.777482948266Z" fill="#231085" stroke="#231085"></path><path d="M1637.7741516334936,968.991484916769L1686.0024607786909,1049.777482948266L1730.5165544897318,924.8773107631132Z" fill="#230c86" stroke="#230c86"></path><path d="M1730.5165544897318,924.8773107631132L1686.0024607786909,1049.777482948266L1782.2389427712187,1021.5206617070362Z" fill="#220782" stroke="#220782"></path><path d="M1730.5165544897318,924.8773107631132L1782.2389427712187,1021.5206617070362L1873.6414844496176,931.2778489803895Z" fill="#230183" stroke="#230183"></path><path d="M1873.6414844496176,931.2778489803895L1782.2389427712187,1021.5206617070362L1836.8157065659761,1058.4917914448306Z" fill="#22007c" stroke="#22007c"></path><path d="M1873.6414844496176,931.2778489803895L1836.8157065659761,1058.4917914448306L1933.9069378282875,954.5983289508149Z" fill="#22007c" stroke="#22007c"></path><path d="M1933.9069378282875,954.5983289508149L1836.8157065659761,1058.4917914448306L1961.5559790842235,1023.7944478075951Z" fill="#210078" stroke="#210078"></path><path d="M1933.9069378282875,954.5983289508149L1961.5559790842235,1023.7944478075951L2027.6866250066087,960.1917925011367Z" fill="#210078" stroke="#210078"></path><path d="M2027.6866250066087,960.1917925011367L1961.5559790842235,1023.7944478075951L2052.532538487576,1027.6937678502873Z" fill="#200074" stroke="#200074"></path><path d="M-64.43507849704474,1038.5066349059343L511.8793460307643,1062.6986282737926L321.5280113182962,1043.317809663713Z" fill="#717399" stroke="#717399"></path><path d="M-64.43507849704474,1038.5066349059343L321.5280113182962,1043.317809663713L41.666881260462105,1032.4832769250497Z" fill="#857b9f" stroke="#857b9f"></path><path d="M41.666881260462105,1032.4832769250497L321.5280113182962,1043.317809663713L238.9087597746402,1031.8055466748774Z" fill="#78769c" stroke="#78769c"></path><path d="M41.666881260462105,1032.4832769250497L238.9087597746402,1031.8055466748774L113.229053998366,1016.7903057066724Z" fill="#81799f" stroke="#81799f"></path><path d="M321.5280113182962,1043.317809663713L511.8793460307643,1062.6986282737926L422.06693151500076,1019.0102730737999Z" fill="#5d6c96" stroke="#5d6c96"></path><path d="M511.8793460307643,1062.6986282737926L1836.8157065659761,1058.4917914448306L1050.8999785361812,1059.1535075521097Z" fill="#274196" stroke="#274196"></path><path d="M511.8793460307643,1062.6986282737926L1050.8999785361812,1059.1535075521097L570.28050692752,1055.2942118933424Z" fill="#385e9b" stroke="#385e9b"></path><path d="M570.28050692752,1055.2942118933424L1050.8999785361812,1059.1535075521097L832.6513576554134,1014.9877253640443Z" fill="#30589d" stroke="#30589d"></path><path d="M570.28050692752,1055.2942118933424L832.6513576554134,1014.9877253640443L783.8863256340846,1012.6440059160814Z" fill="#375d9e" stroke="#375d9e"></path><path d="M570.28050692752,1055.2942118933424L783.8863256340846,1012.6440059160814L703.8311967719346,1015.5391481984407Z" fill="#3c5f9e" stroke="#3c5f9e"></path><path d="M832.6513576554134,1014.9877253640443L1050.8999785361812,1059.1535075521097L958.4978976845741,1019.787630639039Z" fill="#2d4e9c" stroke="#2d4e9c"></path><path d="M1050.8999785361812,1059.1535075521097L1836.8157065659761,1058.4917914448306L1488.7643105071038,1058.1003911560401Z" fill="#242288" stroke="#242288"></path><path d="M1050.8999785361812,1059.1535075521097L1488.7643105071038,1058.1003911560401L1195.7368077524006,1052.368340184912Z" fill="#263792" stroke="#263792"></path><path d="M1050.8999785361812,1059.1535075521097L1195.7368077524006,1052.368340184912L1133.6504021985456,1009.7645690850914Z" fill="#274299" stroke="#274299"></path><path d="M1195.7368077524006,1052.368340184912L1488.7643105071038,1058.1003911560401L1325.3018939495087,1043.342374758795Z" fill="#252e8e" stroke="#252e8e"></path><path d="M1325.3018939495087,1043.342374758795L1488.7643105071038,1058.1003911560401L1387.6018044585362,1035.1581504335627Z" fill="#24278c" stroke="#24278c"></path><path d="M1488.7643105071038,1058.1003911560401L1836.8157065659761,1058.4917914448306L1686.0024607786909,1049.777482948266Z" fill="#220d7e" stroke="#220d7e"></path><path d="M1488.7643105071038,1058.1003911560401L1686.0024607786909,1049.777482948266L1584.6909295208752,1010.8342153765261Z" fill="#231584" stroke="#231584"></path><path d="M1686.0024607786909,1049.777482948266L1836.8157065659761,1058.4917914448306L1782.2389427712187,1021.5206617070362Z" fill="#21047b" stroke="#21047b"></path><path d="M1836.8157065659761,1058.4917914448306L2052.532538487576,1027.6937678502873L1961.5559790842235,1023.7944478075951Z" fill="#200073" stroke="#200073"></path></g></svg>